<?xml version="1.0" encoding="UTF-8"?>
<svg width="299px" height="267px" viewBox="0 0 299 267" version="1.1" xmlns="http://www.w3.org/2000/svg" xmlns:xlink="http://www.w3.org/1999/xlink">
    <!-- Generator: Sketch 55.2 (78181) - https://sketchapp.com -->
    <title>Group 184</title>
    <desc>Created with Sketch.</desc>
    <defs>
        <polygon id="path-1" points="0.641272523 0.18301267 268.242498 0.18301267 268.242498 44.856 0.641272523 44.856"></polygon>
        <polygon id="path-3" points="0 267 298.317995 267 298.317995 0.294056 0 0.294056"></polygon>
        <path d="M0.5015,0.4435 C0.562,0.464 0.6655,0.584 0.694,0.6055 L0.694,0.6055 C0.723,0.6275 0.7045,0.581 0.713,0.5725 L0.713,0.5725 C0.7215,0.563 0.728,0.5575 0.7265,0.5275 L0.7265,0.5275 C0.7235,0.4975 0.7325,0.369 0.674,0.355 L0.674,0.355 C0.668,0.3535 0.6625,0.3525 0.6565,0.3525 L0.6565,0.3525 C0.602,0.3525 0.539,0.41 0.5015,0.4435" id="path-5"></path>
        <path d="M0.575186441,20.9295254 C0.575186441,32.2552881 9.75610169,41.4362034 21.0818644,41.4362034 L21.0818644,41.4362034 C32.408339,41.4362034 41.5899661,32.2552881 41.5899661,20.9295254 L41.5899661,20.9295254 C41.5899661,9.60447458 32.408339,0.422847458 21.0818644,0.422847458 L21.0818644,0.422847458 C9.75610169,0.422847458 0.575186441,9.60447458 0.575186441,20.9295254 L0.575186441,20.9295254 Z" id="path-7"></path>
        <path d="M0.42984,18.01656 C0.42984,27.77904 8.3448,35.69328 18.10728,35.69328 L18.10728,35.69328 C27.86976,35.69328 35.784,27.77904 35.784,18.01656 L35.784,18.01656 C35.784,8.25408 27.86976,0.33984 18.10728,0.33984 L18.10728,0.33984 C8.3448,0.33984 0.42984,8.25408 0.42984,18.01656 L0.42984,18.01656 Z" id="path-9"></path>
        <polyline id="path-11" points="0.0236076923 27.8442051 86.2782462 17.3614359 92.6809385 12.5425641 0.0236076923 0.534153846"></polyline>
        <polyline id="path-13" points="0.0236076923 27.8442051 86.2782462 17.3614359 92.6809385 12.5425641 0.0236076923 0.534153846"></polyline>
        <polyline id="path-15" points="0.0236076923 27.8442051 86.2782462 17.3614359 92.6809385 12.5425641 0.0236076923 0.534153846"></polyline>
        <polyline id="path-17" points="0.0236076923 27.8442051 86.2782462 17.3614359 92.6809385 12.5425641 0.0236076923 0.534153846"></polyline>
    </defs>
    <g id="Page-1" stroke="none" stroke-width="1" fill="none" fill-rule="evenodd">
        <g id="Logado-Company-Empty-State" transform="translate(-48.000000, -822.000000)">
            <g id="Group-184" transform="translate(48.000000, 822.000000)">
                <g id="Group-69">
                    <g id="Group-3" transform="translate(7.830952, 222.144000)">
                        <mask id="mask-2" fill="white">
                            <use xlink:href="#path-1"></use>
                        </mask>
                        <g id="Clip-2"></g>
                        <path d="M83.3542945,0.8229296 C69.8160017,1.0386656 56.2791326,1.3583536 42.7451112,1.8090496 C26.8411588,2.3387776 14.1222683,4.0297776 3.88934929,16.9454576 C1.6183731,19.8112576 0.156120714,23.5286096 0.789715952,27.1299056 C1.77356833,32.7248016 7.26591357,36.2912096 12.5069564,38.4806096 C21.9005398,42.4037296 30.9039993,43.1669936 40.8891755,43.3542496 C95.8240183,44.3873616 150.771675,44.5667856 205.715773,44.3603056 C220.598854,44.3047696 262.285861,49.1321296 267.544702,29.7778336 C273.365235,8.3452096 241.239821,3.7435536 228.085245,1.5185536 C213.24203,-0.9926704 196.697364,0.8350336 181.65624,0.6933456 C148.890111,0.3871856 116.118999,0.3003216 83.3542945,0.8229296" id="Fill-1" fill="#F5F7FB" mask="url(#mask-2)"></path>
                    </g>
                    <path d="M83.1042736,222.228586 C128.649093,233.998658 182.137345,224.029234 221.036533,197.851842 C244.750081,181.892362 273.041176,159.566178 275.880252,129.300482 C278.641019,99.8699616 268.445119,69.2133776 247.846155,47.8861296 C234.238807,33.7963616 223.121702,14.4306736 204.837852,5.8610416 C176.747514,-7.3045504 148.790302,5.7777376 121.99919,15.3135536 C103.088152,22.0448016 83.8845212,28.9277056 67.6473974,40.7305296 C37.7716021,62.4479536 17.9429188,102.37193 19.1431902,139.197994 C19.5980974,153.145362 21.178526,167.282122 26.5277783,180.170746 C33.4802402,196.92197 46.5123688,207.43821 62.5829069,214.92489 C69.301864,218.054842 76.3048712,220.47137 83.1042736,222.228586 Z" id="Fill-4" fill="#F5F7FB"></path>
                    <path d="M122.576616,88.8949088 C121.76718,87.3619728 123.709257,87.1526448 124.691685,86.3281488 C125.240564,85.8681968 125.733914,85.3398928 126.15465,84.7596128 C126.351135,84.4883408 126.875097,83.1526288 127.109314,83.0607808 C124.296578,84.1629568 120.922861,83.6873408 118.523742,81.8496688 C121.254609,81.1120368 123.712104,79.4018128 125.353045,77.0977808 C123.707833,76.9959648 122.08825,76.5452688 120.613895,75.8097728 C120.035116,75.5207008 119.354535,75.2088448 118.833421,74.8279248 C118.439738,74.5395648 117.793328,73.5149968 117.257976,73.5171328 C119.48695,73.5057408 121.703821,72.6819568 123.40029,71.2344608 C121.514454,70.7446048 119.768864,69.7470928 118.369971,68.3935808 C117.217397,67.2785888 115.203419,65.0756608 118.0667,65.2771568 C119.306838,65.3640208 120.564061,65.2095168 121.742976,64.8172048 C118.901052,63.3882208 116.246359,61.5861488 113.869309,59.4715088 C115.425533,59.3768128 116.961111,58.9624288 118.354309,58.2618208 C115.137923,57.0485728 112.177111,55.1596368 109.72104,52.7537888 C111.2794,52.7488048 112.836335,52.4882128 114.31069,51.9862528 C112.21769,50.8655648 110.310497,49.4016928 108.675964,47.6807888 C107.471421,46.4127168 106.634933,44.8904608 105.6283,43.4742928 C104.962669,42.5380128 104.976195,42.4903088 104.466471,43.3874288 C104.100552,44.0310768 103.891964,44.7644368 103.5054,45.4102208 C101.937785,48.0289568 99.3514352,50.0503248 96.3906233,50.8306768 C97.8236876,51.9342768 99.7771543,52.3308608 101.527016,51.8716208 C100.173685,53.7747968 98.2088281,55.2372448 95.9962281,55.9855568 C94.8023638,56.3899728 93.5095448,56.6071328 92.4844019,57.3412048 C92.3498519,57.4373248 94.644321,58.3928288 94.86074,58.4391088 C95.8453043,58.6491488 96.65474,58.5786608 97.6506948,58.2903008 C95.8759162,61.2579168 92.7122114,63.3526208 89.2879495,63.8268128 C90.802171,64.9809648 92.8453376,65.4103008 94.6955781,64.9631648 C93.1286757,68.0617888 89.5413876,69.4644288 86.2630662,70.6071888 C87.7922376,71.8368128 89.8560495,72.3750848 91.7910067,72.0497008 C90.0226352,74.7268208 86.5378614,75.5541648 83.3891067,76.1664848 C85.5810614,77.5086048 88.3774233,77.8161888 90.8085781,76.9824368 C90.0625019,78.7553168 88.5475686,80.1166608 86.8603543,81.0387008 C85.1724281,81.9614528 83.30439,82.4933168 81.4541495,83.0180608 C81.6940614,82.9504208 83.2581162,84.0056048 83.6083733,84.1351888 C84.507509,84.4676928 85.4550543,84.6706128 86.4118543,84.7396768 C88.0157757,84.8550208 89.3384948,84.2035408 90.8185448,83.6531648 C91.0734067,83.6538768 91.0235733,84.0568688 90.876209,84.2647728 C89.8482186,85.7179648 88.365321,86.7418208 87.213459,88.0896368 C85.7647329,89.7849088 84.3245495,91.4873008 82.8772471,93.1839968 C80.2204186,96.2989968 77.5586067,99.4239648 74.6917662,102.350285 C77.3279495,105.498037 80.2588614,106.150941 81.4683876,111.157725 C81.9930614,113.330749 82.385321,115.997189 82.8380924,118.614501 L119.522545,118.614501 C118.968683,117.070173 118.414821,115.526557 117.860959,113.982229 C121.269559,113.320781 124.678871,112.659333 128.088183,111.997885 C129.603116,111.703829 131.115914,111.450357 132.608778,110.884317 C133.243085,110.643661 133.888783,110.594533 134.527361,110.350317 C134.793614,110.248501 136.44025,108.742621 136.549171,108.902821 C132.643661,103.156981 128.694726,97.5692048 124.765011,91.9095168 C124.049547,90.8792528 123.171057,90.0198688 122.576616,88.8949088 Z" id="Fill-6" fill="#B0C4DA"></path>
                    <path d="M108.336314,101.415856 C111.626738,101.073384 115.153514,100.934544 118.357797,100.120728 C114.010195,97.79676 109.312335,95.82808 106.595707,91.44216 C108.662366,91.909944 110.965378,91.077616 112.25535,89.397296 C106.3202,88.381984 100.716797,85.512624 96.4232998,81.291176 C99.1114521,80.960808 101.722719,80.023816 104.007933,78.5692 C100.494683,77.855776 95.9256783,76.66104 93.020395,74.38976 C95.4465664,73.573808 97.8513807,72.69876 100.231278,71.752512 C100.657709,71.583056 100.936776,71.142328 100.981626,70.709432 C100.971659,70.8084 96.2837664,69.422848 95.868014,69.264784 C95.150414,68.991376 91.5303783,67.804472 91.6435712,66.923728 C92.833164,67.128072 94.0932355,66.947936 95.2863879,66.854664 C96.5357807,66.756408 97.7851736,66.624688 99.0089379,66.349144 C99.5720545,66.221696 99.7963045,65.790224 99.7656926,65.34736 C98.1140736,64.799832 96.4909307,64.156184 94.9446736,63.355184 C94.1615783,62.950056 93.3991283,62.505768 92.6644426,62.018048 C92.452295,61.877072 90.9580069,61.047592 91.4292879,60.715088 C91.5196998,60.651008 91.6400117,60.651008 91.7510688,60.653144 C93.7650474,60.697288 95.8217402,60.465888 97.7438831,59.82936 C97.8207688,59.803728 97.8898236,59.763856 97.9567426,59.721848 C97.1302212,59.35588 96.3143783,58.952176 95.5184688,58.47656 C94.0426902,57.595104 92.5811498,56.680184 91.2206998,55.627136 C90.5201855,55.085304 89.8445879,54.50716 89.223095,53.874904 C88.9134164,53.558776 88.6016021,53.231968 88.333926,52.878816 C88.2235807,52.732856 87.683245,52.223776 87.6661593,52.098464 C87.6512093,51.984544 87.8014212,51.929008 87.9160379,51.91904 C88.3246712,51.886288 88.7404236,51.909072 89.1398021,51.816512 C89.3626283,51.76596 90.3400736,51.291768 90.3343783,50.997 C90.329395,50.728576 89.379714,50.330568 89.140514,50.17464 C88.1417117,49.522448 87.2098283,48.770576 86.3384569,47.95676 C84.6192069,46.351912 83.1327498,44.51068 81.7722998,42.596112 C80.4168331,40.689376 79.2599879,38.655192 78.4028545,36.475048 C78.3209855,36.266432 78.2505069,36.054968 78.1793164,35.843504 C78.1145331,35.832112 78.0490379,35.827128 77.9842545,35.82428 C76.238664,39.159288 73.816764,42.16464 71.2838069,44.905128 C69.3929879,46.949992 67.4373855,48.893752 65.2162426,50.58404 C64.2352379,51.330216 63.2221974,52.089208 62.1522045,52.702952 C61.5463736,53.050408 60.870064,53.317408 60.242876,53.653472 C59.8819402,54.314208 60.122564,55.259744 61.1028569,55.22272 C61.9286664,55.192104 62.7473569,55.20492 63.5589283,55.218448 C61.8019474,56.487944 59.9353331,57.60792 58.0466498,58.713656 C57.2706736,59.168624 57.3995283,60.443816 58.3015117,60.66596 C59.7723069,61.028368 61.3698212,61.355888 62.9872688,61.525344 C62.4334069,61.860696 61.8581879,62.181808 61.2701545,62.512176 C59.158645,63.69908 57.0307617,64.855368 54.8921998,65.99172 C54.1988045,66.359824 54.1945331,67.46912 54.8921998,67.8358 C56.5217498,68.69376 58.223914,69.215656 59.9452998,69.41644 C56.3231283,71.86928 52.1905212,73.568824 47.8842093,74.344192 C48.536314,74.226 50.2733617,75.230632 51.0877807,75.317496 C52.5984426,75.47912 53.7759331,75.013472 55.2154045,74.79204 C56.7716283,74.552096 59.7602045,74.194672 61.2694426,74.882464 C52.1727236,79.774616 39.7820212,88.410464 30.5535998,93.464952 C34.4939926,95.989704 38.8764783,96.513736 40.6832926,100.529416 C41.4678117,102.272392 42.0544212,104.41124 42.7321545,106.510928 L97.5701783,106.510928 C96.7422331,105.272048 95.9142879,104.03388 95.0863426,102.795 C95.6601379,103.653672 106.871926,101.568224 108.336314,101.415856" id="Fill-8" fill="#72869C"></path>
                    <path d="M285.702117,163.668579 C281.532491,159.536131 280.066679,155.884995 286.206146,146.708739 C292.176179,137.786667 287.858477,123.244067 275.610155,122.013019 C271.056101,121.555915 265.81577,119.342307 266.983294,113.644883 C267.673129,110.280683 270.271582,107.688291 272.724805,105.285291 C275.178029,102.881579 277.733055,100.219411 278.287629,96.8302912 C279.166832,91.4539792 275.12962,89.2923472 272.960446,85.2652752 C270.856055,81.3592432 271.329472,76.8722192 272.417263,72.7169872 C273.673775,67.9159712 275.452113,62.8080832 273.762763,58.1416352 C271.738817,52.5481632 265.040505,48.6314512 265.555213,42.7047632 C265.758817,40.3565872 267.149167,38.1735952 267.020313,35.8204352 C266.267829,22.1329472 249.876222,19.2728432 248.508653,34.1059392 C248.063001,38.9354352 249.338022,43.7321792 250.186613,48.5075632 C251.035915,53.2822352 251.41892,58.4129072 249.335175,62.7931312 C246.806489,68.1110592 241.226579,71.1997152 237.394396,75.6703632 C233.498853,80.2150592 231.474908,86.2535312 231.54681,92.2393152 C231.629391,99.0794992 234.306865,105.904019 233.01547,112.621739 C231.675665,119.592219 226.317158,125.060379 220.737248,129.446299 C215.158051,133.832219 208.986548,137.714043 204.809803,143.452763 C200.232967,149.741859 199.185044,157.002835 199.929696,164.557155 C200.467184,170.013211 207.478734,178.358563 203.977586,183.094075 C203.321922,183.979803 202.424922,184.651931 201.65037,185.435131 C198.65681,188.463267 197.672246,193.089131 198.351403,197.293491 C201.402627,216.183563 228.143905,219.361219 243.033394,223.366219 C255.147165,226.624331 270.11781,223.609723 280.427615,216.462667 C287.256917,211.729291 293.073179,200.846371 296.199865,193.374643 C299.030398,186.611355 299.46822,178.134283 294.743308,172.527995 C291.457867,168.629083 288.124017,166.068019 285.702117,163.668579" id="Fill-10" fill="#72869C"></path>
                    <path d="M65.7009786,211.705653 C70.5098952,205.584589 74.727219,197.393029 71.4866286,190.315749 C69.4833286,185.940509 64.8474048,182.698773 64.4544333,177.902741 C64.0778357,173.301797 67.7932667,169.445605 69.0440833,165.002013 C70.1397048,161.108085 69.1829048,156.695109 66.5716381,153.604317 C62.6497548,148.962789 61.4388048,147.320917 61.7755357,141.329437 C62.1443024,134.771917 62.2795643,129.058117 64.7470262,122.798213 C72.3266762,103.567093 70.616681,82.0611328 59.8583762,64.4142128 C56.7437929,59.3063248 52.497281,54.4063408 52.1954333,48.4305248 C51.9804381,44.1635088 53.8669857,39.9904768 53.6078524,35.7255968 C53.5067619,34.0623648 52.9998857,32.3015888 51.6864214,31.2763088 C49.9002524,29.8815008 47.2996643,30.3222288 45.2109357,31.2022608 C37.8676381,34.2951888 33.8282905,41.6309248 32.240031,49.1318448 C31.4042548,53.0798848 31.3138429,57.1660528 30.3499238,61.0856128 C28.4163905,68.9468048 22.1459333,70.5694528 17.3355929,76.1878448 C11.1989738,83.3541248 9.74241667,94.1900528 13.7696619,102.722661 C15.061769,105.460301 16.9120095,108.201501 16.5994833,111.213261 C16.2243095,114.830221 12.9274786,117.310117 10.8537,120.296957 C8.13635952,124.209397 7.49991667,129.484605 9.2092,133.932469 C12.6234952,142.814669 11.9272524,143.963837 5.80629524,150.489317 C1.21664524,155.382893 -0.639290476,160.408901 1.54412143,167.187853 C3.29255952,172.616853 6.88269524,177.218509 9.85845714,182.084317 C14.7221905,190.038781 17.050831,198.288013 19.3958452,207.188725 C21.0844833,213.597437 24.4147738,220.678277 31.1508167,223.083413 C36.4893905,224.990861 45.605331,225.823901 51.2749405,224.533045 C57.3837952,223.141797 62.0830786,216.310869 65.7009786,211.705653" id="Fill-12" fill="#B0C4DA"></path>
                    <path d="M46.161115,211.423986 C48.5267745,209.352778 50.7984626,207.060138 52.1389793,204.21641 C53.479496,201.37197 53.7564269,197.867506 52.178846,195.148378 C49.7512507,190.96253 43.6032412,190.113114 39.3538817,192.42569 C41.7117102,188.728274 43.2522721,184.513234 43.836746,180.167186 C44.1912745,177.526378 43.6979245,174.110914 41.1364912,173.37613 C38.6170602,172.65345 36.4315126,175.157554 35.000584,177.354074 C36.5140936,171.814714 34.6019174,165.486458 30.2742483,161.712858 C29.1223864,160.708938 27.7469864,159.85169 26.2235102,159.752722 C24.1276626,159.614594 22.1450079,160.979498 21.0365721,162.764482 C19.9288483,164.548754 19.5565221,166.69045 19.3906483,168.784442 C18.6239269,178.472626 21.7733936,187.994914 24.880146,197.202498 C21.784784,193.539258 17.2463912,191.129138 12.4780531,190.61721 C11.3454126,190.495458 10.0874769,190.514682 9.21539357,191.24733 C7.68266262,192.536762 8.31483405,195.016658 9.26309119,196.780994 C11.0642102,200.12953 13.5601483,203.102842 16.5458769,205.456714 C12.4901555,202.86361 7.19429595,202.316794 2.69434595,204.027018 C1.91979357,204.321786 1.14096976,204.699858 0.622703095,205.347066 C-0.612451667,206.888546 0.154981667,209.255234 1.48695548,210.714834 C2.96558167,212.334634 4.98596738,213.335706 6.95580786,214.299754 C12.276584,216.903538 22.5386912,224.157394 27.7071198,223.179106 C33.9498126,221.997186 41.5123769,215.49449 46.161115,211.423986" id="Fill-14" fill="#72869C"></path>
                    <path d="M269.960266,218.744271 C272.001297,216.957151 273.961882,214.979215 275.118016,212.525663 C276.274861,210.070687 276.514061,207.046823 275.152899,204.700071 C273.058475,201.088807 267.753361,200.356159 264.087051,202.351895 C266.120251,199.161423 267.450801,195.524527 267.95483,191.774423 C268.260237,189.496023 267.83523,186.547631 265.624766,185.914663 C263.450609,185.290951 261.565485,187.451871 260.33033,189.347215 C261.636675,184.567559 259.985768,179.106519 256.251828,175.850543 C255.25872,174.984039 254.071975,174.245695 252.757087,174.158831 C250.948137,174.040639 249.238142,175.218287 248.282054,176.758343 C247.325254,178.297687 247.004897,180.145327 246.861804,181.952383 C246.199732,190.311263 248.916361,198.527743 251.598106,206.473663 C248.92704,203.312383 245.010851,201.232631 240.896754,200.791191 C239.919309,200.686527 238.833654,200.702191 238.08117,201.335159 C236.758451,202.446591 237.304482,204.586863 238.122461,206.109119 C239.676549,208.998415 241.830061,211.564463 244.406444,213.595799 C240.90672,211.357271 236.337716,210.885927 232.454275,212.361903 C231.786509,212.616799 231.11447,212.942895 230.667394,213.501103 C229.601673,214.831119 230.263032,216.873135 231.412759,218.132663 C232.689204,219.530319 234.431947,220.393263 236.131263,221.225591 C240.723049,223.472663 249.57772,229.731143 254.037092,228.886711 C259.423363,227.867127 265.949394,222.256567 269.960266,218.744271" id="Fill-16" fill="#B0C4DA"></path>
                    <path d="M50.266029,191.775847 C52.6167386,191.161391 54.7617076,190.179543 56.7721267,188.814639 C57.905479,188.044967 58.9697767,189.884775 57.8442552,190.649463 C55.6964386,192.106927 53.3414576,193.167807 50.8305695,193.824271 C49.5071386,194.170303 48.9425981,192.121879 50.266029,191.775847" id="Fill-18" fill="#2F8E91"></path>
                    <path d="M51.4983362,164.139994 L56.70236,161.947746 C57.9602957,161.418018 58.5098862,163.47285 57.2669005,163.996882 C55.5327005,164.726682 53.7977886,165.457906 52.0628767,166.188418 C50.804941,166.718146 50.2553505,164.663314 51.4983362,164.139994" id="Fill-20" fill="#2F8E91"></path>
                    <path d="M55.4419326,114.538942 C56.0278302,113.304334 57.8602731,114.38159 57.2757993,115.611214 C56.1388874,118.006382 54.1597921,119.929494 51.724366,120.981118 C50.482804,121.517254 49.399285,119.687414 50.6522374,119.146294 C52.800054,118.21927 54.437435,116.653582 55.4419326,114.538942 Z" id="Fill-22" fill="#2F8E91"></path>
                    <path d="M247.67843,232.97943 L38.7749607,232.97943 C34.2095155,232.97943 30.5083226,229.277742 30.5083226,224.712398 L30.5083226,84.6199896 C30.5083226,80.0539336 34.2095155,76.3529576 38.7749607,76.3529576 L247.67843,76.3529576 C252.243875,76.3529576 255.945068,80.0539336 255.945068,84.6199896 L255.945068,224.712398 C255.945068,229.277742 252.243875,232.97943 247.67843,232.97943" id="Fill-24" fill="#54687E"></path>
                    <mask id="mask-4" fill="white">
                        <use xlink:href="#path-3"></use>
                    </mask>
                    <g id="Clip-27"></g>
                    <polygon id="Fill-26" fill="#FFFFFF" mask="url(#mask-4)" points="33.2730048 224.888048 252.395155 224.888048 252.395155 85.944808 33.2730048 85.944808"></polygon>
                    <polygon id="Fill-28" fill="#F5F7FB" mask="url(#mask-4)" points="37.1386476 186.192984 92.7085095 186.192984 92.7085095 141.98348 37.1386476 141.98348"></polygon>
                    <polygon id="Fill-29" fill="#F5F7FB" mask="url(#mask-4)" points="156.488057 197.560776 193.744881 197.560776 193.744881 141.98348 156.488057 141.98348"></polygon>
                    <polygon id="Fill-30" fill="#F5F7FB" mask="url(#mask-4)" points="97.39925 136.414928 151.499029 136.414928 151.499029 91.558928 97.39925 91.558928"></polygon>
                    <polygon id="Fill-31" fill="#F5F7FB" mask="url(#mask-4)" points="97.7601857 146.994536 153.330048 146.994536 153.330048 143.408192 97.7601857 143.408192"></polygon>
                    <polygon id="Fill-32" fill="#F5F7FB" mask="url(#mask-4)" points="97.7601857 163.501544 153.330048 163.501544 153.330048 159.9152 97.7601857 159.9152"></polygon>
                    <polygon id="Fill-33" fill="#F5F7FB" mask="url(#mask-4)" points="97.7601857 175.456024 153.330048 175.456024 153.330048 171.86968 97.7601857 171.86968"></polygon>
                    <polygon id="Fill-34" fill="#F5F7FB" mask="url(#mask-4)" points="198.164386 146.019096 249.314031 146.019096 249.314031 141.984192 198.164386 141.984192"></polygon>
                    <polygon id="Fill-35" fill="#F5F7FB" mask="url(#mask-4)" points="198.164386 156.030528 249.314031 156.030528 249.314031 151.996336 198.164386 151.996336"></polygon>
                    <polygon id="Fill-36" fill="#F5F7FB" mask="url(#mask-4)" points="198.164386 166.043384 249.314031 166.043384 249.314031 162.00848 198.164386 162.00848"></polygon>
                    <polygon id="Fill-37" fill="#F5F7FB" mask="url(#mask-4)" points="198.164386 176.055528 249.314031 176.055528 249.314031 172.020624 198.164386 172.020624"></polygon>
                    <polygon id="Fill-38" fill="#F5F7FB" mask="url(#mask-4)" points="198.164386 186.067672 249.314031 186.067672 249.314031 182.03348 198.164386 182.03348"></polygon>
                    <polygon id="Fill-39" fill="#F5F7FB" mask="url(#mask-4)" points="198.164386 196.079816 249.314031 196.079816 249.314031 192.044912 198.164386 192.044912"></polygon>
                    <polygon id="Fill-40" fill="#F5F7FB" mask="url(#mask-4)" points="154.738907 96.178384 249.029981 96.178384 249.029981 92.14348 154.738907 92.14348"></polygon>
                    <polygon id="Fill-41" fill="#F5F7FB" mask="url(#mask-4)" points="154.738907 106.364256 249.029981 106.364256 249.029981 102.329352 154.738907 102.329352"></polygon>
                    <polygon id="Fill-42" fill="#F5F7FB" mask="url(#mask-4)" points="154.738907 116.549416 249.029981 116.549416 249.029981 112.514512 154.738907 112.514512"></polygon>
                    <polygon id="Fill-43" fill="#F5F7FB" mask="url(#mask-4)" points="154.738907 126.735288 249.029981 126.735288 249.029981 122.700384 154.738907 122.700384"></polygon>
                    <polygon id="Fill-44" fill="#F5F7FB" mask="url(#mask-4)" points="154.738907 136.920448 249.029981 136.920448 249.029981 132.885544 154.738907 132.885544"></polygon>
                    <polygon id="Fill-45" fill="#F5F7FB" mask="url(#mask-4)" points="37.2746214 96.178384 93.8347429 96.178384 93.8347429 92.14348 37.2746214 92.14348"></polygon>
                    <polygon id="Fill-46" fill="#F5F7FB" mask="url(#mask-4)" points="37.2746214 106.364256 93.8347429 106.364256 93.8347429 102.329352 37.2746214 102.329352"></polygon>
                    <polygon id="Fill-47" fill="#F5F7FB" mask="url(#mask-4)" points="37.2746214 116.549416 93.8347429 116.549416 93.8347429 112.514512 37.2746214 112.514512"></polygon>
                    <polygon id="Fill-48" fill="#F5F7FB" mask="url(#mask-4)" points="37.2746214 126.735288 93.8347429 126.735288 93.8347429 122.700384 37.2746214 122.700384"></polygon>
                    <polygon id="Fill-49" fill="#F5F7FB" mask="url(#mask-4)" points="37.2746214 136.920448 93.8347429 136.920448 93.8347429 132.885544 37.2746214 132.885544"></polygon>
                    <polygon id="Fill-50" fill="#F5F7FB" mask="url(#mask-4)" points="37.1386476 192.305504 92.7085095 192.305504 92.7085095 188.71916 37.1386476 188.71916"></polygon>
                    <polygon id="Fill-51" fill="#F5F7FB" mask="url(#mask-4)" points="37.1386476 202.267096 92.7085095 202.267096 92.7085095 198.680752 37.1386476 198.680752"></polygon>
                    <polygon id="Fill-52" fill="#F5F7FB" mask="url(#mask-4)" points="37.1386476 212.230112 92.7085095 212.230112 92.7085095 208.643768 37.1386476 208.643768"></polygon>
                    <polygon id="Fill-53" fill="#F5F7FB" mask="url(#mask-4)" points="37.1386476 222.191704 92.7085095 222.191704 92.7085095 218.60536 37.1386476 218.60536"></polygon>
                    <polygon id="Fill-54" fill="#F5F7FB" mask="url(#mask-4)" points="97.7601857 181.263096 153.330048 181.263096 153.330048 178.613744 97.7601857 178.613744"></polygon>
                    <polygon id="Fill-55" fill="#F5F7FB" mask="url(#mask-4)" points="97.7601857 190.094744 153.330048 190.094744 153.330048 187.445392 97.7601857 187.445392"></polygon>
                    <polygon id="Fill-56" fill="#F5F7FB" mask="url(#mask-4)" points="97.7601857 198.92568 153.330048 198.92568 153.330048 196.276328 97.7601857 196.276328"></polygon>
                    <polygon id="Fill-57" fill="#F5F7FB" mask="url(#mask-4)" points="198.164386 205.863408 249.314031 205.863408 249.314031 202.28632 198.164386 202.28632"></polygon>
                    <polygon id="Fill-58" fill="#F5F7FB" mask="url(#mask-4)" points="198.164386 215.876264 249.314031 215.876264 249.314031 212.298464 198.164386 212.298464"></polygon>
                    <polygon id="Fill-59" fill="#F5F7FB" mask="url(#mask-4)" points="97.7601857 208.172424 153.330048 208.172424 153.330048 205.523072 97.7601857 205.523072"></polygon>
                    <polygon id="Fill-60" fill="#F5F7FB" mask="url(#mask-4)" points="97.7601857 217.004072 153.330048 217.004072 153.330048 214.35472 97.7601857 214.35472"></polygon>
                    <polygon id="Fill-61" fill="#F5F7FB" mask="url(#mask-4)" points="157.560898 208.172424 193.50141 208.172424 193.50141 205.523072 157.560898 205.523072"></polygon>
                    <polygon id="Fill-62" fill="#F5F7FB" mask="url(#mask-4)" points="157.560898 217.004072 193.50141 217.004072 193.50141 214.35472 157.560898 214.35472"></polygon>
                    <path d="M195.897823,254.783006 C195.934842,255.359014 195.850126,256.11943 195.226497,256.387854 C195.015773,256.478278 194.789388,256.484686 194.572969,256.488246 C194.110942,256.496078 193.65034,256.504622 193.188314,256.513166 C192.872228,256.518862 192.551159,256.523134 192.264261,256.44339 C192.03218,256.37931 191.831423,256.26183 191.611445,256.178526 C190.475957,255.747054 189.035773,256.23691 187.710207,256.398534 C185.888442,256.620678 183.539869,256.113734 182.327495,255.037902 C181.023997,253.882326 182.701957,252.269646 184.36639,252.24615 C185.916207,252.223366 187.396257,252.711798 188.960311,252.334438 C189.395285,252.229062 189.855176,252.034686 190.122852,251.682958 C190.443209,251.26003 190.392664,250.74739 190.326457,250.292422 C190.22679,249.606054 190.127123,248.918262 190.027457,248.23047 C189.979047,247.89583 189.790392,247.613166 189.626654,247.334062 C190.734378,247.502094 192.032892,247.329078 193.218926,247.257166 C194.239797,247.195222 195.230769,246.809318 195.452171,247.806118 C195.932707,249.968462 195.754019,252.525966 195.897823,254.783006" id="Fill-63" fill="#141D28" mask="url(#mask-4)"></path>
                    <path d="M253.226731,252.483886 C253.35345,252.686094 253.294362,252.94811 253.229578,253.177374 C252.691378,255.082686 252.012933,256.948126 251.201362,258.753758 C250.714419,259.838846 250.140624,260.946006 249.16745,261.628814 C248.438459,262.140742 247.545731,262.365734 246.663681,262.493894 C245.684812,262.635582 244.629057,262.657654 243.769076,262.169222 C242.908383,261.681502 242.362352,260.532334 242.827938,259.660134 C243.257216,258.856286 244.174862,258.745926 244.991416,258.77583 C245.446324,258.792918 245.770952,259.06063 246.106259,258.74379 C246.327662,258.535886 246.398852,257.853078 246.465059,257.56543 C246.569709,257.116158 246.630221,256.60423 246.365393,256.190558 C246.069952,255.72847 245.468393,255.58607 244.923785,255.524126 C244.575664,255.484254 244.181981,255.439398 243.972681,255.15887 C243.798976,254.926758 243.812502,254.608494 243.840978,254.320134 C243.873014,253.996886 243.914305,253.673638 243.96485,253.353238 C244.055262,252.776518 244.117197,251.405918 244.548612,250.983702 C244.740114,250.795734 245.093931,250.812822 245.338826,250.809262 C246.219452,250.797158 247.120724,250.981566 247.98284,251.138206 C249.55615,251.423718 251.128747,251.765478 252.675005,252.174166 C252.884305,252.229702 253.112114,252.30019 253.226731,252.483886 Z" id="Fill-64" fill="#141D28" mask="url(#mask-4)"></path>
                    <path d="M231.302556,220.698782 C230.604889,219.247726 228.29547,218.384782 226.877356,217.887094 C221.775846,216.097126 216.346149,215.403638 210.98337,214.799862 C208.691037,214.541406 206.395144,214.301462 204.089996,214.19039 C202.062491,214.093558 199.990137,213.911286 197.96548,213.968958 C197.086277,213.993878 196.205651,214.018798 195.326449,214.043718 C194.690718,214.062942 194.049291,214.081454 193.433494,214.24023 C192.483813,214.484446 191.74272,214.552798 191.02512,215.316774 C189.374213,217.076838 188.417413,219.399382 187.94898,221.766782 C187.891315,222.059414 187.840058,222.35347 187.795208,222.648238 C187.783106,227.207886 187.811582,231.761126 188.185332,236.32291 C188.537725,240.631222 188.986937,244.930278 189.438996,249.228622 C191.286389,249.280598 193.133782,249.330438 194.979751,249.39523 C195.590565,249.389534 196.200668,249.385262 196.812194,249.382414 C198.992758,242.461774 199.368644,235.053414 199.597877,227.77179 C205.949491,229.23495 212.692653,230.406902 219.221532,230.951582 C224.027601,231.35315 229.950649,231.049126 231.409341,225.394422 C231.595149,224.676726 231.672034,223.935534 231.694815,223.195766 C231.721156,222.345638 231.671322,221.464894 231.302556,220.698782" id="Fill-65" fill="#273A50" mask="url(#mask-4)"></path>
                    <path d="M194.89774,182.599805 C195.020899,183.257693 195.287151,183.880693 195.595406,184.474501 C196.260325,185.751829 197.326047,187.033429 198.763382,187.116733 C199.554309,187.162301 200.345235,186.830509 201.12477,186.969349 C201.877254,187.102493 202.481661,187.650021 203.019149,188.193277 C204.194504,189.380893 205.270904,190.668189 206.231975,192.035941 C207.786063,191.476309 209.42202,190.859717 210.450011,189.566725 C207.974718,185.841541 205.20968,182.309309 202.188356,179.011325 C200.305368,176.957205 197.694813,176.521461 195.80257,178.923037 C194.997406,179.945469 194.659251,181.321053 194.89774,182.599805 Z" id="Fill-66" fill="#B0C4DA" mask="url(#mask-4)"></path>
                    <path d="M208.72115,190.25174 C207.8391,189.185876 206.329862,188.64262 204.996465,189.012148 C202.724776,189.641556 201.617053,193.29198 200.8425,195.236452 C199.950484,197.473556 198.975174,199.70354 197.54211,201.638044 C194.586281,205.628804 189.674138,208.078796 184.712162,208.085204 C185.222598,210.115116 185.406269,212.2027 185.567872,214.294556 C186.597998,214.108724 187.999026,214.454044 188.913824,214.590748 C194.463834,215.41738 199.97896,212.25254 203.547738,208.184884 C205.708369,205.7235 208.985979,200.895428 209.862334,196.484588 C210.325072,194.1535 210.117907,191.93918 208.72115,190.25174" id="Fill-67" fill="#72869C" mask="url(#mask-4)"></path>
                    <path d="M217.183277,217.557011 C217.654558,216.738923 218.195606,216.838603 219.029246,216.704747 C220.194635,216.518203 221.323004,216.048995 222.447101,215.701539 C226.025135,214.595091 232.955527,212.365819 233.354194,212.167883 C233.557087,212.066779 225.155187,200.919707 224.334361,199.949251 C222.331061,197.579715 220.243756,195.277107 218.010511,193.120459 C216.869327,192.017571 215.689701,190.953843 214.471632,189.937107 C213.359637,189.010083 212.394294,188.101571 211.067304,187.479995 C210.788949,187.349699 210.504899,187.217267 210.201627,187.167427 C209.884118,187.114739 209.559489,187.153187 209.241268,187.193771 C208.698085,187.262123 208.152765,187.334747 207.632363,187.505627 C206.176518,187.983379 205.04103,189.215139 204.45442,190.630595 C203.867811,192.046763 203.78523,193.630963 203.969613,195.152507 C204.213796,197.168179 205.05598,199.106955 205.873246,200.968835 C206.754585,202.973827 207.793254,204.908331 208.941556,206.773059 C211.324301,210.644203 214.206804,214.260451 217.183277,217.557011 Z" id="Fill-68" fill="#72869C" mask="url(#mask-4)"></path>
                </g>
                <g id="Group-72" transform="translate(216.000000, 218.000000)">
                    <mask id="mask-6" fill="white">
                        <use xlink:href="#path-5"></use>
                    </mask>
                    <g id="Clip-71"></g>
                    <path d="M0.5015,0.4435 C0.562,0.464 0.6655,0.584 0.694,0.6055 L0.694,0.6055 C0.723,0.6275 0.7045,0.581 0.713,0.5725 L0.713,0.5725 C0.7215,0.563 0.728,0.5575 0.7265,0.5275 L0.7265,0.5275 C0.7235,0.4975 0.7325,0.369 0.674,0.355 L0.674,0.355 C0.668,0.3535 0.6625,0.3525 0.6565,0.3525 L0.6565,0.3525 C0.602,0.3525 0.539,0.41 0.5015,0.4435" id="Fill-70" mask="url(#mask-6)"></path>
                </g>
                <g id="Group-85" transform="translate(149.000000, 174.000000)">
                    <path d="M97.5063518,75.0638237 C90.6670964,72.8271458 83.9258409,70.4053831 76.948527,68.6157559 C77.3598409,68.7218237 80.2998409,62.8261627 80.6246,62.2004339 C83.2112277,57.2223661 86.166965,51.9994169 86.3000161,46.1998576 C86.3386438,44.5433492 86.0367752,42.8939593 85.5796803,41.3000949 C84.9959723,39.262739 84.0903664,37.2346373 82.9916219,35.3795186 C82.5481182,34.6306373 82.0631255,33.9073831 81.5602496,33.1969424 C76.7496657,36.5832814 71.0885562,38.5615525 65.6520599,40.8017898 C65.7486292,40.9726373 65.8502058,41.1413492 65.9410526,41.3164678 C66.4146,42.2283661 67.0762788,43.3431458 67.3101912,44.3411797 C67.6442496,45.7656203 67.4747168,47.4477559 67.2629796,48.8778915 C66.9060307,51.2953831 66.1835489,53.6053831 65.5168628,56.0008068 C64.5132569,59.6085356 63.8043664,63.0034169 63.0690088,66.8325356 C62.450965,70.048739 60.8514905,75.1044 63.7199577,77.5774169 C66.8759869,80.2981627 70.9590818,80.2326712 74.5342934,80.6505356 C79.8456073,81.2712814 84.1976657,81.8194169 89.3659139,82.7526712 C91.2472277,83.0922305 93.4740453,83.3463661 95.5091547,83.5748746 C96.2209066,80.7494847 96.8697095,77.907722 97.5063518,75.0638237" id="Fill-73" fill="#273A50"></path>
                    <path d="M46.4274642,51.4680102 L0.612821898,12.7383153" id="Stroke-75" stroke="#54687E" stroke-width="5"></path>
                    <path d="M35.6884526,34.7794881 C35.4395182,34.8122339 35.1912993,34.8478271 34.9437956,34.8912508 C34.5203212,34.9674203 34.0846861,35.058539 33.6590657,35.0571153 C33.4237226,35.0564034 33.1919562,35.0272169 32.9666277,34.9503356 C31.7763212,34.5481322 30.963708,34.3246068 30.083854,35.4564712 C29.541635,36.1548102 29.1696642,37.2040983 29.349927,38.0896576 C29.4729635,38.6961661 29.8198978,39.2620983 30.3263504,39.6251492 C31.1976204,40.2501661 32.5116788,40.2224034 33.5982628,39.9298271 C33.8851095,39.8529458 34.156219,39.7575559 34.3994307,39.6514881 C35.029635,39.3752847 35.6319416,39.0392847 35.9867445,38.4370475 C36.1884672,38.0932169 36.2929051,37.746539 36.4574307,37.4347424 C36.1712993,36.559861 35.9431095,35.6657593 35.6884526,34.7794881" id="Fill-77" fill="#B0C4DA"></path>
                    <path d="M37.8455971,39.0367932 C37.7139766,38.1733017 36.4642978,37.3596407 35.4528234,37.3083864 C34.4892759,37.2592678 33.5393197,37.5297763 32.5779182,37.6087932 C31.6158015,37.6878102 30.5435241,37.5262169 29.9075971,36.8036746 C29.2881226,36.1003525 29.2509255,35.0759797 28.9068526,34.2053695 C28.6107066,33.4550644 28.0670569,32.8044203 27.3803416,32.3773017 C27.1528672,32.5025898 27.0849109,32.8086915 27.1392759,33.0621153 C27.1936409,33.3162508 27.3402832,33.5383525 27.4525898,33.7725559 C28.2094073,35.3621492 27.6071007,37.2158441 25.7436701,35.8184542 C24.5698161,34.937878 23.3136993,34.1676407 21.9960642,33.5205559 C21.8472759,33.4472339 21.6698745,33.3760475 21.5225168,33.4515051 C21.3587066,33.5355051 21.3265168,33.7547593 21.3472613,33.9369966 C21.4073489,34.4815729 21.742838,34.9514034 21.934546,35.4639458 C22.1362686,36.0028271 22.1770423,36.5858441 22.3000788,37.1475051 C22.5933635,38.486522 23.4152759,39.4888271 24.7343416,39.8995729 C26.2916117,40.3843525 27.914692,40.6562847 29.5449255,40.7068271 C32.1794803,40.7886915 34.7632467,41.7682169 37.2010861,40.1800475 C37.7332905,39.8340814 37.9049693,39.4304542 37.8455971,39.0367932" id="Fill-79" fill="#B0C4DA"></path>
                    <path d="M63.2740219,19.7802915 C63.0873212,19.0121898 62.6581241,18.3053085 62.187438,17.6247661 C61.5515109,16.7036136 60.6788102,15.8671729 59.5793504,15.4649695 C58.4806058,15.063478 57.2302117,15.1674102 56.353219,15.9312407 C55.667219,16.5284949 55.4891022,17.4240203 55.2573358,18.2077831 C54.347438,21.2851729 53.258708,24.2643254 51.8144599,27.0790373 C51.2350438,28.2080542 50.8974088,29.1413085 49.9882263,30.031139 C48.8859051,31.1096136 47.6133358,31.9439186 46.2105766,32.6443932 C45.2098321,33.1448339 44.251292,33.5676814 43.1425328,33.8986983 C39.6610292,34.9380203 36.0772336,35.412122 32.4591022,35.6705288 C32.4748394,37.6964949 32.4812774,39.722461 32.4190438,41.7462915 C38.4413942,41.833139 44.0681679,42.8069695 49.6677591,40.1723593 C54.2723285,38.0068678 57.7609854,34.8682576 60.7560657,30.6960203 C63.058708,27.4897831 64.2361387,23.7396814 63.2740219,19.7802915" id="Fill-81" fill="#72869C"></path>
                    <path d="M73.7098058,10.7853864 C73.3449883,9.2541661 72.1232073,7.90660678 70.5780978,7.56775932 C70.3005504,7.50725085 70.0230029,7.47806441 69.7440248,7.47379322 C68.3927693,7.45101356 67.0379372,8.01053898 65.695981,8.33372542 C65.014273,8.4981661 64.1894993,8.56365763 63.7102292,8.05253898 C63.2924774,7.60762373 63.3032073,6.88009831 62.8825942,6.43731864 C62.3983168,5.92762373 61.5663898,6.00592881 60.8904044,6.20525085 C60.362492,6.36114915 59.8488861,6.56687797 59.3588861,6.81887797 C58.894638,7.05806441 58.0777328,7.37199661 57.6227839,6.9441661 C57.2479518,6.59321695 57.3674117,5.98599661 57.5033241,5.49125085 C57.7493971,4.59714915 57.4096161,3.60908136 56.581981,3.14352203 C56.1048569,2.87443729 55.5640686,2.87657288 55.0754993,2.64735254 C54.5146818,2.38538644 54.0525796,1.94047119 53.6190905,1.51050508 C52.9502584,0.844911864 52.1891489,0.127352542 51.2442,0.0988779661 C50.1146964,0.0639966102 49.2377036,1.00508136 48.3921854,1.75111525 C47.4293533,2.60108136 46.3112949,3.27806441 45.1109737,3.74077627 C44.3627401,4.02908136 43.4750175,4.33589492 43.2346672,5.09758983 C43.1194993,5.46277627 43.2010467,5.89060678 43.4628569,6.17179322 C43.7246672,6.4522678 44.1638788,6.56331864 44.5193971,6.41525085 C45.0065358,6.21236949 45.4042584,5.61297966 46.006565,5.93118305 C46.4278934,6.15257288 46.6060102,6.85091186 46.8814117,7.21894576 C47.3327839,7.82260678 47.8506818,8.3842678 48.4107839,8.88969153 C49.9008131,10.2351153 52.1633971,10.7369797 54.0761854,10.0422 C54.5862146,9.85711525 55.0669153,9.58874237 55.5912511,9.45135254 C56.3430613,9.25345424 56.973981,9.29901356 57.3466672,9.99948814 C57.7114847,10.6857254 57.8488277,11.4709119 58.0362438,12.2169458 C58.2780248,13.1850814 58.6063606,14.1325729 59.0148131,15.0444712 C59.2580248,15.5876237 59.5348569,16.1250814 59.9375869,16.5635898 C60.2873825,16.9444373 60.7230175,17.2384373 61.1751051,17.491861 C62.9941854,18.5069797 65.1702146,18.8721661 67.2239226,18.5084034 C69.2525942,18.1474881 71.5316307,16.9835898 72.7383898,15.2665729 C73.6447109,13.9766746 74.073908,12.3173186 73.7098058,10.7853864" id="Fill-83" fill="#54687E"></path>
                </g>
                <g id="Group-92" transform="translate(115.000000, 151.000000)">
                    <mask id="mask-8" fill="white">
                        <use xlink:href="#path-7"></use>
                    </mask>
                    <g id="Clip-87"></g>
                    <polygon id="Fill-86" fill="#F5F7FB" mask="url(#mask-8)" points="-0.639966102 42.955322 44.9314576 42.955322 44.9314576 -0.185084746 -0.639966102 -0.185084746"></polygon>
                    <polygon id="Fill-88" fill="#B0C4DA" mask="url(#mask-8)" points="-9.0940678 39.2707119 51.0072203 39.2707119 51.0072203 33.1187797 -9.0940678 33.1187797"></polygon>
                    <polygon id="Fill-89" fill="#B0C4DA" mask="url(#mask-8)" points="-9.0940678 27.7214237 51.0072203 27.7214237 51.0072203 21.5694915 -9.0940678 21.5694915"></polygon>
                    <polygon id="Fill-90" fill="#B0C4DA" mask="url(#mask-8)" points="-9.0940678 16.941661 51.0072203 16.941661 51.0072203 10.7897288 -9.0940678 10.7897288"></polygon>
                    <polygon id="Fill-91" fill="#B0C4DA" mask="url(#mask-8)" points="-9.0940678 5.39308475 51.0072203 5.39308475 51.0072203 -0.759559322 -9.0940678 -0.759559322"></polygon>
                </g>
                <g id="Group-103" transform="translate(63.000000, 126.000000)">
                    <path d="M92.590516,45.9027691 C92.590516,57.2428755 83.4346305,66.4361309 72.1390351,66.4361309 C60.8441496,66.4361309 51.6882641,57.2428755 51.6882641,45.9027691 C51.6882641,34.5633755 60.8441496,25.3701202 72.1390351,25.3701202 C83.4346305,25.3701202 92.590516,34.5633755 92.590516,45.9027691 Z" id="Stroke-93" stroke="#54687E" stroke-width="5"></path>
                    <path d="M72.4051855,61.3232468 C68.9435977,61.3232468 65.4976282,60.1521723 62.579842,57.9247787 C58.7064985,54.9682255 56.3942771,50.6011085 56.237384,45.9438957 C56.125216,42.6181298 57.1063305,39.2453213 58.9613611,36.4683851 C59.4476588,35.7392255 60.4507809,35.5852681 61.1209489,36.1476404 L61.2040099,36.216066 C61.7875672,36.7057362 61.8826969,37.5517894 61.4602924,38.1875766 C59.9651931,40.4335021 59.1750481,43.1562681 59.2652084,45.8405447 C59.3915748,49.5804277 61.2679031,53.102917 64.4135748,55.5035128 C67.2404908,57.6617681 70.6601931,58.6068957 73.971987,58.1806617 C74.7230863,58.0837255 75.4308802,58.5455979 75.6083611,59.2840234 L75.6339183,59.3916511 C75.8390863,60.2455447 75.2541092,61.0809064 74.3865824,61.1942362 C73.7277733,61.2797681 73.0661244,61.3232468 72.4051855,61.3232468" id="Fill-95" fill="#FFFFFF"></path>
                    <path d="M9.71871298,7.99039149 C9.21608702,7.76729574 8.59987328,7.82217872 8.15546107,7.49644468 C7.90982748,7.31682766 7.7515145,7.04241277 7.61236947,6.7715617 C7.17079695,5.91481702 6.83997252,5.0003383 6.63267481,4.0580617 C6.38207176,2.9212 6.34657557,1.61968936 7.07282748,0.712338298 C9.15787328,2.23623191 9.66404885,5.1992 11.5105603,7.0060617 C11.7888504,7.27762553 12.1019267,7.52923191 12.2765679,7.8770617 C13.2583924,9.82861489 10.1673847,8.18925319 9.71871298,7.99039149" id="Fill-97" fill="#72869C"></path>
                    <path d="M10.0293046,10.8926319 C10.2926863,10.3609085 10.5688466,9.87408936 10.7314191,9.50772766 C10.8464267,9.24899362 10.9635641,8.97671702 10.9394267,8.6944617 C10.8655947,7.83201489 9.69635038,6.82772766 9.33925878,6.01089787 C8.83308321,4.85336596 8.59525878,3.57466383 8.66341145,2.31164255 C8.67122061,2.1662383 8.69748779,1.99802553 8.82314427,1.92603617 C8.98784656,1.8312383 9.18591527,1.97165319 9.31938092,2.10707872 C10.5021137,3.30808936 11.2546328,4.83055745 12.1200298,6.25822766 C12.8349229,7.43642979 14.7815336,8.99311064 14.5721061,10.4549936 C14.4833656,11.0743872 14.1674496,11.6339085 13.857213,12.1756106 C13.401442,12.9731957 12.945671,13.7707809 12.4891901,14.5676532 C12.2549153,14.9782064 11.9659763,15.4293872 11.5031061,15.5206213 C10.7385183,15.6717277 9.9128771,14.6068553 9.61257939,13.9881745 C9.09930458,12.9318553 9.53661756,11.888366 10.0293046,10.8926319" id="Fill-99" fill="#72869C"></path>
                    <path d="M10.0445679,10.3194255 C11.5517359,11.2246383 13.0581939,12.1298511 14.5646519,13.0350638 C9.8635374,19.4927234 7.86936183,27.8741383 9.15574351,35.7680213 C9.51993435,38.0053936 10.1354382,40.2099787 10.2433466,42.4737234 C10.3675832,45.066766 9.32470534,50.0219149 6.31178931,50.7489362 C5.23483511,51.008383 4.03293435,50.6598404 3.25982748,49.8629681 C2.56836183,49.1502021 2.24463664,48.1644468 1.97770534,47.2057766 C-0.121538931,39.6668511 0.0516824427,31.5220745 2.38165191,24.0572766 C2.70892672,23.0059468 8.86822443,9.62091489 10.0445679,10.3194255" id="Fill-101" fill="#B0C4DA"></path>
                </g>
                <g id="Group-110" transform="translate(69.000000, 103.000000)">
                    <mask id="mask-10" fill="white">
                        <use xlink:href="#path-9"></use>
                    </mask>
                    <g id="Clip-105"></g>
                    <polygon id="Fill-104" fill="#F5F7FB" mask="url(#mask-10)" points="-0.61704 37.00296 38.66472 37.00296 38.66472 -0.1836 -0.61704 -0.1836"></polygon>
                    <polygon id="Fill-106" fill="#B0C4DA" mask="url(#mask-10)" points="-7.90488 33.82632 43.902 33.82632 43.902 28.52352 -7.90488 28.52352"></polygon>
                    <polygon id="Fill-107" fill="#B0C4DA" mask="url(#mask-10)" points="-7.90488 23.87088 43.902 23.87088 43.902 18.56808 -7.90488 18.56808"></polygon>
                    <polygon id="Fill-108" fill="#B0C4DA" mask="url(#mask-10)" points="-7.90488 14.57928 43.902 14.57928 43.902 9.27648 -7.90488 9.27648"></polygon>
                    <polygon id="Fill-109" fill="#B0C4DA" mask="url(#mask-10)" points="-7.90488 4.62312 43.902 4.62312 43.902 -0.67968 -7.90488 -0.67968"></polygon>
                </g>
                <g id="Group-165" transform="translate(35.000000, 10.000000)">
                    <path d="M53.4022776,93.2634615 C44.6898221,93.2634615 35.5930249,103.036966 35.5930249,111.754915 C35.5930249,120.473575 42.6812811,127.56688 51.3937367,127.56688 C60.1054804,127.56688 69.2022776,117.793376 69.2022776,109.074715 C69.2022776,100.356766 62.1147331,93.2634615 53.4022776,93.2634615 M53.4022776,128.237108 C42.8442705,128.237108 34.2542349,119.640954 34.2542349,109.074715 C34.2542349,98.509188 45.5225623,85.8930912 56.0805694,85.8930912 C66.6392883,85.8930912 75.2286121,94.4885328 75.2286121,105.054772 C75.2286121,115.621011 63.9602847,128.237108 53.4022776,128.237108" id="Fill-111" fill="#72869C"></path>
                    <path d="M52.0632028,94.6037749 C43.3507473,94.6037749 36.2624911,101.696368 36.2624911,110.415028 C36.2624911,119.133689 43.3507473,126.226994 52.0632028,126.226994 C60.7756584,126.226994 67.8632028,119.133689 67.8632028,110.415028 C67.8632028,101.696368 60.7756584,94.6037749 52.0632028,94.6037749 M52.0632028,129.577422 C41.5051957,129.577422 32.9151601,120.981268 32.9151601,110.415028 C32.9151601,99.8487892 41.5051957,91.2533476 52.0632028,91.2533476 C62.62121,91.2533476 71.2112456,99.8487892 71.2112456,110.415028 C71.2112456,120.981268 62.62121,129.577422 52.0632028,129.577422" id="Fill-113" fill="#54687E"></path>
                    <path d="M52.2901779,123.547293 C49.3321708,123.547293 46.3883986,122.550855 43.8951601,120.654131 C40.5855516,118.135613 38.6097509,114.416239 38.4759431,110.449715 C38.3805694,107.617094 39.2182918,104.746011 40.8026335,102.379915 C41.2182918,101.759544 42.0759431,101.627778 42.6488968,102.10641 L42.7193594,102.165527 C43.2182918,102.582194 43.2994306,103.303704 42.9385765,103.844302 C41.6609964,105.756695 40.9862633,108.075783 41.0631317,110.362108 C41.170605,113.547293 42.7741637,116.546581 45.4617082,118.591453 C47.8773665,120.42906 50.7990747,121.234615 53.628968,120.871368 C54.2702491,120.788746 54.8752313,121.181909 55.0268327,121.810826 L55.0488968,121.902707 C55.2246975,122.629915 54.7243416,123.341453 53.9834164,123.437607 C53.420427,123.510969 52.8553025,123.547293 52.2901779,123.547293" id="Fill-115" fill="#FFFFFF"></path>
                    <path d="M0.741921708,237.787037 C0.702775801,237.867521 0.666476868,237.950142 0.635160142,238.034188 C0.0728825623,239.526353 1.75829181,240.986467 2.5319573,242.108262 C3.79032028,243.933048 5.04868327,245.757835 6.30775801,247.583333 C6.72697509,248.190883 7.15829181,248.811966 7.7597153,249.239316 C9.22946619,250.284188 11.8970819,250.073362 11.4472598,247.707977 C11.2693238,246.771368 10.6323132,246.002137 10.0707473,245.232906 C8.93907473,243.680912 7.9255516,241.798433 7.75188612,239.850427 C7.56825623,237.791311 8.6458363,236.239316 9.66434164,234.55057 C10.4721708,233.210826 11.0294662,231.719373 11.2977936,230.178063 C11.3753737,229.728632 11.4294662,229.261396 11.3198577,228.817664 C11.2109609,228.374644 10.910605,227.953704 10.4757295,227.816239 C10.2337367,227.740028 9.97323843,227.754986 9.72412811,227.80057 C7.99032028,228.114672 6.54690391,229.711538 5.70562278,231.14886 C4.62661922,232.990028 3.35117438,234.7151 1.90633452,236.284188 C1.47572954,236.752137 1.02021352,237.22151 0.741921708,237.787037" id="Fill-117" fill="#273A50"></path>
                    <path d="M36.0434164,246.4349 C35.944484,247.109402 35.8903915,247.90641 36.4,248.357977 C36.7708185,248.687037 37.313879,248.70698 37.8092527,248.714103 C40.4768683,248.750427 43.1430605,248.899288 45.7978648,249.159259 C47.1202847,249.289601 47.9786477,249.209117 49.2398577,248.759687 C49.8434164,248.543875 50.4626335,248.147151 50.6042705,247.521083 C50.7551601,246.851567 50.2790036,246.171368 49.6768683,245.841595 C49.0754448,245.511823 48.3708185,245.443447 47.6925267,245.340171 C46.2647687,245.122222 44.1864769,245.049573 43.2569395,243.804558 C42.4298932,242.695584 42.4903915,241.112963 42.4967972,239.801709 C42.5010676,238.861538 42.6007117,237.920655 42.5359431,236.982621 C42.4711744,236.045299 42.2256228,235.085897 41.6241993,234.364387 C41.0234875,233.641453 40.0120996,233.211254 39.1145907,233.489031 C38.4049822,233.709829 37.8740214,234.326638 37.5793594,235.008974 C37.2839858,235.691311 37.1907473,236.441311 37.1010676,237.179202 C36.7295374,240.232621 36.1266904,243.357265 36.0434164,246.4349" id="Fill-119" fill="#273A50"></path>
                    <path d="M64.5083274,124.811182 C63.9147331,125.400214 63.2755872,125.943661 62.612242,126.487108 C61.4471174,127.441524 60.6015658,126.960755 59.2350178,126.6901 C59.0136655,126.64594 58.7851957,126.601781 58.5645552,126.648789 C58.3432028,126.695798 58.1311032,126.858903 58.098363,127.081838 C58.0421352,127.470726 59.4485409,128.405199 59.7154448,128.757051 C60.2279004,129.43084 60.6378648,130.24067 60.6727402,131.101781 C60.7175801,132.185826 60.4755872,133.398789 60.4314591,134.49708 C60.4051246,135.148077 60.3695374,135.799786 60.3730961,136.451496 C60.3795018,137.625997 60.4720285,139.013462 61.320427,139.91802 C62.615089,141.298362 63.8990747,139.685114 64.0279004,138.40235 C64.0962278,137.722863 64.0186477,137.03839 63.9631317,136.358191 C63.7375089,133.578276 64.070605,131.051923 65.2784342,128.532692 C66.1802135,126.65235 67.4933808,125.252778 67.7239858,123.073291 C67.7488968,122.840385 67.759573,122.591097 67.6435587,122.388105 C67.4186477,121.992094 66.8101068,121.984972 66.4442705,122.255627 C65.6876868,122.814744 65.2214947,124.102493 64.5083274,124.811182" id="Fill-121" fill="#72869C"></path>
                    <path d="M40.6520285,148.354416 C40.2377936,146.130057 39.5844128,143.749003 40.5111032,141.6849 C41.2897509,139.949145 43.1872598,138.798148 45.0869039,138.858689 C46.9872598,138.919231 48.7879715,140.159972 49.5680427,141.895726 C50.1466904,143.182051 50.2086121,144.854416 49.5936655,146.145726 C48.9595018,147.476211 47.7609253,148.123647 47.3901068,149.701282 C47.1260498,150.828775 47.1274733,151.997578 47.025694,153.150712 C46.9474021,154.04245 46.7879715,154.975499 46.2264057,155.67208 C45.4883274,156.590171 44.1723132,156.897151 43.0185765,156.66567 C42.1651957,156.494729 40.2876157,155.743305 39.8719573,154.9 C39.4797865,154.105128 40.3915302,153.340171 40.6320996,152.597293 C41.0648399,151.26396 40.903274,149.704843 40.6520285,148.354416" id="Fill-123" fill="#72869C"></path>
                    <path d="M64.9917438,132.993661 L59.5056228,132.993661 C59.5291103,133.493661 59.5469039,133.993661 59.5618505,134.492949 C59.6173665,136.353348 59.6735943,138.213034 59.7291103,140.072721 C59.8116726,142.827707 59.707758,145.175997 58.277153,147.579843 C56.5824911,150.429558 53.3625623,154.017165 49.8714591,154.475142 C48.6074021,154.641809 47.338363,154.322721 46.0842705,154.094088 C43.1098932,153.550641 37.4152313,152.705199 34.9127402,154.985826 C33.7696797,156.027137 33.4942349,157.688105 33.2088256,159.208761 C32.4536655,163.234402 31.1682562,167.16104 29.3953025,170.852635 C28.6294662,172.448789 27.7568683,174.054202 27.6038434,175.818447 C27.4152313,178.003632 28.4287544,180.166026 29.993879,181.653917 C31.7760854,183.34765 33.7148754,182.794943 35.9170107,183.282123 C38.41879,183.836254 41.3205694,185.094801 43.8472598,185.247934 C46.5056228,185.408903 46.2458363,182.036396 46.563274,180.111182 C47.1191459,176.742949 47.6807117,173.351211 48.8472598,170.142521 C50.0130961,166.93312 51.8330249,163.88255 54.5148754,161.771439 C56.8807117,159.908903 59.8372954,158.852635 62.0130961,156.738675 C62.6472598,156.123291 63.2059786,155.429558 63.6885409,154.680983 C64.8757295,152.841952 65.6045552,150.675997 65.8636299,148.541382 C65.9760854,147.611895 65.9234164,146.672436 65.8707473,145.737963 C65.6358719,141.56916 65.0764413,137.228704 64.9917438,132.993661" id="Fill-125" fill="#B0C4DA"></path>
                    <path d="M16.9782206,207.064316 C16.4451246,208.585684 15.8807117,210.09708 15.2394306,211.59067 C11.9397865,219.277279 7.02234875,225.857764 2.74975089,233.029416 C3.12412811,233.345655 10.1810676,237.969587 9.87074733,238.417593 C19.4885409,228.289387 27.704911,212.409758 33.2301779,196.560043 C35.0408541,191.364886 37.132669,186.271581 38.7184342,181.023006 C38.8308897,180.651923 38.9362278,180.262322 38.8700356,179.880556 C38.7711032,179.305057 38.3120285,178.868447 37.8671886,178.490954 C35.1981495,176.219587 32.1170107,174.433974 28.8202135,173.248077 C28.7903203,172.773006 28.882847,172.292236 29.0849822,171.861325 C28.88,171.622009 28.5113167,171.911182 28.34121,172.176852 C25.5319573,176.55933 24.6074021,182.505199 23.3469039,187.551496 C22.8437011,189.618447 22.5027758,191.765883 21.7426335,193.723148 C20.9191459,195.843519 20.0885409,197.968162 19.3333808,200.117735 C18.5191459,202.436823 17.7853381,204.76161 16.9782206,207.064316" id="Fill-127" fill="#72869C"></path>
                    <path d="M48.8054804,142.691168 C48.9485409,141.308689 49.4125979,140.030199 49.3834164,138.543732 C49.3777224,138.226068 49.3300356,137.911966 49.2218505,137.601425 C48.542847,135.647009 46.7891103,136.867806 45.4140214,136.432621 C44.9264769,136.278063 44.4830605,136.008832 43.9990747,135.845014 C43.195516,135.57151 42.1777224,135.614245 41.4382206,136.060114 C40.60121,136.564387 40.6474733,137.731054 39.8894662,138.354986 C38.9172242,139.154843 38.0553025,139.319373 37.6069039,140.696866 C37.3670463,141.431197 37.6745196,143.233191 37.1962278,143.761681 C36.7570819,144.247436 35.1862633,144.011681 34.5115302,144.200427 C32.60121,144.73604 30.9008541,146.155556 30.2211388,148.046581 C30.2311032,148.018091 27.573452,148.24886 27.3136655,148.313675 C26.2382206,148.582194 25.2083274,149.034473 24.2795018,149.639886 C22.370605,150.883476 20.8851957,152.728205 20.395516,154.971795 C20.0154448,156.715385 20.1307473,158.539459 20.4987189,160.285897 C20.684484,161.171937 20.937153,162.04943 21.3222064,162.868519 C22.651032,165.696866 25.5186477,167.619231 28.5720285,168.278063 C31.6254093,168.936182 34.8367972,168.446154 37.7819929,167.406268 C41.573452,166.067949 45.1485409,163.701852 47.1464057,160.210399 C48.6225623,157.630627 49.0951601,154.377066 48.1770107,151.525214 C47.9542349,150.833618 47.5022776,150.235328 47.2709609,149.567236 C46.9528114,148.647009 47.0325267,148.767379 47.6168683,147.976781 C48.4802135,146.808689 48.9720285,145.640598 48.8026335,144.151282 C48.7449822,143.64416 48.7570819,143.161254 48.8054804,142.691168" id="Fill-129" fill="#273A50"></path>
                    <path d="M34.5775089,212.383191 C34.907758,217.323362 35.0821352,222.272792 35.1782206,227.222222 C35.2707473,231.991453 34.8066904,237.048433 35.2935231,241.793447 C35.3084698,241.951567 43.6920996,241.811966 44.0479715,241.422365 C44.4237722,241.010684 44.1796441,238.992165 44.1988612,238.478632 C44.285694,236.176638 44.3597153,233.874644 44.4387189,231.57265 C44.532669,228.839031 44.6735943,226.106838 44.8437011,223.376781 C45.0074021,220.762108 45.8956584,218.747863 46.4842705,216.213675 C47.713452,210.923789 47.532669,205.42094 47.1582918,200.041311 C46.6785765,193.153134 46.3376512,186.581197 47.2323132,179.720798 C46.3234164,179.490028 45.0750178,178.554131 44.0664769,178.098291 C42.0287544,177.178775 39.9810676,176.275641 37.966121,175.30698 C36.3141637,174.512821 34.6579359,173.727208 32.9760854,172.997863 C31.877153,172.521368 29.7148754,170.996439 28.6017082,171.938034 C28.1234164,172.343305 27.8814235,172.957265 27.6835587,173.551282 C26.7554448,176.344729 26.4017082,179.39886 27.1682562,182.240741 C28.0486833,185.505698 30.2629181,188.187322 31.3597153,191.363248 C32.6230605,195.02208 32.3775089,199.062678 33.1113167,202.843305 C33.7255516,206.004274 34.3618505,209.163818 34.5775089,212.383191" id="Fill-131" fill="#72869C"></path>
                    <path d="M172.682918,98.9538462 C172.908541,99.5621083 173.074377,100.381909 172.536299,100.743732 C172.354804,100.866239 172.129893,100.899715 171.912811,100.930342 C171.452313,100.995869 170.991815,101.060684 170.531317,101.126211 C170.215302,101.17037 169.894306,101.215242 169.579715,101.165385 C169.325623,101.125499 169.085765,101.025783 168.836655,100.963105 C167.554804,100.643305 166.270107,101.341311 164.991815,101.675356 C163.235231,102.134758 160.709964,101.882621 159.138434,100.886895 C157.450178,99.8163818 158.604626,97.8947293 160.267972,97.6653846 C161.816726,97.4524217 163.463701,97.7907407 164.910676,97.1967236 C165.313523,97.0314815 165.711388,96.7693732 165.863701,96.3612536 C166.046619,95.8726496 165.827402,95.3334758 165.611744,94.8584046 C165.285053,94.1383191 164.959075,93.4189459 164.632384,92.6995726 C164.474377,92.3505698 164.191815,92.0713675 163.936299,91.7950142 C165.10427,91.8384615 166.351246,91.4951567 167.518505,91.2729345 C168.522776,91.0820513 169.391815,90.5507123 169.941993,91.584188 C171.134875,93.8263533 171.796085,96.569943 172.682918,98.9538462" id="Fill-133" fill="#B0C4DA"></path>
                    <path d="M163.647829,17.7547721 C164.404413,20.4691595 165.094804,23.0966524 167.148185,25.1165954 C168.76242,26.7042023 170.383772,27.6244302 172.582349,28.4349715 C176.756014,29.9741453 179.833594,29.0902422 182.631459,25.450641 C183.131103,24.7996439 183.463488,24.0104701 184.370249,23.5759972 C185.277722,23.1415242 186.515445,23.2070513 187.414377,23.9100427 C188.311886,24.6130342 188.839288,25.6073362 189.079858,26.7184473 C189.161708,27.0930912 189.220071,27.4741453 189.151032,27.8409544 C188.872028,29.3381054 187.921851,30.2953704 186.843559,31.3153134 C185.764555,32.3352564 184.624342,33.4200142 183.274164,34.0638889 C180.557438,35.3608974 177.860641,36.3381054 174.816512,35.8623219 C169.306904,35.0019231 164.407972,32.2191595 161.443559,27.4342593 C160.178078,25.3915242 159.998719,22.9007835 159.539644,20.5795584 C159.275587,19.2476496 159.225765,17.8366809 159.038577,16.4933761 C160.548897,17.0617521 162.070605,17.4663105 163.647829,17.7547721" id="Fill-135" fill="#72869C"></path>
                    <path d="M190.648185,58.6939459 C186.149964,58.3385328 182.811174,56.8527778 178.806192,54.7438034 C178.771317,54.6839744 177.321495,54.0728632 177.285907,54.0130342 C177.288043,53.7722934 178.152811,54.3257123 178.148541,54.0856838 C178.093025,51.0885328 177.110819,47.2979345 176.949964,44.305057 C176.7521,40.6227208 176.548541,36.9197293 176.907972,33.2395299 C177.072384,31.5543447 177.263843,30.2352564 178.247473,28.8257123 C179.091601,27.6155983 180.184128,26.5856838 181.395516,25.7495014 C183.685196,24.1683048 186.295872,22.7103276 189.080925,23.6497863 C191.557794,24.4859687 193.49516,26.5208689 194.657438,28.816453 C196.058861,31.5842593 196.505125,34.7217236 196.932883,37.7943732 C197.351388,40.8029202 197.770605,43.8114672 198.18911,46.8200142 C198.360641,48.0536325 198.31153,49.2388177 198.482349,50.4617521 C198.685907,51.9197293 199.236797,53.5201567 199.236797,54.9859687 C199.321495,55.4631766 199.216868,57.6519231 199.20121,58.6939459 C196.145694,58.5728632 193.701566,58.9346866 190.648185,58.6939459" id="Fill-137" fill="#72869C"></path>
                    <path d="M155.27089,59.4509972 C156.867331,58.1967236 159.280854,57.3128205 160.982633,56.6682336 C164.929253,55.1746439 169.13637,54.3762108 173.367687,53.9638177 C180.845267,53.2358974 188.019644,54.1176638 195.392598,55.274359 C195.735658,55.3277778 196.08726,55.3854701 196.386904,55.5606838 C197.040285,55.9431624 197.272313,56.7807692 197.28726,57.5378917 C197.317153,58.9509972 196.811103,60.3135328 196.312171,61.6354701 C195.833879,62.9039886 195.653808,64.8377493 194.782633,65.8562678 C194.043843,66.7052707 192.838149,67.3099715 191.733523,67.6717949 C189.52427,68.3954416 187.171957,68.7821937 184.882278,68.9331909 C182.051673,69.1198006 179.345623,68.837037 176.567687,68.6839031 C173.252384,68.5022792 169.75274,69.0542735 166.427473,69.1710826 C168.144199,77.1361823 170.190463,85.0457265 171.737082,93.0279202 C169.69153,93.6760684 167.577651,94.0827635 165.472313,94.5549858 C164.998292,94.6618234 164.521423,94.797151 164.043843,94.9410256 C163.959858,94.811396 163.882989,94.6767806 163.807544,94.5428775 C161.282989,89.9980057 158.488683,85.7294872 156.539929,80.8740741 C154.764128,76.4467236 152.972669,71.7423077 152.890107,66.9103989 C152.855231,64.8904558 153.028897,61.8619658 154.431744,60.2380342 C154.671601,59.9609687 154.955587,59.6988604 155.27089,59.4509972" id="Fill-139" fill="#54687E"></path>
                    <path d="M187.109609,19.8407407 C186.916726,19.0095442 186.725267,18.1783476 186.532384,17.3478632 C186.247687,16.1156695 185.960854,14.8770655 185.474021,13.7103989 C184.987189,12.5437322 184.286121,11.4411681 183.296797,10.6555556 C182.841281,10.2937322 182.320285,9.99957265 181.751601,9.88347578 C181.297509,9.79088319 180.829181,9.81367521 180.36726,9.8542735 C179.472598,9.93190883 178.566548,10.0793447 177.732384,10.4276353 C174.979359,11.5793447 175.67758,16.0180912 176.469751,18.1235043 C176.883986,19.2267806 177.460498,20.4290598 178.573665,20.8150997 C178.940214,20.9425926 179.342349,20.9682336 179.690391,21.139886 C180.629893,21.6014245 181.153025,22.841453 181.421352,23.7809117 C181.621352,24.4796296 181.733808,25.1990028 181.805694,25.9219373 C181.837722,26.2481481 181.65694,26.9960114 181.945907,27.2182336 C182.251246,27.4518519 183.276157,27.1954416 183.617794,27.119943 C184.752313,26.869943 185.8,26.3008547 186.753025,25.6505698 C187.195018,25.3485755 187.634875,25.0159544 187.913167,24.5586895 C188.385765,23.7816239 188.022776,23.3457265 187.758007,22.6434473 C187.429893,21.7745014 187.319573,20.7474359 187.109609,19.8407407" id="Fill-141" fill="#273A50"></path>
                    <path d="M174.294093,127.751994 C174.0279,128.521937 173.709039,129.244872 173.358149,129.849573 C172.830747,130.757692 172.165267,131.604558 171.863488,132.609544 C171.560996,133.61453 171.738932,134.871652 172.616512,135.446439 C173.339644,135.920085 174.28484,135.794729 175.137509,135.652991 C176.044982,135.50057 177.002278,135.326781 177.698363,134.724929 C178.276299,134.226353 178.596584,133.496296 178.848541,132.776923 C179.242135,131.652991 179.514733,130.487037 179.659217,129.304701 C179.733238,128.705698 179.779502,128.082479 180.067758,127.552564 C180.620071,126.536182 181.946762,126.06396 182.339644,124.976353 C182.592313,124.277635 182.388043,123.506268 182.203701,122.786182 C181.794448,121.187179 181.491957,119.560399 181.298363,117.920798 C181.215089,117.210684 181.446406,114.235613 180.92968,113.822507 C179.711174,112.846011 174.82363,115.689316 173.533238,116.125926 C173.787331,116.039744 175.093381,122.786182 175.094093,123.467094 C175.096228,124.751994 174.784484,126.331054 174.294093,127.751994" id="Fill-143" fill="#B0C4DA"></path>
                    <path d="M186.656441,14.8571225 C186.66,14.7972934 186.663559,14.7367521 186.666406,14.6776353 C186.748256,13.1149573 186.868541,11.3998575 185.840783,10.105698 C184.926192,8.95327635 183.648612,8.73532764 181.866406,8.60498575 C179.812313,8.4539886 177.188826,7.85641026 175.172456,8.42834758 C174.294164,8.67763533 173.469964,9.41481481 173.467826,10.3286325 C173.465694,11.3058405 174.393096,12.062963 175.342562,12.2944444 C177.004484,12.6997151 179.505552,11.6327635 180.212313,13.9034188 C180.623701,15.2267806 180.728327,16.4639601 182.225125,17.0394587 C183.132598,17.3877493 184.161068,17.310114 185.082776,17.0009972 C185.544698,16.8457265 186.008754,16.6185185 186.289893,16.2203704 C186.565338,15.830057 186.626548,15.3378917 186.656441,14.8571225" id="Fill-145" fill="#B0C4DA"></path>
                    <path d="M199.432384,58.0567664 C199.450178,57.1821225 199.404626,56.2868234 199.2879,55.3680199 C196.124199,55.2099003 192.966904,54.9214387 189.82669,54.5040598 C190.011744,54.5282764 189.381851,55.7191595 189.280783,55.8267094 C188.894306,56.2376781 188.371174,56.376567 187.860854,56.6037749 C186.545552,57.1906695 185.252313,57.8665954 184.069395,58.6942308 C181.030249,60.8195869 179.432384,62.9171652 177.327758,66.0147436 C175.251601,69.0702991 174.370463,72.5382479 172.877224,75.8096154 C171.14484,79.6066239 170.121352,83.390812 169.911388,87.5816952 C169.897865,87.8594729 169.886477,88.1372507 169.879359,88.4157407 C169.747687,92.7903846 170.290036,97.1628917 170.830961,101.51047 L173.290036,121.25406 C176.33274,121.046795 179.307117,120.26688 182.306406,119.665028 C182.3121,119.61161 182.321352,119.556766 182.325623,119.503348 C183.16121,108.086681 182.961922,96.4812678 185.832384,85.4000712 C187.213167,80.0653134 191.212456,76.1080484 194.230961,71.680698 C197.121352,67.442094 199.330605,63.0930912 199.432384,58.0567664" id="Fill-147" fill="#54687E"></path>
                    <path d="M180.478078,16.4909544 L180.496584,16.0244302 C180.509395,15.6896724 180.673096,15.3114672 180.994093,15.1569088 C181.921495,14.7096154 183.322206,14.8876781 183.731459,15.9802707 C184.24605,17.3527778 182.550676,17.9745726 181.48306,17.8812678 C180.961352,17.8356838 180.453167,17.4517806 180.47879,16.8762821 C180.480925,16.8235755 180.490178,16.7708689 180.500854,16.7174501 C180.484484,16.6448006 180.475231,16.5700142 180.478078,16.4909544" id="Fill-149" fill="#273A50"></path>
                    <polygon id="Fill-151" fill="#72869C" points="178.415089 15.8110399 169.655658 17.1393875 169.655658 13.155057 178.415089 14.4826923"></polygon>
                    <path d="M78.880427,0.570726496 L78.880427,0.578561254 C78.9330961,0.579985755 78.9857651,0.580698006 79.0377224,0.582122507 L78.880427,0.570726496 Z" id="Fill-153" fill="#0C7B7D"></path>
                    <path d="M82.3324555,28.604416 L78.8804982,29.0075499 C80.1288968,28.9833333 81.2719573,28.8380342 82.3324555,28.604416" id="Fill-155" fill="#0C7B7D"></path>
                    <path d="M82.3324555,28.604416 L170.37516,18.3173789 C171.896157,18.1393162 173.042064,16.8508547 173.042064,15.3188034 C173.042064,13.8009972 171.916797,12.5196581 170.412883,12.3252137 L80.6491815,0.700569801 C88.422847,1.62934473 91.6207117,8.53034188 91.6207117,15.7411681 C91.6207117,22.3672365 88.592242,27.2262108 82.3324555,28.604416" id="Fill-157" fill="#B0C4DA"></path>
                    <path d="M91.6209253,14.7893162 C91.6209253,22.0507123 85.738363,27.9367521 78.482847,27.9367521 C71.2259075,27.9367521 65.3440569,22.0507123 65.3440569,14.7893162 C65.3440569,7.52792023 71.2259075,1.64116809 78.482847,1.64116809 C85.738363,1.64116809 91.6209253,7.52792023 91.6209253,14.7893162" id="Fill-159" fill="#F5F7FB"></path>
                    <path d="M91.6209253,14.7893162 C91.6209253,22.0507123 85.738363,27.9367521 78.482847,27.9367521 C71.2259075,27.9367521 65.3440569,22.0507123 65.3440569,14.7893162 C65.3440569,7.52792023 71.2259075,1.64116809 78.482847,1.64116809 C85.738363,1.64116809 91.6209253,7.52792023 91.6209253,14.7893162 Z" id="Stroke-161" stroke="#54687E" stroke-width="5"></path>
                    <path d="M79.046548,22.325641 C77.2387189,22.325641 75.4394306,21.7166667 73.9155872,20.5571225 C71.8928114,19.0179487 70.685694,16.7451567 70.6038434,14.3206553 C70.5454804,12.589886 71.0579359,10.8349003 72.0259075,9.38903134 C72.28,9.01011396 72.8038434,8.92962963 73.1540214,9.22236467 L73.1974377,9.25797721 C73.5020641,9.51296296 73.5518861,9.9531339 73.3312456,10.2843305 C72.5504626,11.4531339 72.1376512,12.8698006 72.1846263,14.2672365 C72.2508185,16.2138177 73.2308897,18.047151 74.8728826,19.297151 C76.3497509,20.4196581 78.135516,20.9125356 79.8643416,20.6903134 C80.2565125,20.6397436 80.6266192,20.8797721 80.7191459,21.2643875 L80.732669,21.3206553 C80.8401423,21.7650997 80.5340925,22.1995726 80.0814235,22.2586895 C79.7369395,22.3035613 79.3917438,22.325641 79.046548,22.325641" id="Fill-163" fill="#FFFFFF"></path>
                </g>
                <g id="Group-178" transform="translate(120.000000, 11.000000)">
                    <g id="Group-168">
                        <mask id="mask-12" fill="white">
                            <use xlink:href="#path-11"></use>
                        </mask>
                        <g id="Clip-167"></g>
                        <path d="M13.0462546,27.8439897 L13.0462546,27.0406051 C20.1071008,27.0406051 25.8516392,21.2754769 25.8516392,14.1893231 C25.8516392,7.10316923 20.1071008,1.33804103 13.0462546,1.33804103 L13.0462546,0.53465641 C20.5492085,0.53465641 26.6521546,6.66019487 26.6521546,14.1893231 C26.6521546,21.7184513 20.5492085,27.8439897 13.0462546,27.8439897" id="Fill-166" fill="#72869C" mask="url(#mask-12)"></path>
                    </g>
                    <g id="Group-171">
                        <mask id="mask-14" fill="white">
                            <use xlink:href="#path-13"></use>
                        </mask>
                        <g id="Clip-170"></g>
                        <path d="M33.4549615,25.4346256 L33.4549615,24.631241 C39.1923462,24.631241 43.8595154,19.9473436 43.8595154,14.1893949 C43.8595154,8.43144615 39.1923462,3.74754872 33.4549615,3.74754872 L33.4549615,2.9441641 C39.6337385,2.9441641 44.6600308,7.98918974 44.6600308,14.1893949 C44.6600308,20.3903179 39.6337385,25.4346256 33.4549615,25.4346256" id="Fill-169" fill="#72869C" mask="url(#mask-14)"></path>
                    </g>
                    <g id="Group-174">
                        <mask id="mask-16" fill="white">
                            <use xlink:href="#path-15"></use>
                        </mask>
                        <g id="Clip-173"></g>
                        <path d="M70.2714438,20.6151077 L70.2714438,19.8117231 C73.3597592,19.8117231 75.8736208,17.2895692 75.8736208,14.1894667 C75.8736208,11.0886462 73.3597592,8.56721026 70.2714438,8.56721026 L70.2714438,7.76382564 C73.8018669,7.76382564 76.6741362,10.6463897 76.6741362,14.1894667 C76.6741362,17.7325436 73.8018669,20.6151077 70.2714438,20.6151077" id="Fill-172" fill="#72869C" mask="url(#mask-16)"></path>
                    </g>
                    <g id="Group-177">
                        <mask id="mask-18" fill="white">
                            <use xlink:href="#path-17"></use>
                        </mask>
                        <g id="Clip-176"></g>
                        <path d="M53.0637969,23.0248308 L53.0637969,22.2214462 C57.4770046,22.2214462 61.06752,18.6187795 61.06752,14.1890359 C61.06752,9.76001026 57.4770046,6.15734359 53.0637969,6.15734359 L53.0637969,5.35395897 C57.9183969,5.35395897 61.8680354,9.31775385 61.8680354,14.1890359 C61.8680354,19.0610359 57.9183969,23.0248308 53.0637969,23.0248308" id="Fill-175" fill="#72869C" mask="url(#mask-18)"></path>
                    </g>
                </g>
                <g id="Group-183" transform="translate(186.000000, 22.000000)">
                    <path d="M8.18719355,11.78155 C7.99487097,11.2714591 7.72874194,10.77405 7.54493548,10.4062773 C7.32422581,9.96664091 7.06874194,9.51925455 7.05809677,9.02748182 C7.04319355,8.31095909 7.1233871,7.67264091 6.98783871,6.95823182 C6.87996774,6.39107273 6.75080645,5.82673182 6.60035484,5.26943636 C6.545,5.06370909 5.95667742,2.84932273 5.51170968,3.27627727 C5.44854839,3.33757273 5.423,3.42705 5.40951613,3.51300455 C5.28603226,4.26616364 5.37474194,5.01932273 5.29667742,5.7753 C5.28106452,5.92466364 5.17603226,6.12475455 5.03835484,6.06064091 C4.75590323,5.92959545 4.50609677,4.78964091 4.37551613,4.49795909 C3.97951613,3.60952727 3.54874194,2.73448182 3.13570968,1.8538 C2.86106452,1.26832273 2.42319355,0.584913636 1.77667742,0.650436364 C1.42893548,0.685663636 1.13867742,0.950572727 0.980419355,1.26057273 C0.821451613,1.56986818 0.771064516,1.92073182 0.722096774,2.26525455 C0.633387097,2.89652727 0.545387097,3.5278 0.456677419,4.15907273 C0.403451613,4.54023182 0.350225806,4.92561818 0.392096774,5.30818636 C0.428290323,5.64989091 0.541129032,5.97820909 0.652548387,6.30370909 C1.05422581,7.47818636 1.3246129,8.74989091 2.09319355,9.73695909 C2.84545161,10.7007773 4.00080645,11.4976182 4.6026129,12.5600727 C4.93545161,13.0476182 5.1086129,13.6140727 5.51241935,14.0868227 C5.79345161,14.4151409 6.16603226,14.7258455 6.59964516,14.7124591 C7.33487097,14.6892091 8.17654839,13.9593 8.37951613,13.2688455 C8.50512903,12.8433 8.38448387,12.3057318 8.18719355,11.78155" id="Fill-179" fill="#273A50"></path>
                    <path d="M34.847929,29.2355364 C28.709929,30.8616273 23.6116065,30.7334 17.3082516,28.6937409 C9.68986452,26.2292409 7.18399355,20.3610818 4.24876774,13.3198545 C5.69509032,12.2834682 7.17192903,11.3421955 8.6501871,10.3459682 C13.2524452,18.2763318 15.9619935,21.7786273 25.4177355,22.2922409 C27.7575419,22.4190591 28.7865742,22.1788091 30.6587032,21.3129227 C33.0638,20.20115 34.3802516,17.9001045 36.2935419,16.1042182 C36.7832194,15.6448545 37.5617355,15.1256045 38.2125097,14.7381045 C38.6141871,14.4992636 39.0222516,14.1906727 39.5623161,14.2005364 C40.101671,14.2104 40.6509613,14.5098318 41.0859935,14.8515364 C41.865929,15.4644909 42.6948323,16.1880591 43.1852194,17.0187182 C43.6756065,17.8493773 43.7955419,18.6645364 43.5698645,19.5600136 C42.8381871,22.4578091 41.1335419,24.6369682 38.9832194,26.6435136 C38.3863806,27.1994 37.8541226,27.5439227 37.1338,27.9758091 C36.4134774,28.4091045 35.7548968,28.9952864 34.847929,29.2355364" id="Fill-181" fill="#72869C"></path>
                </g>
            </g>
        </g>
    </g>
</svg>