<?xml version="1.0" encoding="utf-8"?>
<!-- Generator: Adobe Illustrator 21.1.0, SVG Export Plug-In . SVG Version: 6.00 Build 0)  -->
<svg version="1.1" id="Layer_1" xmlns="http://www.w3.org/2000/svg" xmlns:xlink="http://www.w3.org/1999/xlink" x="0px" y="0px"
	 viewBox="0 0 150 38" style="enable-background:new 0 0 150 38;" xml:space="preserve">
<style type="text/css">
	.st0{fill:#F04946;}
	.st1{fill:#283A50;}
	.st2{fill:#FFFFFF;}
</style>
<g>
	<g>
		<rect x="0.2" y="0.2" class="st0" width="45.6" height="10.3"/>
		<rect x="45.8" y="10.5" class="st1" width="104.2" height="27"/>
		<g>
			<path class="st2" d="M55.4,17.3h6c1.7,0,3,0.5,3.9,1.3c0.7,0.7,1.1,1.7,1.1,2.9v0c0,2.2-1.3,3.5-3.2,4.1l3.6,5.1H64l-3.3-4.7h-3
				v4.7h-2.4V17.3z M61.2,24c1.7,0,2.8-0.9,2.8-2.3v0c0-1.4-1-2.2-2.8-2.2h-3.5V24H61.2z"/>
			<path class="st2" d="M70.8,17.3h10v2.1h-7.6v3.5h6.8V25h-6.8v3.6h7.7v2.1H70.8V17.3z"/>
			<path class="st2" d="M84.2,17.3h2.6l4.1,10.4l4-10.4h2.6l-5.6,13.6h-2.1L84.2,17.3z"/>
			<path class="st2" d="M101,17.3h10v2.1h-7.6v3.5h6.8V25h-6.8v3.6h7.7v2.1H101V17.3z"/>
			<path class="st2" d="M127.5,24.1L127.5,24.1c0-3.8,2.9-7,7.1-7c4.1,0,7,3.1,7,6.9v0c0,3.8-2.9,7-7.1,7
				C130.4,31,127.5,27.9,127.5,24.1z M139.1,24.1L139.1,24.1c0-2.7-1.9-4.8-4.6-4.8c-2.7,0-4.6,2.1-4.6,4.8v0c0,2.6,1.9,4.8,4.6,4.8
				C137.3,28.8,139.1,26.7,139.1,24.1z"/>
			<g>
				<rect x="115.5" y="17.3" class="st2" width="2.4" height="11.3"/>
				<rect x="117.9" y="28.6" class="st2" width="7.1" height="2.2"/>
			</g>
		</g>
	</g>
</g>
</svg>
