<svg xmlns="http://www.w3.org/2000/svg"><defs><font id="Antenna-MediumItalic" horiz-adv-x="590"><font-face font-family="Antenna MediumItalic" font-weight="500" font-style="italic" panose-1="2 0 6 3 0 0 0 2 0 4" ascent="800" descent="-200" x-height="560" cap-height="741" bbox="-144 -238 1552 956" underline-thickness="50" underline-position="-200" slope="-12" unicode-range="U+0020-FB02"/><glyph glyph-name="fi" unicode="fi" horiz-adv-x="648" d="M46 454l22 106h105l13 58q19 91 67.5 131T405 789q49 0 58-1l-20-101h-36q-53 0-75.5-20T300 605l-10-45h125l-21-106H268L136-165H19l132 619H46zM379 0l118 560h117L495 0H379zm132 621l26 128h117l-26-128H511z"/><glyph glyph-name="fl" unicode="fl" horiz-adv-x="699" d="M46 454l22 106h105l13 58q19 91 67.5 131T405 789q46 0 58-1l-20-101h-36q-53 0-75.5-20T300 605l-10-45h125l-21-106H268L136-165H19l132 619H46zM518-1q-78 0-100.5 40T414 171l130 605h116L530 168q-9-37-.5-51t45.5-14h22L576 1q-22-2-58-2z"/><glyph glyph-name="f_f_l" unicode="ffl" horiz-adv-x="1023" d="M343-165l132 619H268L136-165H19l132 619H46l22 106h105l13 58q19 91 67.5 131T405 789q46 0 58-1l-20-101h-36q-53 0-75.5-20T300 605l-10-45h207l13 58q19 91 67.5 131T729 789q46 0 58-1l-21-101h-35q-53 0-75.5-20T623 605l-10-45h126l-22-106H591L460-165H343zM841-1q-77 0-99.5 40T737 171l130 605h116L853 168q-9-37-.5-51t45.5-14h22L899 1q-20-2-58-2z"/><glyph glyph-name="f_f_i" unicode="ffi" horiz-adv-x="972" d="M343-165l132 619H268L136-165H19l132 619H46l22 106h105l13 58q19 91 67.5 131T405 789q46 0 58-1l-20-101h-36q-53 0-75.5-20T300 605l-10-45h207l13 58q19 91 67.5 131T729 789q46 0 58-1l-21-101h-35q-53 0-75.5-20T623 605l-10-45h126l-22-106H591L460-165H343zM702 0l119 560h116L818 0H702zm132 621l26 128h118l-27-128H834z"/><glyph glyph-name="f_j" unicode="fj" horiz-adv-x="648" d="M46 454l22 106h105l13 58q19 91 67.5 131T405 789q46 0 58-1l-20-101h-36q-53 0-75.5-20T300 605l-10-45h125l-21-106H268L136-165H19l132 619H46zm226-622l19 94h9q40 0 54 15t25 64l118 555h117L493-8q-21-99-56.5-129.5T316-168h-44zm239 789l26 128h117l-26-128H511z"/><glyph glyph-name="f_f" unicode="ff" horiz-adv-x="733" d="M343-165l132 619H268L136-165H19l132 619H46l22 106h105l13 58q19 91 67.5 131T405 789q46 0 58-1l-20-101h-36q-53 0-75.5-20T300 605l-10-45h207l13 58q19 91 67.5 131T729 789q56 0 69-1l-21-101h-46q-53 0-75.5-20T623 605l-10-45h136l-22-106H591L460-165H343z"/><glyph glyph-name=".notdef" horiz-adv-x="225"/><glyph glyph-name=".null" horiz-adv-x="0"/><glyph glyph-name="nonmarkingreturn" horiz-adv-x="333"/><glyph glyph-name="space" horiz-adv-x="225"/><glyph glyph-name="space" horiz-adv-x="225"/><glyph glyph-name="exclam" unicode="!" horiz-adv-x="380" d="M41 0l29 147h142L182 0H41zm64 220l100 521h128L209 220H105z"/><glyph glyph-name="quotedbl" unicode="&quot;" horiz-adv-x="528" d="M112 423l59 318h121l-75-318H112zm225 0l58 318h122l-76-318H337z"/><glyph glyph-name="numbersign" unicode="#" horiz-adv-x="748" d="M118 0l42 197H27l22 107h133l26 118H74l23 108h132l45 211h112l-45-211h129l45 211h112l-45-211h140l-22-108H561l-26-118h139l-22-107H514L471 0H359l43 197H273L230 0H118zm166 298h146l28 131H313z"/><glyph glyph-name="dollar" unicode="$" horiz-adv-x="655" d="M178-94l21 99Q69 22-13 94l67 84q99-80 243-80 156 0 156 128 0 42-31.5 62.5T310 331q-36 10-61 19t-53 24-45 33.5-28 46-11 62.5q0 110 67 165.5T355 741l14 68h108l-15-73q106-15 161-61l-68-90q-73 54-191 54-137 0-137-109 0-18 7.5-32.5t16-23.5 32.5-19 38-14.5 51-15.5 60.5-19.5 52-23.5 44.5-33 27-46 11-63q0-113-71-175T305 0l-20-94H178z"/><glyph glyph-name="percent" unicode="%" horiz-adv-x="1138" d="M249 272q-95 0-142.5 48T59 451q0 136 69.5 219T304 753q95 0 142-49.5T493 570q0-135-69.5-216.5T249 272zm8 93q60 0 95.5 57.5T388 565q0 92-90 92-62 0-97.5-57T165 456q0-91 92-91zM836-11q-96 0-143 47.5T646 168q0 135 69 218.5T891 470q95 0 142-49.5t47-133.5q0-135-69.5-216.5T836-11zm7 93q60 0 95.5 58T974 282q0 93-90 93-61 0-96.5-57T752 173q0-91 91-91zM238 0l562 741h109L347 0H238z"/><glyph glyph-name="ampersand" unicode="&amp;" horiz-adv-x="818" d="M272-10Q-1-10-1 167q0 111 57 172t152 95q-9 45-9 88 0 120 56.5 175.5T399 753q85 0 127-39t42-108q0-52-16.5-92t-49-68-67.5-46-85-36q33-73 78-126 29-36 57-61 79 83 147 260l93-32q-69-184-155-283 42-17 109-17h22L680 0h-14Q547 0 474 42q-87-52-202-52zm11 98q59 0 107 22-29 29-62 71-58 70-92 158-57-26-88.5-62.5T116 181q0-93 167-93zm28 442q0-36 9-75 142 45 142 138 0 58-67 58-84 0-84-121z"/><glyph glyph-name="quotesingle" unicode="'" horiz-adv-x="305" d="M112 423l59 319h121l-75-319H112z"/><glyph glyph-name="parenleft" unicode="(" horiz-adv-x="499" d="M199-188q-50 57-86 150.5T77 172q0 98 30.5 198.5t79 181 106 143.5T408 795l72-66q-116-87-200-239t-84-322q0-94 29.5-175.5T293-136z"/><glyph glyph-name="parenright" unicode=")" horiz-adv-x="499" d="M63-188l-72 65q116 87 199.5 239T274 438q0 94-29 175.5T178 742l94 53q51-58 86.5-151.5T394 434q0-191-102.5-366.5T63-188z"/><glyph glyph-name="asterisk" unicode="*" horiz-adv-x="592" d="M315 247l-90 20 47 171-168-63-29 91 175 45-141 114 63 71 128-127 27 177 90-19-48-174 170 66 29-91-176-47 142-112-62-71-130 126z"/><glyph glyph-name="plus" unicode="+" horiz-adv-x="709" d="M240 101l42 196H84l23 111h197l42 195h115l-41-195h197l-23-111H397l-41-196H240z"/><glyph glyph-name="comma" unicode="," horiz-adv-x="266" d="M-16-140l-17 61q46 19 62 34T52 0h-68l30 150h141L130 24Q115-52 86.5-82.5T-16-140z"/><glyph glyph-name="hyphen" unicode="-" horiz-adv-x="438" d="M23 264l23 110h347l-23-110H23z"/><glyph glyph-name="hyphen" unicode="­" horiz-adv-x="438" d="M23 264l23 110h347l-23-110H23z"/><glyph glyph-name="period" unicode="." horiz-adv-x="266" d="M-16 0l30 150h141L125 0H-16z"/><glyph glyph-name="slash" unicode="/" horiz-adv-x="534" d="M-81 0l572 741h125L43 0H-81z"/><glyph glyph-name="zero" unicode="0" horiz-adv-x="731" d="M318-11q-140 0-203.5 63T51 237q0 72 20 164 38 182 120 267t226 85q262 0 262-255 0-70-19-160-39-179-120.5-264T318-11zm8 107q90 0 137.5 62T540 353q18 80 18 137 0 73-34.5 112T408 641q-93 0-140.5-60.5T191 387q-18-79-18-143 0-74 35-111t118-37z"/><glyph glyph-name="one" unicode="1" horiz-adv-x="394" d="M89 0l135 630H90l23 111h248L203 0H89z"/><glyph glyph-name="two" unicode="2" horiz-adv-x="597" d="M-43 0l20 97 289 227q121 95 144 120 43 44 46 99 1 8 1 18 0 84-138 84-98 0-175-34l-38 98q102 44 227 44 243 0 243-168 0-37-4-65t-18-55.5-26.5-46-44-47-54.5-47-73-57.5L143 102h337L460 0H-43z"/><glyph glyph-name="three" unicode="3" horiz-adv-x="613" d="M256-12Q156-12 85.5 10T-47 75l73 89q108-73 232-73 157 0 157 158 0 51-32.5 74.5T269 347H165l20 104h135q74 0 108 26t34 94q0 39-31.5 58T325 648q-102 0-181-39l-48 93q95 51 249 51 238 0 238-155 0-169-123-200 33-13 51.5-52t18.5-95q0-263-274-263z"/><glyph glyph-name="four" unicode="4" horiz-adv-x="664" d="M1 167l19 93 432 481h133L157 267h224l72 226h83l-48-226h122l-20-100H466L431 0H323l35 167H1z"/><glyph glyph-name="five" unicode="5" horiz-adv-x="634" d="M274-11Q97-11-13 75l69 89q97-73 229-73 170 0 170 178 0 120-153 120-64 0-132-31l-92 30 95 353h446l-22-105H259l-48-170q58 24 134 24 111 0 171-44.5T576 285q0-86-23-146t-66.5-91.5-94.5-45T274-11z"/><glyph glyph-name="six" unicode="6" horiz-adv-x="689" d="M318-11Q40-11 40 228q0 50 14 117 49 229 149.5 312.5T526 741h89l-22-105h-72q-85 0-144-13.5t-94-41-53.5-57T196 449q56 53 197 53 227 0 227-190 0-151-77.5-237T318-11zm3 101q182 0 182 198 0 114-157 114-188 0-188-183 0-129 163-129z"/><glyph glyph-name="seven" unicode="7" horiz-adv-x="541" d="M34 0l413 636H74l22 105h504l-19-91L164 0H34z"/><glyph glyph-name="eight" unicode="8" horiz-adv-x="697" d="M301-15Q154-15 86.5 37T19 174q0 189 169 233-68 31-68 131 0 102 67 158.5T388 753q272 0 272-167 0-76-32.5-126T532 397q80-32 80-151 0-125-80.5-193T301-15zm12 100q83 0 131.5 38T493 243q0 108-170 108-183 0-183-161 0-105 173-105zm71 360q80 0 119 28.5t39 94.5q0 86-152 86-80 0-119-28.5T232 532q0-87 152-87z"/><glyph glyph-name="nine" unicode="9" horiz-adv-x="689" d="M74 0l21 102h72q85 0 143.5 13t94 41 54 58 35.5 78q-56-54-198-54-119 0-173.5 51.5T68 429q0 151 78 237.5T371 753q277 0 277-240 0-55-13-116-49-229-149.5-313T163 0H74zm268 334q189 0 189 183 0 130-163 130-182 0-182-198 0-56 35.5-85.5T342 334z"/><glyph glyph-name="colon" unicode=":" horiz-adv-x="286" d="M-6 0l30 145h141L135 0H-6zm89 414l29 146h141l-29-146H83z"/><glyph glyph-name="semicolon" unicode=";" horiz-adv-x="286" d="M-6-140l-18 61q47 19 63 34T61 0H-6l30 145h141L140 24Q123-54 96-83.5T-6-140zm89 554l29 146h141l-29-146H83z"/><glyph glyph-name="less" unicode="&lt;" horiz-adv-x="709" d="M500 75L95 303l16 86 503 226-22-115-365-158 296-155z"/><glyph glyph-name="equal" unicode="=" horiz-adv-x="709" d="M66 182l22 110h499l-22-110H66zm49 231l22 109h498l-22-109H115z"/><glyph glyph-name="greater" unicode="&gt;" horiz-adv-x="709" d="M85 76l22 115 365 158-296 155 23 112 405-228-16-86z"/><glyph glyph-name="question" unicode="?" horiz-adv-x="673" d="M222 206q18 115 49.5 161T394 444q82 28 106.5 48t24.5 71q0 38-33.5 59T371 643q-91 0-189-35l-40 102q103 43 249 43 136 0 196.5-41T648 591q0-93-40.5-141.5T466 365q-73-26-95-53.5T335 206H222zM166 0l27 133h142L307 0H166z"/><glyph glyph-name="at" unicode="@" horiz-adv-x="1074" d="M528-165q-237 0-353 110T59 292t118 349.5T515 754q460 0 460-462 0-148-42.5-205T786 30q-144 0-161 68-33-33-76.5-47T434 37q-97 0-142 49.5T247 221q0 53 8.5 101t27.5 91.5 47.5 74.5 70.5 49.5 94 18.5q139 0 181-59l35 53 71-6-74-344q-13-58 8-82t84-24q65 0 86 41.5T907 292q0 205-98.5 300T515 687q-388 0-388-395Q127 91 227-3.5T527-98q154 0 269 56l30-59q-130-64-298-64zm-64 296q66 0 105 33.5T625 283q9 37 9 71 0 50-29.5 76.5T506 457q-75 0-113-61.5T355 237q0-51 25-78.5t84-27.5z"/><glyph glyph-name="A" unicode="A" horiz-adv-x="733" d="M-60 0l444 746h121L631 0H510l-24 142H153L71 0H-60zm276 254h254l-55 337z"/><glyph glyph-name="B" unicode="B" horiz-adv-x="712" d="M2 0l158 741h263q151 0 213-38.5T698 588q0-90-36.5-142T563 382q38-13 59-49.5t21-89.5q0-137-72.5-190T349 0H2zm141 108h230q73 0 110.5 31T521 241q0 42-32.5 62T381 323H191zm70 326h223q72 0 103 30.5t31 91.5q0 37-33.5 56T419 631H257z"/><glyph glyph-name="C" unicode="C" horiz-adv-x="723" d="M357-11q-167 0-248 76T28 278q0 65 14 129 72 346 405 346 194 0 286-110l-103-83q-64 76-187 76-227 0-281-245-10-49-10-96 0-92 53-142t163-50q108 0 185 62l75-90q-99-86-271-86z"/><glyph glyph-name="D" unicode="D" horiz-adv-x="756" d="M2 0l158 741h180q208 0 298.5-61.5T729 479q0-71-18-149-18-84-46.5-144T602 90t-84-56T418 7 298 0H2zm144 112h155q134 0 196 47.5T590 346q15 72 15 115 0 86-60 125.5T339 626h-81z"/><glyph glyph-name="E" unicode="E" horiz-adv-x="648" d="M2 0l158 741h509l-24-116H257l-42-186h378l-23-115H193l-47-213h391L515 0H2z"/><glyph glyph-name="F" unicode="F" horiz-adv-x="606" d="M2 0l158 741h488l-24-116H257l-44-199h357l-23-115H190L123 0H2z"/><glyph glyph-name="G" unicode="G" horiz-adv-x="774" d="M365-11Q28-11 28 277q0 68 14 130 69 346 401 346 113 0 187-33t111-81l-103-84q-20 23-39 37.5t-62.5 29T436 636q-223 0-276-245-10-52-10-97 0-197 222-197 75 0 118.5 20.5t65 60.5T593 294l3 17H384l21 109h336l-22-112Q683 123 609 56T365-11z"/><glyph glyph-name="H" unicode="H" horiz-adv-x="781" d="M2 0l158 741h121l-64-298h377l65 298h121L622 0H501l69 323H193L123 0H2z"/><glyph glyph-name="I" unicode="I" horiz-adv-x="300" d="M11 0l158 741h121L132 0H11z"/><glyph glyph-name="J" unicode="J" horiz-adv-x="407" d="M-52 0l22 111h69q63 0 95 25t45 86l111 519h121L296 204Q271 85 209.5 42T53-1Q-21-1-52 0z"/><glyph glyph-name="K" unicode="K" horiz-adv-x="712" d="M474 0L324 365 168 220 121 0H2l158 741h119l-75-352 370 352h150L419 450 602 0H474z"/><glyph glyph-name="L" unicode="L" horiz-adv-x="582" d="M2 0l158 741h121L146 111h359L483 0H2z"/><glyph glyph-name="M" unicode="M" horiz-adv-x="926" d="M2 0l158 741h157l103-552 341 552h163L766 0H648l120 554L423 0h-88L230 551 111 0H2z"/><glyph glyph-name="N" unicode="N" horiz-adv-x="780" d="M2 0l158 741h131l255-536 117 536h116L621 0H510L239 563 117 0H2z"/><glyph glyph-name="O" unicode="O" horiz-adv-x="830" d="M378-12q-167 0-258 77.5T29 288q0 58 13 123 72 342 411 342 166 0 257-77t91-221q0-59-13-121Q713-12 378-12zm1 113q117 0 188 58.5T665 344q11 52 11 94 0 93-56 145.5T447 636q-232 0-284-242-10-46-10-94 0-93 55-146t171-53z"/><glyph glyph-name="P" unicode="P" horiz-adv-x="713" d="M2 0l158 741h284q269 0 269-185 0-139-71.5-221.5T423 252H175L120 0H2zm195 364h222q168 0 168 170 0 48-37.5 71.5T429 629H256z"/><glyph glyph-name="Q" unicode="Q" horiz-adv-x="830" d="M378-6h-7q-13-48 3-64t76-16h68l-21-104q-18-1-68-1-127 0-165.5 44.5T253 6Q29 55 29 288q-1 51 13 123 72 342 411 342 168 0 258-76.5T801 455q0-61-14-121-21-99-62-168T627.5 61 511 9.5 378-6zm1 107q116 0 187.5 59T665 344q11 52 11 94 0 93-56 145.5T447 636q-232 0-284-242-10-46-10-94 0-93 55-146t171-53z"/><glyph glyph-name="R" unicode="R" horiz-adv-x="725" d="M457 0l-97 270H179L120 0H2l158 741h270q279 0 279-182 0-120-56-195.5T482 273L580 0H457zM201 381h221q161 0 161 153 0 49-39.5 72T420 629H256z"/><glyph glyph-name="S" unicode="S" horiz-adv-x="702" d="M316-10Q107-10-32 94l77 90q115-88 276-88 83 0 130 24.5t47 86.5q0 32-19.5 53t-42 29.5T353 316l-30 9q-48 14-73.5 22.5T190 373t-50.5 35.5-29 48.5T98 525q0 122 78 175t202 53q188 0 299-84l-79-95q-85 67-225 67-151 0-151-105 0-23 10-39t34-28.5 46-19.5 65-18q51-13 80.5-22.5t65.5-26 54.5-35.5 31.5-48 13-67q0-242-306-242z"/><glyph glyph-name="T" unicode="T" horiz-adv-x="677" d="M200 0l134 625H76l24 116h636l-24-116H455L321 0H200z"/><glyph glyph-name="U" unicode="U" horiz-adv-x="778" d="M343-13Q48-13 48 202q0 43 12 98l95 441h121l-93-436q-11-53-11-80 0-61 41.5-93T356 100q96 0 142 43t66 137l99 461h118L676 256q-13-60-32.5-103.5t-56-84-98-61T343-13z"/><glyph glyph-name="V" unicode="V" horiz-adv-x="733" d="M227-5L102 741h123l92-584 341 584h133L346-5H227z"/><glyph glyph-name="W" unicode="W" horiz-adv-x="1063" d="M170-5l-63 746h124l42-529 279 529h116l54-529 267 529h125L734-5H626l-56 556L277-5H170z"/><glyph glyph-name="X" unicode="X" horiz-adv-x="725" d="M483 0L345 297 89 0H-49l348 396-159 345h126l121-261 223 261h138L432 381 609 0H483z"/><glyph glyph-name="Y" unicode="Y" horiz-adv-x="710" d="M214 0l60 279L90 741h126l140-345 285 345h134L394 276 335 0H214z"/><glyph glyph-name="Z" unicode="Z" horiz-adv-x="658" d="M-41 0l21 96 524 529H111l23 116h551l-20-105-521-525h417L538 0H-41z"/><glyph glyph-name="bracketleft" unicode="[" horiz-adv-x="489" d="M3-165l200 941h279l-21-106H299L141-62h165l-21-103H3z"/><glyph glyph-name="backslash" unicode="\" horiz-adv-x="534" d="M340 0L83 741h112L451 0H340z"/><glyph glyph-name="bracketright" unicode="]" horiz-adv-x="489" d="M-22-165L-1-62h163l158 732H157l22 106h280L259-165H-22z"/><glyph glyph-name="asciicircum" unicode="^" d="M136 574l185 171h124l112-171H448l-79 95-121-95H136z"/><glyph glyph-name="underscore" unicode="_" horiz-adv-x="453" d="M-144-141l18 93h527l-18-93h-527z"/><glyph glyph-name="grave" unicode="`" d="M334 616L189 787h136l110-171H334z"/><glyph glyph-name="a" unicode="a" horiz-adv-x="618" d="M186-10Q76-10 32.5 29.5T-12 144q0 126 86 174t266 48h72q5 25 5 40 0 31-26 44.5T295 464q-35 0-78.5-10T146 430l-45 94q82 49 215 49 108 0 158.5-27.5t54.5-81T517 332l-37-171q-9-36-2.5-48t43.5-11L500 1q-7-2-50-2-36 0-54 11.5T374 52q-57-62-188-62zm31 100q76 0 113 33t56 118l6 29h-69q-123 0-170.5-21.5T105 157q0-33 25-50t87-17z"/><glyph glyph-name="b" unicode="b" horiz-adv-x="644" d="M314-9Q141-9 111 60L75-5-9 4l165 772h115l-56-254q57 51 174 51 208 0 208-203 0-54-14-116-29-131-90-197T314-9zM298 96q73 0 109.5 40T465 264q11 55 11 82 0 115-129 115-77 0-117.5-35.5T168 293q-11-47-11-82 0-59 33-87t108-28z"/><glyph glyph-name="c" unicode="c" horiz-adv-x="555" d="M253-10Q12-10 12 201q0 51 11 108 27 130 97.5 197T324 573q149 0 218-92l-99-79q-14 18-24.5 28t-38 20-65.5 10q-74 0-115.5-40T139 290q-8-40-8-77 0-119 131-119 72 0 129 43l66-78q-86-69-204-69z"/><glyph glyph-name="d" unicode="d" horiz-adv-x="644" d="M218-9Q10-9 10 193q0 49 15 117 29 131 89.5 197T293 573q160 0 192-69l60 272h117L497 5l-90-9 4 49Q356-9 218-9zm42 105q77 0 117.5 35.5T439 264q10 43 10 83 0 59-33 87t-108 28q-73 0-109.5-40.5T142 293q-10-48-10-82 0-55 29-85t99-30z"/><glyph glyph-name="e" unicode="e" horiz-adv-x="586" d="M251-11Q11-11 11 199q0 48 12 110 26 129 97 196.5T321 573q217 0 217-170 0-64-23-171H122v-22q0-119 142-119 99 0 166 42l47-88q-86-56-226-56zm57 479q-67 0-106.5-34T142 333h281q6 29 6 50 0 41-26.5 63T308 468z"/><glyph glyph-name="f" unicode="f" horiz-adv-x="409" d="M46 454l22 106h105l13 58q19 91 67.5 131T405 789q57 0 69-1l-20-101h-47q-53 0-75.5-20T300 605l-10-45h135l-21-106H268L136-165H19l132 619H46z"/><glyph glyph-name="g" unicode="g" horiz-adv-x="610" d="M286 204q-68 0-114 12-11-16-11-35 0-18 11-26t44-8q159-2 223.5-31.5T504 8q0-109-72-148.5T203-179Q60-179-4.5-146.5T-69-41q0 65 40 102.5T78 109q-22 22-22 63 0 46 38 84-41 40-41 104 0 111 62 162t191 51q17 0 59-2l230 38-16-101h-85q40-40 40-106 0-101-61.5-149.5T286 204zM221-90q88-1 124.5 16.5T382-7q0 36-42.5 48.5T191 54q-78 0-107-19T55-24q0-66 166-66zm66 385q131 0 131 106 0 72-120 72-130 0-130-108 0-70 119-70z"/><glyph glyph-name="h" unicode="h" horiz-adv-x="622" d="M-10 0l165 776h116l-55-254q57 51 157 51 61 0 100.5-13.5t59-34 25-56 2-67.5-13.5-80L477 0H361l66 309q7 33 9 48t.5 38.5-12.5 34-35 19-63 8.5q-72 0-104.5-36T174 318L107 0H-10z"/><glyph glyph-name="i" unicode="i" horiz-adv-x="265" d="M-5 0l120 560h115L112 0H-5zm132 621l27 128h117l-26-128H127z"/><glyph glyph-name="j" unicode="j" horiz-adv-x="265" d="M-112-168l20 94h9q40 0 54.5 15T-4 5l119 555h115L110-8q-21-99-56.5-129.5T-67-168h-45zm239 789l27 128h117l-26-128H127z"/><glyph glyph-name="k" unicode="k" horiz-adv-x="553" d="M-9 0l165 776h115L171 307l260 253h130L326 330 462 0H341L238 243l-102-99L106 0H-9z"/><glyph glyph-name="l" unicode="l" horiz-adv-x="317" d="M135-1Q57-1 35 39t-4 132l129 605h117L147 168q-10-37-1.5-51t46.5-14h21L193 1q-20-2-58-2z"/><glyph glyph-name="m" unicode="m" horiz-adv-x="976" d="M-10 0l117 553 93 7-3-43q63 56 171 56 73 0 113.5-13.5T536 510q59 63 194 63 61 0 100-13.5t57.5-33.5 23.5-56.5 1-67.5-14-80L829 0H713l66 309q4 20 5.5 27t4.5 24.5 2.5 24-2 19.5-6.5 18.5-13 14-20 11.5-29 6-38 3q-71 0-101.5-35T535 318L468 0H352l65 309q16 75 10 99-15 49-106 49-71 0-101.5-35.5T174 318L107 0H-10z"/><glyph glyph-name="n" unicode="n" horiz-adv-x="622" d="M-10 0l117 553 93 7-3-43q63 56 176 56 61 0 100.5-13.5t59-34 25-56 2-67.5-13.5-80L477 0H361l66 309q7 33 9 48t.5 38.5-12.5 34-35 19-63 8.5q-72 0-104.5-36T174 318L107 0H-10z"/><glyph glyph-name="o" unicode="o" horiz-adv-x="626" d="M261-11Q12-11 12 207q0 45 11 102 30 139 104.5 201.5T326 573q251 0 251-217 0-40-12-103-29-139-104-201.5T261-11zm7 105q76 0 118.5 40.5T448 263q9 39 9 76 0 122-137 122-77 0-119.5-41T139 290q-9-39-9-76 0-120 138-120z"/><glyph glyph-name="p" unicode="p" horiz-adv-x="644" d="M-44-165l152 718 92 7-3-45q58 58 192 58 208 0 208-203 0-54-14-116-29-131-90-197T314-9Q224-9 179.5 7.5T120 58L72-165H-44zM298 96q73 0 109.5 40T465 264q11 55 11 82 0 115-129 115-77 0-117.5-35.5T168 293q-11-47-11-82 0-59 33-87t108-28z"/><glyph glyph-name="q" unicode="q" horiz-adv-x="644" d="M345-165l42 201Q334-9 218-9 10-9 10 193q0 49 15 117 29 131 89.5 197T293 573q89 0 136-16.5t67-53.5l38 62 81-7-153-723H345zM260 96q77 0 117.5 35.5T439 264q10 43 10 83 0 59-33 87t-108 28q-73 0-109.5-40.5T142 293q-10-48-10-82 0-55 29-85t99-30z"/><glyph glyph-name="r" unicode="r" horiz-adv-x="362" d="M-9 0l117 553 93 7-5-56q48 63 184 63l-23-116q-90-1-130-38.5T170 296L107 0H-9z"/><glyph glyph-name="s" unicode="s" horiz-adv-x="528" d="M221-10Q62-10-39 76l76 83q87-68 195-68 52 0 79 15t27 58q0 15-8.5 26.5T301 211t-34 13.5-45 12.5q-38 10-60.5 18.5T110 281t-43 43-14 62q0 187 229 187 137 0 226-64l-75-92q-74 48-161 48-50 0-74.5-15T173 401q0-19 17-33t36-20.5 58-17.5q41-12 64-20.5t51.5-26 42-44T455 177q0-187-234-187z"/><glyph glyph-name="t" unicode="t" horiz-adv-x="420" d="M46 454l22 106h102l52 150 94 19-37-169h134l-21-106H257l-59-276q-9-40 2-57.5t61-17.5h54L295 0q-16-1-75-1Q117-1 90 41.5T81 176l61 278H46z"/><glyph glyph-name="u" unicode="u" horiz-adv-x="615" d="M259-11q-86 0-138 19.5T49.5 64t-21 88T43 269l62 291h117l-64-301q-9-47-11.5-83t26.5-57.5T269 97q38 0 62 8.5t38.5 30 21 41.5 15.5 60l69 323h114l-70-329Q490 93 438.5 41T259-11z"/><glyph glyph-name="v" unicode="v" horiz-adv-x="558" d="M139-5L46 560h120l61-419 237 419h127L259-5H139z"/><glyph glyph-name="w" unicode="w" horiz-adv-x="878" d="M115-5L52 560h120l41-382 205 382h119l46-382 200 382h123L604-5H491l-48 400L228-5H115z"/><glyph glyph-name="x" unicode="x" horiz-adv-x="550" d="M332 0l-95 205L60 0H-70l264 298L74 560h121l83-180 154 180h129L320 288 453 0H332z"/><glyph glyph-name="y" unicode="y" horiz-adv-x="537" d="M29-169q-41 0-67 2l18 93h43q40 0 55 9t32 41l23 38-88 546h122l56-398 223 398h126L216-48q-40-71-78-96T29-169z"/><glyph glyph-name="z" unicode="z" horiz-adv-x="501" d="M-53 0l18 84 365 370H62l21 106h423l-17-86L123 99h296L399 0H-53z"/><glyph glyph-name="braceleft" unicode="{" horiz-adv-x="526" d="M234-165q-91 0-132 24T61-67q0 45 54.5 155.5T170 219q0 22-24.5 29T51 255l20 100q87 0 114 14.5t27 69.5q0 20-4 73.5t-4 80.5q0 183 192 183h126l-21-106h-75q-60 0-83.5-21T319 576q0-17 3.5-67.5T326 432q0-51-17.5-82.5T245 305q46-16 46-62 0-31-51.5-135.5T188-23q0-21 17.5-30t57.5-9h80l-21-103h-88z"/><glyph glyph-name="bar" unicode="|" horiz-adv-x="351" d="M116-165v941h117v-941H116z"/><glyph glyph-name="braceright" unicode="}" horiz-adv-x="526" d="M-23-165L-2-62h74q60 0 84 22.5T180 35q0 17-3.5 67.5T173 179q0 51 17.5 82.5T254 306q-46 16-46 62 0 31 51.5 134.5T311 632q0 20-17.5 29t-58.5 9h-79l21 106h88q91 0 132.5-24t41.5-74q0-45-55-155.5T329 392q0-22 24.5-29t94.5-7l-20-100q-87 0-114-14.5T287 172q0-20 4-73.5t4-80.5q0-183-192-183H-23z"/><glyph glyph-name="asciitilde" unicode="~" d="M440 395q-39 0-87.5 26T282 447q-36 0-78-47l-59 59q69 83 141 83 39 0 87.5-25.5T444 491q32 0 76 49l60-58q-73-87-140-87z"/><glyph glyph-name="exclamdown" unicode="¡" horiz-adv-x="380" d="M47 0l124 521h104L175 0H47zm122 594l30 147h141l-30-147H169z"/><glyph glyph-name="cent" unicode="¢" horiz-adv-x="554" d="M153-94l20 94Q12 31 12 201q0 51 11 108 25 122 89 188t182 73l14 62h111l-14-68q87-17 137-83l-99-79q-14 18-24.5 28t-38 20-65.5 10q-74 0-115.5-40T139 290q-8-40-8-77 0-119 131-119 39 0 66.5 8t62.5 35l66-78Q382-1 282-6l-17-88H153z"/><glyph glyph-name="sterling" unicode="£" horiz-adv-x="622" d="M361-8Q248-8 164 43 97-4-36 0l18 100q63 0 97 12t45 30 18 53q8 42 3 138H28l20 99h92v36q0 136 60 211t184 75q128 0 224-54l-66-98q-69 42-163 42-70 0-98-48t-28-140v-24h193l-19-99H256q2-88-8-137-7-38-21-70 62-30 131-30 49 0 66 17.5t27 78.5l4 26h102l-8-43Q530 70 489 31T361-8z"/><glyph glyph-name="currency" unicode="¤" horiz-adv-x="670" d="M43 405l18 93h105q40 117 117.5 186T471 753q133 0 211-54l-71-95q-59 39-142 39-124 0-185-145h231l-17-93H256q-5-20-11-67h237l-19-93H240v-1q0-150 142-150 69 0 119 28l52-90q-76-44-184-44-242 0-242 251v6H9l18 93h105q7 48 10 67H43z"/><glyph glyph-name="yen" unicode="¥" horiz-adv-x="634" d="M41 233l16 94h191L91 741h123l112-313 249 313h125L366 327h186l-18-94H344l-14-67h189l-18-94H310L295 0H180l15 72H7l18 94h190l14 67H41z"/><glyph glyph-name="brokenbar" unicode="¦" horiz-adv-x="351" d="M116-165v392h117v-392H116zm0 549v392h117V384H116z"/><glyph glyph-name="section" unicode="§" horiz-adv-x="575" d="M95-7Q35-7 11-5l18 96h55q56 0 76 20t31 70l8 40Q54 247 54 354q0 165 201 172l8 35q19 92 63.5 139T474 747q60 0 84-2l-20-101h-53q-56 0-76.5-19.5T378 559l-8-39q151-24 151-136 0-92-56.5-129.5T313 214l-7-34q-18-92-63-139.5T95-7zm204 296q60 0 92.5 18t32.5 68q0 69-146 69-63 0-95-17t-32-68q0-70 148-70z"/><glyph glyph-name="dieresis" unicode="¨" d="M190 616l25 121h106l-25-121H190zm209 0l25 121h106l-25-121H399z"/><glyph glyph-name="copyright" unicode="©" horiz-adv-x="820" d="M419 126q-121 0-182 63.5T176 375q0 125 65.5 187T424 624q112 0 179-65l-54-57q-51 46-125 46-82 0-125-44t-43-129q0-174 168-174 78 0 130 48l52-53q-68-70-187-70zm-6-138Q232-12 136.5 93.5T41 371t95.5 277.5T413 754q179 0 275-105.5T784 371 688 93.5 413-12zm0 48q162 0 242 91.5T735 371t-80 243.5T413 706q-163 0-242.5-91T91 371t79.5-244T413 36z"/><glyph glyph-name="ordfeminine" unicode="ª" horiz-adv-x="583" d="M222 280Q67 280 67 397q0 46 13.5 79t36.5 53 60 32 78 16 97 4h59q4 26 4 37 0 25-20.5 35.5T317 664q-63 0-121-28l-36 76q65 41 174 41 88 0 129-21.5t45.5-65T499 558l-31-139q-7-29-1-38t35-9l-17-83q-6-2-40-2-40 0-58 22-10 13-10 31-52-60-155-60zM54 131l18 88h352l-18-88H54zm198 232q55 0 88.5 27t48.5 94l5 23h-56q-99 0-137-17.5T163 413q1-25 21-37.5t68-12.5z"/><glyph glyph-name="guillemotleft" unicode="«" horiz-adv-x="722" d="M170 0L79 279l210 281h102L189 279 272 0H170zm247 0l-92 279 210 281h103L436 279 519 0H417z"/><glyph glyph-name="logicalnot" unicode="¬" horiz-adv-x="832" d="M126 120Q36 228 36 371q0 142 90 250 3-2 7-6-87-106-87-244t88-244zm102 91q-57 70-57 160t56 160q2-1 4.5-3.5l3.5-3.5q-54-67-54-153 0-88 54-153-1-1-2-2.5t-2.5-2.5-2.5-2zm36 32q-45 56-45 128t45 128q1-1 4-3.5t4-3.5q-43-53-43-121t43-121q-2-1-4.5-3.5zm52 46q-28 36-28 82 0 47 28 81l7-7q-25-33-25-74t26-75q-2-1-4-3.5t-4-3.5zm33 31q-16 22-16 51t16 51q2-1 4-3.5t4-3.5q-14-20-14-44t14-44q-3-2-8-7zm29 26q-7 12-7 25t7 25l6-5q-5-10-5-20t5-20q-2-2-6-5zm38-286q-116 0-201 77l7 7q84-74 194-74 111 0 193 74 1-2 3.5-4t3.5-4q-86-76-200-76zm0 264q-15 0-27 9l6 6q10-7 21-7 13 0 21 7 2-2 5-6-10-9-26-9zm66-5q-3 4-7 7 14 20 14 45t-14 44l7 7q17-22 17-51t-17-52zm-190-50q-35 45-35 102 0 58 36 102l7-7q-33-43-33-95t33-95q-5-5-8-7zM416-17q-144 0-252 97l7 8Q276-7 416-7q139 0 244 94l2-1 4-4 1-2Q560-17 416-17zm0 138q-92 0-161 61l7 8q65-59 154-59t153 59q1-1 3.5-4t3.5-4q-67-61-160-61zm0 49q-72 0-129 49l7 7q52-46 122-46t121 46l3.5-3.5 3.5-4.5q-54-48-128-48zm0 39q-57 0-103 38l7 8q43-36 96-36t96 36q2-2 6-8-45-38-102-38zm0 56q-37 0-66 24l7 8q25-22 59-22 33 0 58 22 1-2 3.5-4t3.5-4q-29-24-65-24zm-58 180q-3 2-7 7l-1 1q29 24 66 24t66-24l-8-8q-25 22-58 22t-58-22zm212 107q-65 59-154 59-87 0-153-58l-7 7q69 61 160 61 92 0 161-61-2-3-7-8zM454 346l-6 5q5 10 5 20t-5 20l6 5q7-12 7-25t-7-25zm14-13q-5 5-8 7 10 15 10 31t-10 31l8 7q12-16 12-38 0-21-12-38zm30-27q-3 2-8 7 19 25 19 58t-19 58l7 7q22-28 22-65 0-34-21-65zm42-37q-2 1-4 3.5t-4 3.5q33 43 33 95 0 53-34 95l8 7q36-44 36-102 0-57-35-102zm28-26q-5 5-8 7 43 53 43 121t-43 121l8 7q45-56 45-128t-45-128zm36-32q-3 2-8 7 55 66 55 153 0 89-55 153l8 7q57-68 57-160t-57-160zm45-40q-1 1-3.5 3t-3.5 3q69 85 69 194 0 110-70 193l8 7q72-86 72-200t-72-200zm57-51q-3 3-8 7 88 106 88 244t-88 244l8 7q90-108 90-251 0-142-90-251zm-523 50q-72 88-72 201t71 200q1-1 3.5-3t4.5-4q-69-83-69-193 0-111 69-194zm151 136q-21 29-21 65t21 65q3-2 8-7-19-25-19-58 0-32 19-57zm30 27q-12 17-12 38t12 38q1-1 2-2.5t2.5-2.5 2.5-2q-9-16-9-31t9-31zm31 70l-5 6q10 9 26 9t26-9l-5-6q-11 7-21 7-13 0-21-7zm-11 13l-7 7q17 14 39 14 21 0 38-14-4-4-6-7-14 12-32 12-17 0-32-12zm-13 14l-7 8q22 19 52 19t52-19l-7-8q-19 17-45 17t-45-17zm-76 86l-7 8q54 48 128 48t128-49l-2-1-2-4-2-2q-52 46-122 46t-121-46zm121-276q-48 0-83 30l7 8q35-28 76-28 42 0 75 28l7-7q-36-31-82-31zm0 45q-29 0-53 19l7 8q22-17 46-17 25 0 45 17l7-8q-22-19-52-19zm0 20q-21 0-40 14l7 7q17-12 33-12 17 0 32 12l7-7q-17-14-39-14zm-75 159l-7 7q36 31 82 31 47 0 82-30l-7-8q-33 28-75 28t-75-28zm-21 23l-7 8q44 38 103 38 58 0 102-39l-6-7q-41 36-96 36-53 0-96-36zm290 110q-81 75-194 75-110 0-194-74l-7 7q87 77 201 77t201-77zm-438 57l-7 8q107 97 251 97t252-97l-7-8q-105 95-245 95-139 0-244-95zm344-364l-7 7q25 33 25 74t-26 75l8 7q28-36 28-82 0-47-28-81z"/><glyph glyph-name="registered" unicode="®" horiz-adv-x="820" d="M412-12Q232-12 136.5 93.5T41 371t95.5 277.5T412 754t275.5-105.5T783 371 687.5 93.5 412-12zm0 48q162 0 242.5 91.5T735 371t-80.5 243.5T412 706q-163 0-242.5-91T90 371t79.5-244T412 36zm122 97L433 311H305V133h-73v472h214q96 0 133-36t37-109q0-59-24-95t-84-48l106-184h-80zM305 378h140q52 0 74 17t22 62q0 46-22 63t-75 17H305V378z"/><glyph glyph-name="macron" unicode="¯" d="M157 616l20 98h380l-20-98H157z"/><glyph glyph-name="macron" unicode="ˉ" d="M157 616l20 98h380l-20-98H157z"/><glyph glyph-name="degree" unicode="°" horiz-adv-x="559" d="M281 272q-104 0-154 53T77 462q0 126 72 208.5T343 753q102 0 151.5-54T544 560q0-125-72-206.5T281 272zm8 91q75 0 116.5 52T447 549q0 107-118 107-74 0-114.5-53T174 468q0-105 115-105z"/><glyph glyph-name="plusminus" unicode="±" horiz-adv-x="1023" d="M343-165l132 619H268L136-165H19l132 619H46l22 106h105l13 58q19 91 67.5 131T405 789q46 0 58-1l-20-101h-36q-53 0-75.5-20T300 605l-10-45h207l13 58q19 91 67.5 131T729 789q46 0 58-1l-21-101h-35q-53 0-75.5-20T623 605l-10-45h126l-22-106H591L460-165H343zM841-1q-77 0-99.5 40T737 171l130 605h116L853 168q-9-37-.5-51t45.5-14h22L899 1q-20-2-58-2z"/><glyph glyph-name="twosuperior" unicode="²" horiz-adv-x="484" d="M51 269l14 68 181 141q80 63 99 84.5t19 59.5q0 43-81 43-63 0-112-21l-28 75q67 28 148 28 168 0 168-108 0-46-14-77t-39-55-86-71l-116-90h196l-15-77H51z"/><glyph glyph-name="threesuperior" unicode="³" horiz-adv-x="484" d="M245 261q-120 0-200 57l51 68q71-48 147-48 91 0 91 90 0 28-19 41.5T247 483h-71l17 79h88q43 0 62.5 13.5T363 626q0 43-79 43-68 0-117-25l-33 71q58 33 167 33 159 0 159-100 0-55-21-84t-61-42q49-22 49-93 0-168-182-168z"/><glyph glyph-name="acute" unicode="´" d="M255 616l182 171h145L365 616H255z"/><glyph glyph-name="mu" unicode="µ" horiz-adv-x="619" d="M-44-165l153 725h117l-64-301q-9-47-12-83t26.5-57.5T274 97q26 0 45.5 3.5t33.5 14 22 19 15.5 29.5 10.5 33 9 41l69 323h114l-70-329q-20-92-46.5-142t-77-75T263-11q-113 0-147 51L72-165H-44z"/><glyph glyph-name="mu" unicode="μ" horiz-adv-x="619" d="M-44-165l153 725h117l-64-301q-9-47-12-83t26.5-57.5T274 97q26 0 45.5 3.5t33.5 14 22 19 15.5 29.5 10.5 33 9 41l69 323h114l-70-329q-20-92-46.5-142t-77-75T263-11q-113 0-147 51L72-165H-44z"/><glyph glyph-name="paragraph" unicode="¶" horiz-adv-x="640" d="M162 0l58 273Q68 307 68 448q0 146 71.5 219.5T363 741h270L475 0H365l56 262h-93L272 0H162zm181 360h98l60 274H349q-161 0-161-172 0-51 36.5-76.5T343 360z"/><glyph glyph-name="periodcentered" unicode="·" horiz-adv-x="266" d="M42 274l31 153h141l-31-153H42z"/><glyph glyph-name="periodcentered" unicode="∙" horiz-adv-x="266" d="M42 274l31 153h141l-31-153H42z"/><glyph glyph-name="cedilla" unicode="¸" d="M197-238q-88 0-146 40l42 60q48-33 102-33 66 0 66 50 0 41-84 35l-21 18 30 75h69l-21-50q107-2 107-76 0-119-144-119z"/><glyph glyph-name="onesuperior" unicode="¹" horiz-adv-x="356" d="M128 269l82 388h-86l17 84h182L223 269h-95z"/><glyph glyph-name="ordmasculine" unicode="º" horiz-adv-x="581" d="M302 281q-106 0-157 47T94 461q1 132 67 212t177 80q211 0 211-180 0-134-66-213t-181-79zm-1 88q70 0 109 51t39 139q0 101-110 101-68 0-107-52.5T193 468q0-99 108-99zM51 129l18 89h378l-18-89H51z"/><glyph glyph-name="guillemotright" unicode="»" horiz-adv-x="722" d="M47 0l202 281-83 279h102l91-280L149 0H47zm245 0l203 281-83 279h102l92-280L396 0H292z"/><glyph glyph-name="onequarter" unicode="¼" horiz-adv-x="952" d="M462 96l14 71 273 305h101L580 171h127l44 126h70l-27-126h76l-16-75h-76L758 0h-87l20 96H462zM110 0l572 741h102L214 0H110zm3 269l82 388h-86l17 84h182L208 269h-95z"/><glyph glyph-name="onehalf" unicode="½" horiz-adv-x="1017" d="M113 269l82 388h-86l17 84h182L208 269h-95zM110 0l572 741h102L214 0H110zm423 0l13 69 182 141q77 60 96.5 83t19.5 60q0 44-80 44-58 0-113-21l-27 74q70 30 148 30 82 0 125-29t43-81q0-65-26.5-102T804 168L689 78h192L866 0H533z"/><glyph glyph-name="threequarters" unicode="¾" horiz-adv-x="1072" d="M236 264q-119 0-201 56l51 68q70-47 148-47 91 0 91 90 0 29-19 43t-68 14h-71l16 76h88q43 0 62.5 14t19.5 51q0 22-18.5 32T274 671q-68 0-117-24l-32 71q60 33 166 33 159 0 159-100 0-56-20.5-85T369 525q48-22 48-93 0-87-48.5-127.5T236 264zM582 96l15 71 272 305h102L701 171h126l44 126h70l-27-126h76l-16-75h-75L879 0h-87l19 96H582zM230 0l572 741h103L333 0H230z"/><glyph glyph-name="questiondown" unicode="¿" horiz-adv-x="673" d="M282-12Q146-12 85.5 29T25 150q0 93 40.5 141.5T207 376q73 26 95 53.5T338 535h113q-18-115-49.5-161T279 297q-82-28-106.5-48T148 178q0-38 34-59t120-21q91 0 189 35l40-102Q428-12 282-12zm56 620l28 133h141l-27-133H338z"/><glyph glyph-name="Agrave" unicode="À" horiz-adv-x="733" d="M-60 0l444 746h121L631 0H510l-24 142H153L71 0H-60zm276 254h254l-55 337zm223 529L294 954h136l110-171H439z"/><glyph glyph-name="Aacute" unicode="Á" horiz-adv-x="733" d="M-60 0l444 746h121L631 0H510l-24 142H153L71 0H-60zm276 254h254l-55 337zm144 529l182 171h145L470 783H360z"/><glyph glyph-name="Acircumflex" unicode="Â" horiz-adv-x="733" d="M-60 0l444 746h121L631 0H510l-24 142H153L71 0H-60zm276 254h254l-55 337zm25 529l185 171h124l112-171H553l-79 95-121-95H241z"/><glyph glyph-name="Atilde" unicode="Ã" horiz-adv-x="733" d="M-60 0l444 746h121L631 0H510l-24 142H153L71 0H-60zm276 254h254l-55 337zm329 530q-39 0-87.5 26T387 836q-36 0-78-47l-59 59q69 83 141 83 39 0 87.5-25.5T549 880q32 0 76 49l60-58q-73-87-140-87z"/><glyph glyph-name="Adieresis" unicode="Ä" horiz-adv-x="733" d="M-60 0l444 746h121L631 0H510l-24 142H153L71 0H-60zm276 254h254l-55 337zm79 529l25 121h106l-25-121H295zm209 0l25 121h106l-25-121H504z"/><glyph glyph-name="Aring" unicode="Å" horiz-adv-x="733" d="M-60 0l419 704q-43 29-43 89 0 73 41 118t107 45q61 0 92-32.5t31-81.5q0-101-75-141L631 0H510l-24 142H153L71 0H-60zm276 254h254l-55 337zm227 493q36 0 58.5 23.5T524 835q0 25-15.5 41.5T461 893q-37 0-59.5-25.5T379 801q0-24 16-39t48-15z"/><glyph glyph-name="AE" unicode="Æ" horiz-adv-x="1089" d="M-74 0l612 741h571l-23-116H704l-42-188h372l-23-112H639l-47-214h386L955 0H453l32 145H182L62 0H-74zm340 249h241l81 385z"/><glyph glyph-name="Ccedilla" unicode="Ç" horiz-adv-x="723" d="M262-238q-88 0-146 40l42 60q48-33 102-33 66 0 66 50 0 41-84 35l-21 18 27 67Q28 44 28 278q0 65 14 129 72 346 405 346 194 0 286-110l-103-83q-64 76-187 76-227 0-281-245-10-49-10-96 0-92 53-142t163-50q108 0 185 62l75-90q-99-86-271-86-16 0-44 2l-14-34q107-2 107-76 0-119-144-119z"/><glyph glyph-name="Egrave" unicode="È" horiz-adv-x="648" d="M2 0l158 741h509l-24-116H257l-42-186h378l-23-115H193l-47-213h391L515 0H2zm396 783L253 954h136l110-171H398z"/><glyph glyph-name="Eacute" unicode="É" horiz-adv-x="648" d="M319 783l182 171h145L429 783H319zM2 0l158 741h509l-24-116H257l-42-186h378l-23-115H193l-47-213h391L515 0H2z"/><glyph glyph-name="Ecircumflex" unicode="Ê" horiz-adv-x="648" d="M200 783l185 171h124l112-171H512l-79 95-121-95H200zM2 0l158 741h509l-24-116H257l-42-186h378l-23-115H193l-47-213h391L515 0H2z"/><glyph glyph-name="Edieresis" unicode="Ë" horiz-adv-x="648" d="M254 783l25 121h106l-25-121H254zm209 0l25 121h106l-25-121H463zM2 0l158 741h509l-24-116H257l-42-186h378l-23-115H193l-47-213h391L515 0H2z"/><glyph glyph-name="Igrave" unicode="Ì" horiz-adv-x="300" d="M188 783L80 955h135l72-172h-99zM11 0l158 741h121L132 0H11z"/><glyph glyph-name="Iacute" unicode="Í" horiz-adv-x="300" d="M182 783l146 172h143L290 783H182zM11 0l158 741h121L132 0H11z"/><glyph glyph-name="Icircumflex" unicode="Î" horiz-adv-x="300" d="M11 0l158 741h121L132 0H11zm16 783l185 171h124l112-171H339l-79 95-121-95H27z"/><glyph glyph-name="Idieresis" unicode="Ï" horiz-adv-x="300" d="M11 0l158 741h121L132 0H11zm70 783l25 121h106l-25-121H81zm209 0l25 121h106l-25-121H290z"/><glyph glyph-name="Eth" unicode="Ð" horiz-adv-x="756" d="M-8 328l20 101h81l67 312h180q208 0 298.5-61.5T729 479q0-71-18-149-18-84-46.5-144T602 90t-84-56T418 7 298 0H2l70 328H-8zm154-216h155q134 0 196 47.5T590 346q15 72 15 115 0 86-60 125.5T339 626h-81l-43-197h152l-21-101H193z"/><glyph glyph-name="Ntilde" unicode="Ñ" horiz-adv-x="780" d="M2 0l158 741h131l255-536 117 536h116L621 0H510L239 563 117 0H2zm567 784q-39 0-87.5 26T411 836q-36 0-78-47l-59 59q69 83 141 83 39 0 87.5-25.5T573 880q32 0 76 49l60-58q-73-87-140-87z"/><glyph glyph-name="Ograve" unicode="Ò" horiz-adv-x="830" d="M378-12q-167 0-258 77.5T29 288q0 58 13 123 72 342 411 342 166 0 257-77t91-221q0-59-13-121Q713-12 378-12zm1 113q117 0 188 58.5T665 344q11 52 11 94 0 93-56 145.5T447 636q-232 0-284-242-10-46-10-94 0-93 55-146t171-53zm109 682L343 954h136l110-171H488z"/><glyph glyph-name="Oacute" unicode="Ó" horiz-adv-x="830" d="M409 783l182 171h145L519 783H409zM378-12q-167 0-258 77.5T29 288q0 58 13 123 72 342 411 342 166 0 257-77t91-221q0-59-13-121Q713-12 378-12zm1 113q117 0 188 58.5T665 344q11 52 11 94 0 93-56 145.5T447 636q-232 0-284-242-10-46-10-94 0-93 55-146t171-53z"/><glyph glyph-name="Ocircumflex" unicode="Ô" horiz-adv-x="830" d="M290 783l185 171h124l112-171H602l-79 95-121-95H290zm88-795q-167 0-258 77.5T29 288q0 58 13 123 72 342 411 342 166 0 257-77t91-221q0-59-13-121Q713-12 378-12zm1 113q117 0 188 58.5T665 344q11 52 11 94 0 93-56 145.5T447 636q-232 0-284-242-10-46-10-94 0-93 55-146t171-53z"/><glyph glyph-name="Otilde" unicode="Õ" horiz-adv-x="830" d="M378-12q-167 0-258 77.5T29 288q0 58 13 123 72 342 411 342 166 0 257-77t91-221q0-59-13-121Q713-12 378-12zm1 113q117 0 188 58.5T665 344q11 52 11 94 0 93-56 145.5T447 636q-232 0-284-242-10-46-10-94 0-93 55-146t171-53zm215 683q-39 0-87.5 26T436 836q-36 0-78-47l-59 59q69 83 141 83 39 0 87.5-25.5T598 880q32 0 76 49l60-58q-73-87-140-87z"/><glyph glyph-name="Odieresis" unicode="Ö" horiz-adv-x="830" d="M344 783l25 121h106l-25-121H344zm209 0l25 121h106l-25-121H553zM378-12q-167 0-258 77.5T29 288q0 58 13 123 72 342 411 342 166 0 257-77t91-221q0-59-13-121Q713-12 378-12zm1 113q117 0 188 58.5T665 344q11 52 11 94 0 93-56 145.5T447 636q-232 0-284-242-10-46-10-94 0-93 55-146t171-53z"/><glyph glyph-name="multiply" unicode="×" horiz-adv-x="709" d="M147 125l-55 73 187 154-121 154 86 73 122-154 186 154 55-74-186-153 121-154-86-73-121 154z"/><glyph glyph-name="Oslash" unicode="Ø" horiz-adv-x="830" d="M378-12q-110 0-187 33l-48-62H26l87 111q-84 76-84 218-1 51 13 123 72 342 411 342 101 0 176-29l46 59h116l-82-105q92-78 92-223 0-59-13-121Q713-12 378-12zm1 108q118 0 190.5 60T670 344q11 52 11 96 0 92-52 143L260 115q51-19 119-19zM147 298q0-85 44-136l366 463q-50 16-110 16-236 0-289-247-11-50-11-96z"/><glyph glyph-name="Ugrave" unicode="Ù" horiz-adv-x="778" d="M343-13Q48-13 48 202q0 43 12 98l95 441h121l-93-436q-11-53-11-80 0-61 41.5-93T356 100q96 0 142 43t66 137l99 461h118L676 256q-13-60-32.5-103.5t-56-84-98-61T343-13zm119 796L317 954h136l110-171H462z"/><glyph glyph-name="Uacute" unicode="Ú" horiz-adv-x="778" d="M383 783l182 171h145L493 783H383zM343-13Q48-13 48 202q0 43 12 98l95 441h121l-93-436q-11-53-11-80 0-61 41.5-93T356 100q96 0 142 43t66 137l99 461h118L676 256q-13-60-32.5-103.5t-56-84-98-61T343-13z"/><glyph glyph-name="Ucircumflex" unicode="Û" horiz-adv-x="778" d="M264 783l185 171h124l112-171H576l-79 95-121-95H264zm79-796Q48-13 48 202q0 43 12 98l95 441h121l-93-436q-11-53-11-80 0-61 41.5-93T356 100q96 0 142 43t66 137l99 461h118L676 256q-13-60-32.5-103.5t-56-84-98-61T343-13z"/><glyph glyph-name="Udieresis" unicode="Ü" horiz-adv-x="778" d="M318 783l25 121h106l-25-121H318zm209 0l25 121h106l-25-121H527zM343-13Q48-13 48 202q0 43 12 98l95 441h121l-93-436q-11-53-11-80 0-61 41.5-93T356 100q96 0 142 43t66 137l99 461h118L676 256q-13-60-32.5-103.5t-56-84-98-61T343-13z"/><glyph glyph-name="Yacute" unicode="Ý" horiz-adv-x="710" d="M214 0l60 279L90 741h126l140-345 285 345h134L394 276 335 0H214zm135 783l182 171h145L459 783H349z"/><glyph glyph-name="Thorn" unicode="Þ" horiz-adv-x="713" d="M2 0l158 741h118l-24-109h166q270 0 270-185 0-139-71.5-219T399 148H152L120 0H2zm171 254h224q167 0 167 168 0 51-37.5 75.5T405 522H232z"/><glyph glyph-name="germandbls" unicode="ß" horiz-adv-x="649" d="M-44-165l151 709q24 112 86.5 175T376 782q230 0 230-164 0-86-35.5-141T472 404q118-33 118-154 0-130-69.5-190T303 0H200l21 105h75q95 0 138 35t43 106q0 48-41.5 71.5T299 341l20 98q83-1 126 30.5T488 578q0 85-122 85-63 0-98-33.5T218 525L71-165H-44z"/><glyph glyph-name="agrave" unicode="à" horiz-adv-x="618" d="M186-10Q76-10 32.5 29.5T-12 144q0 126 86 174t266 48h72q5 25 5 40 0 31-26 44.5T295 464q-35 0-78.5-10T146 430l-45 94q82 49 215 49 108 0 158.5-27.5t54.5-81T517 332l-37-171q-9-36-2.5-48t43.5-11L500 1q-7-2-50-2-36 0-54 11.5T374 52q-57-62-188-62zm31 100q76 0 113 33t56 118l6 29h-69q-123 0-170.5-21.5T105 157q0-33 25-50t87-17zm132 526L204 787h136l110-171H349z"/><glyph glyph-name="aacute" unicode="á" horiz-adv-x="618" d="M186-10Q76-10 32.5 29.5T-12 144q0 126 86 174t266 48h72q5 25 5 40 0 31-26 44.5T295 464q-35 0-78.5-10T146 430l-45 94q82 49 215 49 108 0 158.5-27.5t54.5-81T517 332l-37-171q-9-36-2.5-48t43.5-11L500 1q-7-2-50-2-36 0-54 11.5T374 52q-57-62-188-62zm31 100q76 0 113 33t56 118l6 29h-69q-123 0-170.5-21.5T105 157q0-33 25-50t87-17zm53 526l182 171h145L380 616H270z"/><glyph glyph-name="acircumflex" unicode="â" horiz-adv-x="618" d="M186-10Q76-10 32.5 29.5T-12 144q0 126 86 174t266 48h72q5 25 5 40 0 31-26 44.5T295 464q-35 0-78.5-10T146 430l-45 94q82 49 215 49 108 0 158.5-27.5t54.5-81T517 332l-37-171q-9-36-2.5-48t43.5-11L500 1q-7-2-50-2-36 0-54 11.5T374 52q-57-62-188-62zm31 100q76 0 113 33t56 118l6 29h-69q-123 0-170.5-21.5T105 157q0-33 25-50t87-17zm-66 526l185 171h124l112-171H463l-79 95-121-95H151z"/><glyph glyph-name="atilde" unicode="ã" horiz-adv-x="618" d="M186-10Q76-10 32.5 29.5T-12 144q0 126 86 174t266 48h72q5 25 5 40 0 31-26 44.5T295 464q-35 0-78.5-10T146 430l-45 94q82 49 215 49 108 0 158.5-27.5t54.5-81T517 332l-37-171q-9-36-2.5-48t43.5-11L500 1q-7-2-50-2-36 0-54 11.5T374 52q-57-62-188-62zm31 100q76 0 113 33t56 118l6 29h-69q-123 0-170.5-21.5T105 157q0-33 25-50t87-17zm238 527q-39 0-87.5 26T297 669q-36 0-78-47l-59 59q69 83 141 83 39 0 87.5-25.5T459 713q32 0 76 49l60-58q-73-87-140-87z"/><glyph glyph-name="adieresis" unicode="ä" horiz-adv-x="618" d="M186-10Q76-10 32.5 29.5T-12 144q0 126 86 174t266 48h72q5 25 5 40 0 31-26 44.5T295 464q-35 0-78.5-10T146 430l-45 94q82 49 215 49 108 0 158.5-27.5t54.5-81T517 332l-37-171q-9-36-2.5-48t43.5-11L500 1q-7-2-50-2-36 0-54 11.5T374 52q-57-62-188-62zm31 100q76 0 113 33t56 118l6 29h-69q-123 0-170.5-21.5T105 157q0-33 25-50t87-17zm-12 526l25 121h106l-25-121H205zm209 0l25 121h106l-25-121H414z"/><glyph glyph-name="aring" unicode="å" horiz-adv-x="618" d="M186-10Q76-10 32.5 29.5T-12 144q0 126 86 174t266 48h72q5 25 5 40 0 31-26 44.5T295 464q-35 0-78.5-10T146 430l-45 94q82 49 215 49 108 0 158.5-27.5t54.5-81T517 332l-37-171q-9-36-2.5-48t43.5-11L500 1q-7-2-50-2-36 0-54 11.5T374 52q-57-62-188-62zm31 100q76 0 113 33t56 118l6 29h-69q-123 0-170.5-21.5T105 157q0-33 25-50t87-17zm159 516q-63 0-93.5 30.5T252 715q0 73 41 118t107 45q61 0 92-32.5t31-81.5q0-73-41-115.5T376 606zm3 63q36 0 58.5 23.5T460 757q0 25-15.5 41.5T397 815q-37 0-59.5-25.5T315 723q0-24 16-39t48-15z"/><glyph glyph-name="ae" unicode="æ" horiz-adv-x="953" d="M620-11q-156 0-203 90-70-89-233-89-196 0-196 154 0 125 87.5 173.5T340 366h72q5 25 5 40 0 30-26 44t-96 14q-35 0-78.5-10T146 430l-45 94q82 49 215 49 152 0 189-59 67 59 185 59 217 0 217-170 0-64-23-171H491v-22q0-119 142-119 99 0 166 42l47-88q-86-56-226-56zM217 90q78 0 114 33.5T386 241l6 29h-69q-124 0-171-20.5T105 155q0-34 26-49.5T217 90zm460 378q-68 0-107-34t-59-102h281q6 28 6 51 0 41-26.5 63T677 468z"/><glyph glyph-name="ccedilla" unicode="ç" horiz-adv-x="555" d="M180-238q-88 0-146 40l42 60q48-33 102-33 66 0 66 50 0 41-84 35l-21 18 26 67Q12 33 12 201q0 51 11 108 27 130 97.5 197T324 573q149 0 218-92l-99-79q-14 18-24.5 28t-38 20-65.5 10q-74 0-115.5-40T139 290q-8-40-8-77 0-119 131-119 72 0 129 43l66-78q-86-69-204-69-15 0-22 1l-14-34q107-2 107-76 0-119-144-119z"/><glyph glyph-name="egrave" unicode="è" horiz-adv-x="586" d="M251-11Q11-11 11 199q0 48 12 110 26 129 97 196.5T321 573q217 0 217-170 0-64-23-171H122v-22q0-119 142-119 99 0 166 42l47-88q-86-56-226-56zm57 479q-67 0-106.5-34T142 333h281q6 29 6 50 0 41-26.5 63T308 468zm24 148L187 787h136l110-171H332z"/><glyph glyph-name="eacute" unicode="é" horiz-adv-x="586" d="M253 616l182 171h145L363 616H253zm-2-627Q11-11 11 199q0 48 12 110 26 129 97 196.5T321 573q217 0 217-170 0-64-23-171H122v-22q0-119 142-119 99 0 166 42l47-88q-86-56-226-56zm57 479q-67 0-106.5-34T142 333h281q6 29 6 50 0 41-26.5 63T308 468z"/><glyph glyph-name="ecircumflex" unicode="ê" horiz-adv-x="586" d="M134 616l185 171h124l112-171H446l-79 95-121-95H134zM251-11Q11-11 11 199q0 48 12 110 26 129 97 196.5T321 573q217 0 217-170 0-64-23-171H122v-22q0-119 142-119 99 0 166 42l47-88q-86-56-226-56zm57 479q-67 0-106.5-34T142 333h281q6 29 6 50 0 41-26.5 63T308 468z"/><glyph glyph-name="edieresis" unicode="ë" horiz-adv-x="586" d="M188 616l25 121h106l-25-121H188zm209 0l25 121h106l-25-121H397zM251-11Q11-11 11 199q0 48 12 110 26 129 97 196.5T321 573q217 0 217-170 0-64-23-171H122v-22q0-119 142-119 99 0 166 42l47-88q-86-56-226-56zm57 479q-67 0-106.5-34T142 333h281q6 29 6 50 0 41-26.5 63T308 468z"/><glyph glyph-name="igrave" unicode="ì" horiz-adv-x="265" d="M128 616L26 787h136l66-171H128zM-5 0l120 560h115L112 0H-5z"/><glyph glyph-name="iacute" unicode="í" horiz-adv-x="265" d="M126 616l148 171h143L234 616H126zM-5 0l120 560h115L112 0H-5z"/><glyph glyph-name="icircumflex" unicode="î" horiz-adv-x="265" d="M-7 616l166 171h122l93-171H265l-59 95-101-95H-7zM-5 0l120 560h115L112 0H-5z"/><glyph glyph-name="idieresis" unicode="ï" horiz-adv-x="265" d="M42 616l25 121h98l-25-121H42zm186 0l25 121h98l-25-121h-98zM-5 0l120 560h115L112 0H-5z"/><glyph glyph-name="eth" unicode="ð" horiz-adv-x="627" d="M323 576l19 96 62 14q-14 22-46 64l117 42q32-37 53-78l158 36-18-97-105-24q26-85 26-180 0-104-25-208-34-139-104-195.5T268-11Q11-11 11 206q0 50 11 103 28 121 93 180.5T292 549q72 0 111.5-12t61.5-39q1 54-18 105zM268 94q76 0 117.5 37.5T446 252q9 39 9 71 0 118-137 118-77 0-118.5-38T139 282q-9-39-9-73 0-115 138-115z"/><glyph glyph-name="ntilde" unicode="ñ" horiz-adv-x="622" d="M-10 0l117 553 93 7-3-43q63 56 176 56 61 0 100.5-13.5t59-34 25-56 2-67.5-13.5-80L477 0H361l66 309q7 33 9 48t.5 38.5-12.5 34-35 19-63 8.5q-72 0-104.5-36T174 318L107 0H-10zm465 617q-39 0-87.5 26T297 669q-36 0-78-47l-59 59q69 83 141 83 39 0 87.5-25.5T459 713q32 0 76 49l60-58q-73-87-140-87z"/><glyph glyph-name="ograve" unicode="ò" horiz-adv-x="626" d="M261-11Q12-11 12 207q0 45 11 102 30 139 104.5 201.5T326 573q251 0 251-217 0-40-12-103-29-139-104-201.5T261-11zm7 105q76 0 118.5 40.5T448 263q9 39 9 76 0 122-137 122-77 0-119.5-41T139 290q-9-39-9-76 0-120 138-120zm83 522L206 787h136l110-171H351z"/><glyph glyph-name="oacute" unicode="ó" horiz-adv-x="626" d="M272 616l182 171h145L382 616H272zM261-11Q12-11 12 207q0 45 11 102 30 139 104.5 201.5T326 573q251 0 251-217 0-40-12-103-29-139-104-201.5T261-11zm7 105q76 0 118.5 40.5T448 263q9 39 9 76 0 122-137 122-77 0-119.5-41T139 290q-9-39-9-76 0-120 138-120z"/><glyph glyph-name="ocircumflex" unicode="ô" horiz-adv-x="626" d="M153 616l185 171h124l112-171H465l-79 95-121-95H153zM261-11Q12-11 12 207q0 45 11 102 30 139 104.5 201.5T326 573q251 0 251-217 0-40-12-103-29-139-104-201.5T261-11zm7 105q76 0 118.5 40.5T448 263q9 39 9 76 0 122-137 122-77 0-119.5-41T139 290q-9-39-9-76 0-120 138-120z"/><glyph glyph-name="otilde" unicode="õ" horiz-adv-x="626" d="M261-11Q12-11 12 207q0 45 11 102 30 139 104.5 201.5T326 573q251 0 251-217 0-40-12-103-29-139-104-201.5T261-11zm7 105q76 0 118.5 40.5T448 263q9 39 9 76 0 122-137 122-77 0-119.5-41T139 290q-9-39-9-76 0-120 138-120zm189 523q-39 0-87.5 26T299 669q-36 0-78-47l-59 59q69 83 141 83 39 0 87.5-25.5T461 713q32 0 76 49l60-58q-73-87-140-87z"/><glyph glyph-name="odieresis" unicode="ö" horiz-adv-x="626" d="M207 616l25 121h106l-25-121H207zm209 0l25 121h106l-25-121H416zM261-11Q12-11 12 207q0 45 11 102 30 139 104.5 201.5T326 573q251 0 251-217 0-40-12-103-29-139-104-201.5T261-11zm7 105q76 0 118.5 40.5T448 263q9 39 9 76 0 122-137 122-77 0-119.5-41T139 290q-9-39-9-76 0-120 138-120z"/><glyph glyph-name="divide" unicode="÷" horiz-adv-x="709" d="M233 92l25 116h125L358 92H233zM84 297l23 111h510l-23-111H84zm235 200l24 117h125l-24-117H319z"/><glyph glyph-name="oslash" unicode="ø" horiz-adv-x="626" d="M261-11q-79 0-137 24L79-42H-21L61 58q-49 53-49 149 0 45 11 102 30 139 104.5 201.5T326 573q80 0 138-24l45 55h100l-82-100q50-54 50-148 0-40-12-103-29-139-104-201.5T261-11zm6 99q80 0 123 42t63 132q10 40 10 79 0 43-16 71L190 100q30-12 77-12zM124 211q0-39 14-66l254 311q-30 11-71 11-80 0-123.5-42.5T134 291q-10-47-10-80z"/><glyph glyph-name="ugrave" unicode="ù" horiz-adv-x="615" d="M259-11q-86 0-138 19.5T49.5 64t-21 88T43 269l62 291h117l-64-301q-9-47-11.5-83t26.5-57.5T269 97q38 0 62 8.5t38.5 30 21 41.5 15.5 60l69 323h114l-70-329Q490 93 438.5 41T259-11zm87 627L201 787h136l110-171H346z"/><glyph glyph-name="uacute" unicode="ú" horiz-adv-x="615" d="M267 616l182 171h145L377 616H267zm-8-627q-86 0-138 19.5T49.5 64t-21 88T43 269l62 291h117l-64-301q-9-47-11.5-83t26.5-57.5T269 97q38 0 62 8.5t38.5 30 21 41.5 15.5 60l69 323h114l-70-329Q490 93 438.5 41T259-11z"/><glyph glyph-name="ucircumflex" unicode="û" horiz-adv-x="615" d="M148 616l185 171h124l112-171H460l-79 95-121-95H148zM259-11q-86 0-138 19.5T49.5 64t-21 88T43 269l62 291h117l-64-301q-9-47-11.5-83t26.5-57.5T269 97q38 0 62 8.5t38.5 30 21 41.5 15.5 60l69 323h114l-70-329Q490 93 438.5 41T259-11z"/><glyph glyph-name="udieresis" unicode="ü" horiz-adv-x="615" d="M202 616l25 121h106l-25-121H202zm209 0l25 121h106l-25-121H411zM259-11q-86 0-138 19.5T49.5 64t-21 88T43 269l62 291h117l-64-301q-9-47-11.5-83t26.5-57.5T269 97q38 0 62 8.5t38.5 30 21 41.5 15.5 60l69 323h114l-70-329Q490 93 438.5 41T259-11z"/><glyph glyph-name="yacute" unicode="ý" horiz-adv-x="537" d="M29-169q-41 0-67 2l18 93h43q40 0 55 9t32 41l23 38-88 546h122l56-398 223 398h126L216-48q-40-71-78-96T29-169zm201 785l182 171h145L340 616H230z"/><glyph glyph-name="thorn" unicode="þ" horiz-adv-x="644" d="M-44-165l200 941h115l-55-254q51 51 173 51 208 0 208-203 0-54-14-116-29-131-90-197T314-9Q224-9 179 7.5T119 58L72-165H-44zM298 96q73 0 109.5 40T465 264q11 55 11 82 0 115-129 115-77 0-117.5-35.5T168 293q-11-47-11-82 0-59 33-87t108-28z"/><glyph glyph-name="ydieresis" unicode="ÿ" horiz-adv-x="537" d="M29-169q-41 0-67 2l18 93h43q40 0 55 9t32 41l23 38-88 546h122l56-398 223 398h126L216-48q-40-71-78-96T29-169zm136 785l25 121h106l-25-121H165zm209 0l25 121h106l-25-121H374z"/><glyph glyph-name="dotlessi" unicode="ı" horiz-adv-x="265" d="M-5 0l120 560h115L112 0H-5z"/><glyph glyph-name="Lslash" unicode="Ł" horiz-adv-x="592" d="M-18 278L3 383l90 45 67 313h121l-53-246 171 86-22-106-172-86-59-278h369L493 0H2l68 322z"/><glyph glyph-name="lslash" unicode="ł" horiz-adv-x="379" d="M20 355l21 100 105 54 57 267h117l-43-200 114 59-22-100-113-59-67-312q-9-38-.5-52T234 98h22L235 1q-20-2-57-2-78 0-100.5 39.5T74 167l51 242z"/><glyph glyph-name="OE" unicode="Œ" horiz-adv-x="1236" d="M378-12q-169 0-259 77T29 288q-1 51 13 123 72 342 411 342 212 0 288-123l24 111h490l-24-116H850l-41-188h371l-23-112H786l-48-214h386L1101 0H607l16 78q-91-90-245-90zm1 113q117 0 188 58.5T665 344q11 52 11 94 0 93-56 145.5T447 636q-232 0-284-242-10-46-10-94 0-93 55-146t171-53z"/><glyph glyph-name="oe" unicode="œ" horiz-adv-x="1017" d="M683-11q-155 0-203 89-72-89-219-89Q12-11 12 207q0 45 11 102 30 139 104.5 201.5T326 573q158 0 211-91 71 91 216 91 120 0 168.5-46T970 403q0-64-23-171H554v-22q0-119 142-119 99 0 166 42l47-88q-86-56-226-56zM268 94q76 0 118.5 40.5T448 263q9 39 9 76 0 122-137 122-77 0-119.5-41T139 290q-9-39-9-76 0-120 138-120zm472 374q-68 0-107-34t-59-102h281q6 28 6 51 0 41-26.5 63T740 468z"/><glyph glyph-name="Scaron" unicode="Š" horiz-adv-x="702" d="M375 783L263 954h108l80-95 120 95h113L499 783H375zM316-10Q107-10-32 94l77 90q115-88 276-88 83 0 130 24.5t47 86.5q0 32-19.5 53t-42 29.5T353 316l-30 9q-48 14-73.5 22.5T190 373t-50.5 35.5-29 48.5T98 525q0 122 78 175t202 53q188 0 299-84l-79-95q-85 67-225 67-151 0-151-105 0-23 10-39t34-28.5 46-19.5 65-18q51-13 80.5-22.5t65.5-26 54.5-35.5 31.5-48 13-67q0-242-306-242z"/><glyph glyph-name="scaron" unicode="š" horiz-adv-x="528" d="M254 616L142 787h108l80-95 120 95h113L378 616H254zM221-10Q62-10-39 76l76 83q87-68 195-68 52 0 79 15t27 58q0 15-8.5 26.5T301 211t-34 13.5-45 12.5q-38 10-60.5 18.5T110 281t-43 43-14 62q0 187 229 187 137 0 226-64l-75-92q-74 48-161 48-50 0-74.5-15T173 401q0-19 17-33t36-20.5 58-17.5q41-12 64-20.5t51.5-26 42-44T455 177q0-187-234-187z"/><glyph glyph-name="Ydieresis" unicode="Ÿ" horiz-adv-x="710" d="M214 0l60 279L90 741h126l140-345 285 345h134L394 276 335 0H214zm70 783l25 121h106l-25-121H284zm209 0l25 121h106l-25-121H493z"/><glyph glyph-name="Zcaron" unicode="Ž" horiz-adv-x="658" d="M354 783L242 954h108l80-95 120 95h113L478 783H354zM-41 0l21 96 524 529H111l23 116h551l-20-105-521-525h417L538 0H-41z"/><glyph glyph-name="zcaron" unicode="ž" horiz-adv-x="501" d="M242 616L130 787h108l80-95 120 95h113L366 616H242zM-53 0l18 84 365 370H62l21 106h423l-17-86L123 99h296L399 0H-53z"/><glyph glyph-name="florin" unicode="ƒ" horiz-adv-x="573" d="M93 351l23 106h116l26 119q8 41 18.5 66.5t32 50.5 60 36.5T464 741h70l-22-110h-41q-55 0-74.5-21.5T368 541l-18-84h154l-22-106H327L216-166H100l110 517H93z"/><glyph glyph-name="circumflex" unicode="ˆ" d="M136 616l185 171h124l112-171H448l-79 95-121-95H136z"/><glyph glyph-name="caron" unicode="ˇ" d="M285 616L173 787h108l80-95 120 95h113L409 616H285z"/><glyph glyph-name="breve" unicode="˘" d="M362 606q-105 0-141.5 47.5T185 788l89 11q0-52 18-74.5t75-22.5q55 0 82.5 23t46.5 74l83-16q-54-177-217-177z"/><glyph glyph-name="dotaccent" unicode="˙" d="M288 616l26 125h118l-26-125H288z"/><glyph glyph-name="ring" unicode="˚" d="M361 606q-63 0-93.5 30.5T237 715q0 73 41 118t107 45q61 0 92-32.5t31-81.5q0-73-41-115.5T361 606zm3 63q36 0 58.5 23.5T445 757q0 25-15.5 41.5T382 815q-37 0-59.5-25.5T300 723q0-24 16-39t48-15z"/><glyph glyph-name="ogonek" unicode="˛" d="M200-227q-136 0-136 81 0 51 39 91t87 62h89Q161-60 161-115q0-19 12.5-27t43.5-8q36 0 79 18l29-70q-53-25-125-25z"/><glyph glyph-name="tilde" unicode="˜" d="M440 617q-39 0-87.5 26T282 669q-36 0-78-47l-59 59q69 83 141 83 39 0 87.5-25.5T444 713q32 0 76 49l60-58q-73-87-140-87z"/><glyph glyph-name="hungarumlaut" unicode="˝" d="M139 616l162 171h136L240 616H139zm248 0l163 171h135L488 616H387z"/><glyph glyph-name="Delta" unicode="Δ" horiz-adv-x="648" d="M46 454l22 106h105l13 58q19 91 67.5 131T405 789q46 0 58-1l-20-101h-36q-53 0-75.5-20T300 605l-10-45h125l-21-106H268L136-165H19l132 619H46zm226-622l19 94h9q40 0 54 15t25 64l118 555h117L493-8q-21-99-56.5-129.5T316-168h-44zm239 789l26 128h117l-26-128H511z"/><glyph glyph-name="Delta" unicode="∆" horiz-adv-x="648" d="M46 454l22 106h105l13 58q19 91 67.5 131T405 789q46 0 58-1l-20-101h-36q-53 0-75.5-20T300 605l-10-45h125l-21-106H268L136-165H19l132 619H46zm226-622l19 94h9q40 0 54 15t25 64l118 555h117L493-8q-21-99-56.5-129.5T316-168h-44zm239 789l26 128h117l-26-128H511z"/><glyph glyph-name="Omega" unicode="Ω" horiz-adv-x="832" d="M126 120Q36 228 36 371q0 142 90 250 3-2 7-6-87-106-87-244t88-244zm102 91q-57 70-57 160t56 160q2-1 4.5-3.5l3.5-3.5q-54-67-54-153 0-88 54-153-1-1-2-2.5t-2.5-2.5-2.5-2zm36 32q-45 56-45 128t45 128q1-1 4-3.5t4-3.5q-43-53-43-121t43-121q-2-1-4.5-3.5zm52 46q-28 36-28 82 0 47 28 81l7-7q-25-33-25-74t26-75q-2-1-4-3.5t-4-3.5zm33 31q-16 22-16 51t16 51q2-1 4-3.5t4-3.5q-14-20-14-44t14-44q-3-2-8-7zm29 26q-7 12-7 25t7 25l6-5q-5-10-5-20t5-20q-2-2-6-5zm38-286q-116 0-201 77l7 7q84-74 194-74 111 0 193 74 1-2 3.5-4t3.5-4q-86-76-200-76zm0 264q-15 0-27 9l6 6q10-7 21-7 13 0 21 7 2-2 5-6-10-9-26-9zm66-5q-3 4-7 7 14 20 14 45t-14 44l7 7q17-22 17-51t-17-52zm-190-50q-35 45-35 102 0 58 36 102l7-7q-33-43-33-95t33-95q-5-5-8-7zM416-17q-144 0-252 97l7 8Q276-7 416-7q139 0 244 94l2-1 4-4 1-2Q560-17 416-17zm0 138q-92 0-161 61l7 8q65-59 154-59t153 59q1-1 3.5-4t3.5-4q-67-61-160-61zm0 49q-72 0-129 49l7 7q52-46 122-46t121 46l3.5-3.5 3.5-4.5q-54-48-128-48zm0 39q-57 0-103 38l7 8q43-36 96-36t96 36q2-2 6-8-45-38-102-38zm0 56q-37 0-66 24l7 8q25-22 59-22 33 0 58 22 1-2 3.5-4t3.5-4q-29-24-65-24zm-58 180q-3 2-7 7l-1 1q29 24 66 24t66-24l-8-8q-25 22-58 22t-58-22zm212 107q-65 59-154 59-87 0-153-58l-7 7q69 61 160 61 92 0 161-61-2-3-7-8zM454 346l-6 5q5 10 5 20t-5 20l6 5q7-12 7-25t-7-25zm14-13q-5 5-8 7 10 15 10 31t-10 31l8 7q12-16 12-38 0-21-12-38zm30-27q-3 2-8 7 19 25 19 58t-19 58l7 7q22-28 22-65 0-34-21-65zm42-37q-2 1-4 3.5t-4 3.5q33 43 33 95 0 53-34 95l8 7q36-44 36-102 0-57-35-102zm28-26q-5 5-8 7 43 53 43 121t-43 121l8 7q45-56 45-128t-45-128zm36-32q-3 2-8 7 55 66 55 153 0 89-55 153l8 7q57-68 57-160t-57-160zm45-40q-1 1-3.5 3t-3.5 3q69 85 69 194 0 110-70 193l8 7q72-86 72-200t-72-200zm57-51q-3 3-8 7 88 106 88 244t-88 244l8 7q90-108 90-251 0-142-90-251zm-523 50q-72 88-72 201t71 200q1-1 3.5-3t4.5-4q-69-83-69-193 0-111 69-194zm151 136q-21 29-21 65t21 65q3-2 8-7-19-25-19-58 0-32 19-57zm30 27q-12 17-12 38t12 38q1-1 2-2.5t2.5-2.5 2.5-2q-9-16-9-31t9-31zm31 70l-5 6q10 9 26 9t26-9l-5-6q-11 7-21 7-13 0-21-7zm-11 13l-7 7q17 14 39 14 21 0 38-14-4-4-6-7-14 12-32 12-17 0-32-12zm-13 14l-7 8q22 19 52 19t52-19l-7-8q-19 17-45 17t-45-17zm-76 86l-7 8q54 48 128 48t128-49l-2-1-2-4-2-2q-52 46-122 46t-121-46zm121-276q-48 0-83 30l7 8q35-28 76-28 42 0 75 28l7-7q-36-31-82-31zm0 45q-29 0-53 19l7 8q22-17 46-17 25 0 45 17l7-8q-22-19-52-19zm0 20q-21 0-40 14l7 7q17-12 33-12 17 0 32 12l7-7q-17-14-39-14zm-75 159l-7 7q36 31 82 31 47 0 82-30l-7-8q-33 28-75 28t-75-28zm-21 23l-7 8q44 38 103 38 58 0 102-39l-6-7q-41 36-96 36-53 0-96-36zm290 110q-81 75-194 75-110 0-194-74l-7 7q87 77 201 77t201-77zm-438 57l-7 8q107 97 251 97t252-97l-7-8q-105 95-245 95-139 0-244-95zm344-364l-7 7q25 33 25 74t-26 75l8 7q28-36 28-82 0-47-28-81z"/><glyph glyph-name="Omega" unicode="Ω" horiz-adv-x="832" d="M126 120Q36 228 36 371q0 142 90 250 3-2 7-6-87-106-87-244t88-244zm102 91q-57 70-57 160t56 160q2-1 4.5-3.5l3.5-3.5q-54-67-54-153 0-88 54-153-1-1-2-2.5t-2.5-2.5-2.5-2zm36 32q-45 56-45 128t45 128q1-1 4-3.5t4-3.5q-43-53-43-121t43-121q-2-1-4.5-3.5zm52 46q-28 36-28 82 0 47 28 81l7-7q-25-33-25-74t26-75q-2-1-4-3.5t-4-3.5zm33 31q-16 22-16 51t16 51q2-1 4-3.5t4-3.5q-14-20-14-44t14-44q-3-2-8-7zm29 26q-7 12-7 25t7 25l6-5q-5-10-5-20t5-20q-2-2-6-5zm38-286q-116 0-201 77l7 7q84-74 194-74 111 0 193 74 1-2 3.5-4t3.5-4q-86-76-200-76zm0 264q-15 0-27 9l6 6q10-7 21-7 13 0 21 7 2-2 5-6-10-9-26-9zm66-5q-3 4-7 7 14 20 14 45t-14 44l7 7q17-22 17-51t-17-52zm-190-50q-35 45-35 102 0 58 36 102l7-7q-33-43-33-95t33-95q-5-5-8-7zM416-17q-144 0-252 97l7 8Q276-7 416-7q139 0 244 94l2-1 4-4 1-2Q560-17 416-17zm0 138q-92 0-161 61l7 8q65-59 154-59t153 59q1-1 3.5-4t3.5-4q-67-61-160-61zm0 49q-72 0-129 49l7 7q52-46 122-46t121 46l3.5-3.5 3.5-4.5q-54-48-128-48zm0 39q-57 0-103 38l7 8q43-36 96-36t96 36q2-2 6-8-45-38-102-38zm0 56q-37 0-66 24l7 8q25-22 59-22 33 0 58 22 1-2 3.5-4t3.5-4q-29-24-65-24zm-58 180q-3 2-7 7l-1 1q29 24 66 24t66-24l-8-8q-25 22-58 22t-58-22zm212 107q-65 59-154 59-87 0-153-58l-7 7q69 61 160 61 92 0 161-61-2-3-7-8zM454 346l-6 5q5 10 5 20t-5 20l6 5q7-12 7-25t-7-25zm14-13q-5 5-8 7 10 15 10 31t-10 31l8 7q12-16 12-38 0-21-12-38zm30-27q-3 2-8 7 19 25 19 58t-19 58l7 7q22-28 22-65 0-34-21-65zm42-37q-2 1-4 3.5t-4 3.5q33 43 33 95 0 53-34 95l8 7q36-44 36-102 0-57-35-102zm28-26q-5 5-8 7 43 53 43 121t-43 121l8 7q45-56 45-128t-45-128zm36-32q-3 2-8 7 55 66 55 153 0 89-55 153l8 7q57-68 57-160t-57-160zm45-40q-1 1-3.5 3t-3.5 3q69 85 69 194 0 110-70 193l8 7q72-86 72-200t-72-200zm57-51q-3 3-8 7 88 106 88 244t-88 244l8 7q90-108 90-251 0-142-90-251zm-523 50q-72 88-72 201t71 200q1-1 3.5-3t4.5-4q-69-83-69-193 0-111 69-194zm151 136q-21 29-21 65t21 65q3-2 8-7-19-25-19-58 0-32 19-57zm30 27q-12 17-12 38t12 38q1-1 2-2.5t2.5-2.5 2.5-2q-9-16-9-31t9-31zm31 70l-5 6q10 9 26 9t26-9l-5-6q-11 7-21 7-13 0-21-7zm-11 13l-7 7q17 14 39 14 21 0 38-14-4-4-6-7-14 12-32 12-17 0-32-12zm-13 14l-7 8q22 19 52 19t52-19l-7-8q-19 17-45 17t-45-17zm-76 86l-7 8q54 48 128 48t128-49l-2-1-2-4-2-2q-52 46-122 46t-121-46zm121-276q-48 0-83 30l7 8q35-28 76-28 42 0 75 28l7-7q-36-31-82-31zm0 45q-29 0-53 19l7 8q22-17 46-17 25 0 45 17l7-8q-22-19-52-19zm0 20q-21 0-40 14l7 7q17-12 33-12 17 0 32 12l7-7q-17-14-39-14zm-75 159l-7 7q36 31 82 31 47 0 82-30l-7-8q-33 28-75 28t-75-28zm-21 23l-7 8q44 38 103 38 58 0 102-39l-6-7q-41 36-96 36-53 0-96-36zm290 110q-81 75-194 75-110 0-194-74l-7 7q87 77 201 77t201-77zm-438 57l-7 8q107 97 251 97t252-97l-7-8q-105 95-245 95-139 0-244-95zm344-364l-7 7q25 33 25 74t-26 75l8 7q28-36 28-82 0-47-28-81z"/><glyph glyph-name="pi" unicode="π" horiz-adv-x="820" d="M413-12Q232-12 136.5 93.5T41 371t95.5 277.5T413 754q179 0 275-105.5T784 371 688 93.5 413-12zm0 48q162 0 242 91.5T735 371t-80 243.5T413 706q-163 0-242.5-91T91 371t79.5-244T413 36zm-174 85v489h223q100 0 139-38t39-117q0-81-39.5-121.5T460 293H316V121h-77zm77 242h146q54 0 76.5 20t22.5 68-22.5 67.5T461 538H316V363z"/><glyph glyph-name="endash" unicode="–" horiz-adv-x="704" d="M23 264l23 110h613l-23-110H23z"/><glyph glyph-name="emdash" unicode="—" horiz-adv-x="922" d="M23 264l23 110h831l-22-110H23z"/><glyph glyph-name="quoteleft" unicode="‘" horiz-adv-x="266" d="M80 444l23 110q16 83 43 120t102 70l24-62q-48-22-64.5-38.5T184 595h68l-31-151H80z"/><glyph glyph-name="quoteright" unicode="’" horiz-adv-x="266" d="M114 441l-23 62q47 21 63.5 37.5T178 589h-68l32 152h141l-23-110q-17-85-43.5-121T114 441z"/><glyph glyph-name="quotesinglbase" unicode="‚" horiz-adv-x="266" d="M-11-138l-21 61q46 22 62 38.5T54 11h-68l32 151h141L135 51Q119-29 91.5-67.5T-11-138z"/><glyph glyph-name="quotedblleft" unicode="“" horiz-adv-x="475" d="M81 448l22 108q17 82 43 117.5T246 741l22-60q-46-21-62-37t-23-48h66l-30-148H81zm212 0l23 108q17 82 42.5 117.5T458 741l22-60q-46-21-62-37t-24-48h67l-30-148H293z"/><glyph glyph-name="quotedblright" unicode="”" horiz-adv-x="475" d="M114 448l-22 59q47 22 63 38t23 49h-67l31 147h138l-23-108q-17-82-43-117.5T114 448zm213 0l-23 59q47 22 63 38.5t23 48.5h-67l31 147h137l-22-108q-17-82-42.5-117.5T327 448z"/><glyph glyph-name="quotedblbase" unicode="„" horiz-adv-x="475" d="M-11-134l-21 59q46 20 62 36.5T53 11h-67l30 147h138L133 51Q116-28 89-66t-100-68zm213 0l-23 59q46 20 62.5 36.5T265 11h-67l30 147h138L344 51q-16-79-42.5-117T202-134z"/><glyph glyph-name="dagger" unicode="†" horiz-adv-x="569" d="M114-166l128 602H68l22 110h174l50 230h115l-50-230h175l-22-110H357L229-166H114z"/><glyph glyph-name="daggerdbl" unicode="‡" horiz-adv-x="569" d="M114-166l52 246H-8l22 111h174l54 245H68l22 110h174l50 230h115l-50-230h175l-22-110H357l-54-245h175L456 80H281l-52-246H114z"/><glyph glyph-name="bullet" unicode="•" horiz-adv-x="365" d="M60 205l40 198h177l-40-198H60z"/><glyph glyph-name="ellipsis" unicode="…" horiz-adv-x="763" d="M-16 0l30 150h141L125 0H-16zm248 0l31 150h141L373 0H232zm249 0l31 150h141L622 0H481z"/><glyph glyph-name="perthousand" unicode="‰" horiz-adv-x="1609" d="M249 272q-95 0-142.5 48T59 451q0 136 69.5 219T304 753q95 0 142-49.5T493 570q0-135-69.5-216.5T249 272zm8 93q60 0 95.5 57.5T388 565q0 92-90 92-62 0-97.5-57T165 456q0-91 92-91zM836-11q-96 0-143 47.5T646 168q0 135 69 218.5T891 470q95 0 142-49.5t47-133.5q0-135-69.5-216.5T836-11zm7 93q60 0 95.5 58T974 282q0 93-90 93-61 0-96.5-57T752 173q0-91 91-91zm464-93q-95 0-142 47.5T1118 168q0 135 69.5 218.5T1362 470q95 0 142.5-49.5T1552 287q0-135-70-216.5T1307-11zm9 93q59 0 94.5 58t35.5 142q0 93-90 93-62 0-97-57t-35-145q0-91 92-91zM238 0l562 741h109L347 0H238z"/><glyph glyph-name="guilsinglleft" unicode="‹" horiz-adv-x="454" d="M158 0L67 279l210 281h105L180 279 262 0H158z"/><glyph glyph-name="guilsinglright" unicode="›" horiz-adv-x="454" d="M34 0l202 281-82 279h104l92-280L140 0H34z"/><glyph glyph-name="fraction" unicode="⁄" horiz-adv-x="520" d="M-78 0l573 741h104L26 0H-78z"/><glyph glyph-name="fraction" unicode="∕" horiz-adv-x="520" d="M-78 0l573 741h104L26 0H-78z"/><glyph glyph-name="Euro" unicode="€" horiz-adv-x="670" d="M43 405l18 93h105q40 117 117.5 186T471 753q133 0 211-54l-71-95q-59 39-142 39-124 0-185-145h231l-17-93H256q-5-20-11-67h237l-19-93H240v-1q0-150 142-150 69 0 119 28l52-90q-76-44-184-44-242 0-242 251v6H9l18 93h105q7 48 10 67H43z"/><glyph glyph-name="trademark" unicode="™" horiz-adv-x="1099" d="M475 284l98 457h100l65-338 212 338h101l-97-457h-87l66 302-190-302h-59l-58 302-67-302h-84zm-284 0l81 374H119l17 83h394l-17-83H360l-80-374h-89z"/><glyph glyph-name="partialdiff" unicode="∂" horiz-adv-x="832" d="M126 120Q36 228 36 371q0 142 90 250 3-2 7-6-87-106-87-244t88-244zm102 91q-57 70-57 160t56 160q2-1 4.5-3.5l3.5-3.5q-54-67-54-153 0-88 54-153-1-1-2-2.5t-2.5-2.5-2.5-2zm36 32q-45 56-45 128t45 128q1-1 4-3.5t4-3.5q-43-53-43-121t43-121q-2-1-4.5-3.5zm52 46q-28 36-28 82 0 47 28 81l7-7q-25-33-25-74t26-75q-2-1-4-3.5t-4-3.5zm33 31q-16 22-16 51t16 51q2-1 4-3.5t4-3.5q-14-20-14-44t14-44q-3-2-8-7zm29 26q-7 12-7 25t7 25l6-5q-5-10-5-20t5-20q-2-2-6-5zm38-286q-116 0-201 77l7 7q84-74 194-74 111 0 193 74 1-2 3.5-4t3.5-4q-86-76-200-76zm0 264q-15 0-27 9l6 6q10-7 21-7 13 0 21 7 2-2 5-6-10-9-26-9zm66-5q-3 4-7 7 14 20 14 45t-14 44l7 7q17-22 17-51t-17-52zm-190-50q-35 45-35 102 0 58 36 102l7-7q-33-43-33-95t33-95q-5-5-8-7zM416-17q-144 0-252 97l7 8Q276-7 416-7q139 0 244 94l2-1 4-4 1-2Q560-17 416-17zm0 138q-92 0-161 61l7 8q65-59 154-59t153 59q1-1 3.5-4t3.5-4q-67-61-160-61zm0 49q-72 0-129 49l7 7q52-46 122-46t121 46l3.5-3.5 3.5-4.5q-54-48-128-48zm0 39q-57 0-103 38l7 8q43-36 96-36t96 36q2-2 6-8-45-38-102-38zm0 56q-37 0-66 24l7 8q25-22 59-22 33 0 58 22 1-2 3.5-4t3.5-4q-29-24-65-24zm-58 180q-3 2-7 7l-1 1q29 24 66 24t66-24l-8-8q-25 22-58 22t-58-22zm212 107q-65 59-154 59-87 0-153-58l-7 7q69 61 160 61 92 0 161-61-2-3-7-8zM454 346l-6 5q5 10 5 20t-5 20l6 5q7-12 7-25t-7-25zm14-13q-5 5-8 7 10 15 10 31t-10 31l8 7q12-16 12-38 0-21-12-38zm30-27q-3 2-8 7 19 25 19 58t-19 58l7 7q22-28 22-65 0-34-21-65zm42-37q-2 1-4 3.5t-4 3.5q33 43 33 95 0 53-34 95l8 7q36-44 36-102 0-57-35-102zm28-26q-5 5-8 7 43 53 43 121t-43 121l8 7q45-56 45-128t-45-128zm36-32q-3 2-8 7 55 66 55 153 0 89-55 153l8 7q57-68 57-160t-57-160zm45-40q-1 1-3.5 3t-3.5 3q69 85 69 194 0 110-70 193l8 7q72-86 72-200t-72-200zm57-51q-3 3-8 7 88 106 88 244t-88 244l8 7q90-108 90-251 0-142-90-251zm-523 50q-72 88-72 201t71 200q1-1 3.5-3t4.5-4q-69-83-69-193 0-111 69-194zm151 136q-21 29-21 65t21 65q3-2 8-7-19-25-19-58 0-32 19-57zm30 27q-12 17-12 38t12 38q1-1 2-2.5t2.5-2.5 2.5-2q-9-16-9-31t9-31zm31 70l-5 6q10 9 26 9t26-9l-5-6q-11 7-21 7-13 0-21-7zm-11 13l-7 7q17 14 39 14 21 0 38-14-4-4-6-7-14 12-32 12-17 0-32-12zm-13 14l-7 8q22 19 52 19t52-19l-7-8q-19 17-45 17t-45-17zm-76 86l-7 8q54 48 128 48t128-49l-2-1-2-4-2-2q-52 46-122 46t-121-46zm121-276q-48 0-83 30l7 8q35-28 76-28 42 0 75 28l7-7q-36-31-82-31zm0 45q-29 0-53 19l7 8q22-17 46-17 25 0 45 17l7-8q-22-19-52-19zm0 20q-21 0-40 14l7 7q17-12 33-12 17 0 32 12l7-7q-17-14-39-14zm-75 159l-7 7q36 31 82 31 47 0 82-30l-7-8q-33 28-75 28t-75-28zm-21 23l-7 8q44 38 103 38 58 0 102-39l-6-7q-41 36-96 36-53 0-96-36zm290 110q-81 75-194 75-110 0-194-74l-7 7q87 77 201 77t201-77zm-438 57l-7 8q107 97 251 97t252-97l-7-8q-105 95-245 95-139 0-244-95zm344-364l-7 7q25 33 25 74t-26 75l8 7q28-36 28-82 0-47-28-81z"/><glyph glyph-name="product" unicode="∏" horiz-adv-x="832" d="M126 120Q36 228 36 371q0 142 90 250 3-2 7-6-87-106-87-244t88-244zm102 91q-57 70-57 160t56 160q2-1 4.5-3.5l3.5-3.5q-54-67-54-153 0-88 54-153-1-1-2-2.5t-2.5-2.5-2.5-2zm36 32q-45 56-45 128t45 128q1-1 4-3.5t4-3.5q-43-53-43-121t43-121q-2-1-4.5-3.5zm52 46q-28 36-28 82 0 47 28 81l7-7q-25-33-25-74t26-75q-2-1-4-3.5t-4-3.5zm33 31q-16 22-16 51t16 51q2-1 4-3.5t4-3.5q-14-20-14-44t14-44q-3-2-8-7zm29 26q-7 12-7 25t7 25l6-5q-5-10-5-20t5-20q-2-2-6-5zm38-286q-116 0-201 77l7 7q84-74 194-74 111 0 193 74 1-2 3.5-4t3.5-4q-86-76-200-76zm0 264q-15 0-27 9l6 6q10-7 21-7 13 0 21 7 2-2 5-6-10-9-26-9zm66-5q-3 4-7 7 14 20 14 45t-14 44l7 7q17-22 17-51t-17-52zm-190-50q-35 45-35 102 0 58 36 102l7-7q-33-43-33-95t33-95q-5-5-8-7zM416-17q-144 0-252 97l7 8Q276-7 416-7q139 0 244 94l2-1 4-4 1-2Q560-17 416-17zm0 138q-92 0-161 61l7 8q65-59 154-59t153 59q1-1 3.5-4t3.5-4q-67-61-160-61zm0 49q-72 0-129 49l7 7q52-46 122-46t121 46l3.5-3.5 3.5-4.5q-54-48-128-48zm0 39q-57 0-103 38l7 8q43-36 96-36t96 36q2-2 6-8-45-38-102-38zm0 56q-37 0-66 24l7 8q25-22 59-22 33 0 58 22 1-2 3.5-4t3.5-4q-29-24-65-24zm-58 180q-3 2-7 7l-1 1q29 24 66 24t66-24l-8-8q-25 22-58 22t-58-22zm212 107q-65 59-154 59-87 0-153-58l-7 7q69 61 160 61 92 0 161-61-2-3-7-8zM454 346l-6 5q5 10 5 20t-5 20l6 5q7-12 7-25t-7-25zm14-13q-5 5-8 7 10 15 10 31t-10 31l8 7q12-16 12-38 0-21-12-38zm30-27q-3 2-8 7 19 25 19 58t-19 58l7 7q22-28 22-65 0-34-21-65zm42-37q-2 1-4 3.5t-4 3.5q33 43 33 95 0 53-34 95l8 7q36-44 36-102 0-57-35-102zm28-26q-5 5-8 7 43 53 43 121t-43 121l8 7q45-56 45-128t-45-128zm36-32q-3 2-8 7 55 66 55 153 0 89-55 153l8 7q57-68 57-160t-57-160zm45-40q-1 1-3.5 3t-3.5 3q69 85 69 194 0 110-70 193l8 7q72-86 72-200t-72-200zm57-51q-3 3-8 7 88 106 88 244t-88 244l8 7q90-108 90-251 0-142-90-251zm-523 50q-72 88-72 201t71 200q1-1 3.5-3t4.5-4q-69-83-69-193 0-111 69-194zm151 136q-21 29-21 65t21 65q3-2 8-7-19-25-19-58 0-32 19-57zm30 27q-12 17-12 38t12 38q1-1 2-2.5t2.5-2.5 2.5-2q-9-16-9-31t9-31zm31 70l-5 6q10 9 26 9t26-9l-5-6q-11 7-21 7-13 0-21-7zm-11 13l-7 7q17 14 39 14 21 0 38-14-4-4-6-7-14 12-32 12-17 0-32-12zm-13 14l-7 8q22 19 52 19t52-19l-7-8q-19 17-45 17t-45-17zm-76 86l-7 8q54 48 128 48t128-49l-2-1-2-4-2-2q-52 46-122 46t-121-46zm121-276q-48 0-83 30l7 8q35-28 76-28 42 0 75 28l7-7q-36-31-82-31zm0 45q-29 0-53 19l7 8q22-17 46-17 25 0 45 17l7-8q-22-19-52-19zm0 20q-21 0-40 14l7 7q17-12 33-12 17 0 32 12l7-7q-17-14-39-14zm-75 159l-7 7q36 31 82 31 47 0 82-30l-7-8q-33 28-75 28t-75-28zm-21 23l-7 8q44 38 103 38 58 0 102-39l-6-7q-41 36-96 36-53 0-96-36zm290 110q-81 75-194 75-110 0-194-74l-7 7q87 77 201 77t201-77zm-438 57l-7 8q107 97 251 97t252-97l-7-8q-105 95-245 95-139 0-244-95zm344-364l-7 7q25 33 25 74t-26 75l8 7q28-36 28-82 0-47-28-81z"/><glyph glyph-name="summation" unicode="∑" horiz-adv-x="832" d="M126 120Q36 228 36 371q0 142 90 250 3-2 7-6-87-106-87-244t88-244zm102 91q-57 70-57 160t56 160q2-1 4.5-3.5l3.5-3.5q-54-67-54-153 0-88 54-153-1-1-2-2.5t-2.5-2.5-2.5-2zm36 32q-45 56-45 128t45 128q1-1 4-3.5t4-3.5q-43-53-43-121t43-121q-2-1-4.5-3.5zm52 46q-28 36-28 82 0 47 28 81l7-7q-25-33-25-74t26-75q-2-1-4-3.5t-4-3.5zm33 31q-16 22-16 51t16 51q2-1 4-3.5t4-3.5q-14-20-14-44t14-44q-3-2-8-7zm29 26q-7 12-7 25t7 25l6-5q-5-10-5-20t5-20q-2-2-6-5zm38-286q-116 0-201 77l7 7q84-74 194-74 111 0 193 74 1-2 3.5-4t3.5-4q-86-76-200-76zm0 264q-15 0-27 9l6 6q10-7 21-7 13 0 21 7 2-2 5-6-10-9-26-9zm66-5q-3 4-7 7 14 20 14 45t-14 44l7 7q17-22 17-51t-17-52zm-190-50q-35 45-35 102 0 58 36 102l7-7q-33-43-33-95t33-95q-5-5-8-7zM416-17q-144 0-252 97l7 8Q276-7 416-7q139 0 244 94l2-1 4-4 1-2Q560-17 416-17zm0 138q-92 0-161 61l7 8q65-59 154-59t153 59q1-1 3.5-4t3.5-4q-67-61-160-61zm0 49q-72 0-129 49l7 7q52-46 122-46t121 46l3.5-3.5 3.5-4.5q-54-48-128-48zm0 39q-57 0-103 38l7 8q43-36 96-36t96 36q2-2 6-8-45-38-102-38zm0 56q-37 0-66 24l7 8q25-22 59-22 33 0 58 22 1-2 3.5-4t3.5-4q-29-24-65-24zm-58 180q-3 2-7 7l-1 1q29 24 66 24t66-24l-8-8q-25 22-58 22t-58-22zm212 107q-65 59-154 59-87 0-153-58l-7 7q69 61 160 61 92 0 161-61-2-3-7-8zM454 346l-6 5q5 10 5 20t-5 20l6 5q7-12 7-25t-7-25zm14-13q-5 5-8 7 10 15 10 31t-10 31l8 7q12-16 12-38 0-21-12-38zm30-27q-3 2-8 7 19 25 19 58t-19 58l7 7q22-28 22-65 0-34-21-65zm42-37q-2 1-4 3.5t-4 3.5q33 43 33 95 0 53-34 95l8 7q36-44 36-102 0-57-35-102zm28-26q-5 5-8 7 43 53 43 121t-43 121l8 7q45-56 45-128t-45-128zm36-32q-3 2-8 7 55 66 55 153 0 89-55 153l8 7q57-68 57-160t-57-160zm45-40q-1 1-3.5 3t-3.5 3q69 85 69 194 0 110-70 193l8 7q72-86 72-200t-72-200zm57-51q-3 3-8 7 88 106 88 244t-88 244l8 7q90-108 90-251 0-142-90-251zm-523 50q-72 88-72 201t71 200q1-1 3.5-3t4.5-4q-69-83-69-193 0-111 69-194zm151 136q-21 29-21 65t21 65q3-2 8-7-19-25-19-58 0-32 19-57zm30 27q-12 17-12 38t12 38q1-1 2-2.5t2.5-2.5 2.5-2q-9-16-9-31t9-31zm31 70l-5 6q10 9 26 9t26-9l-5-6q-11 7-21 7-13 0-21-7zm-11 13l-7 7q17 14 39 14 21 0 38-14-4-4-6-7-14 12-32 12-17 0-32-12zm-13 14l-7 8q22 19 52 19t52-19l-7-8q-19 17-45 17t-45-17zm-76 86l-7 8q54 48 128 48t128-49l-2-1-2-4-2-2q-52 46-122 46t-121-46zm121-276q-48 0-83 30l7 8q35-28 76-28 42 0 75 28l7-7q-36-31-82-31zm0 45q-29 0-53 19l7 8q22-17 46-17 25 0 45 17l7-8q-22-19-52-19zm0 20q-21 0-40 14l7 7q17-12 33-12 17 0 32 12l7-7q-17-14-39-14zm-75 159l-7 7q36 31 82 31 47 0 82-30l-7-8q-33 28-75 28t-75-28zm-21 23l-7 8q44 38 103 38 58 0 102-39l-6-7q-41 36-96 36-53 0-96-36zm290 110q-81 75-194 75-110 0-194-74l-7 7q87 77 201 77t201-77zm-438 57l-7 8q107 97 251 97t252-97l-7-8q-105 95-245 95-139 0-244-95zm344-364l-7 7q25 33 25 74t-26 75l8 7q28-36 28-82 0-47-28-81z"/><glyph glyph-name="minus" unicode="−" horiz-adv-x="709" d="M84 297l23 111h510l-23-111H84z"/><glyph glyph-name="radical" unicode="√" horiz-adv-x="676" d="M138-5L60 429h119l50-287 362 599h117L259-5H138z"/><glyph glyph-name="infinity" unicode="∞" horiz-adv-x="972" d="M343-165l132 619H268L136-165H19l132 619H46l22 106h105l13 58q19 91 67.5 131T405 789q46 0 58-1l-20-101h-36q-53 0-75.5-20T300 605l-10-45h207l13 58q19 91 67.5 131T729 789q46 0 58-1l-21-101h-35q-53 0-75.5-20T623 605l-10-45h126l-22-106H591L460-165H343zM702 0l119 560h116L818 0H702zm132 621l26 128h118l-27-128H834z"/><glyph glyph-name="integral" unicode="∫" horiz-adv-x="832" d="M126 120Q36 228 36 371q0 142 90 250 3-2 7-6-87-106-87-244t88-244zm102 91q-57 70-57 160t56 160q2-1 4.5-3.5l3.5-3.5q-54-67-54-153 0-88 54-153-1-1-2-2.5t-2.5-2.5-2.5-2zm36 32q-45 56-45 128t45 128q1-1 4-3.5t4-3.5q-43-53-43-121t43-121q-2-1-4.5-3.5zm52 46q-28 36-28 82 0 47 28 81l7-7q-25-33-25-74t26-75q-2-1-4-3.5t-4-3.5zm33 31q-16 22-16 51t16 51q2-1 4-3.5t4-3.5q-14-20-14-44t14-44q-3-2-8-7zm29 26q-7 12-7 25t7 25l6-5q-5-10-5-20t5-20q-2-2-6-5zm38-286q-116 0-201 77l7 7q84-74 194-74 111 0 193 74 1-2 3.5-4t3.5-4q-86-76-200-76zm0 264q-15 0-27 9l6 6q10-7 21-7 13 0 21 7 2-2 5-6-10-9-26-9zm66-5q-3 4-7 7 14 20 14 45t-14 44l7 7q17-22 17-51t-17-52zm-190-50q-35 45-35 102 0 58 36 102l7-7q-33-43-33-95t33-95q-5-5-8-7zM416-17q-144 0-252 97l7 8Q276-7 416-7q139 0 244 94l2-1 4-4 1-2Q560-17 416-17zm0 138q-92 0-161 61l7 8q65-59 154-59t153 59q1-1 3.5-4t3.5-4q-67-61-160-61zm0 49q-72 0-129 49l7 7q52-46 122-46t121 46l3.5-3.5 3.5-4.5q-54-48-128-48zm0 39q-57 0-103 38l7 8q43-36 96-36t96 36q2-2 6-8-45-38-102-38zm0 56q-37 0-66 24l7 8q25-22 59-22 33 0 58 22 1-2 3.5-4t3.5-4q-29-24-65-24zm-58 180q-3 2-7 7l-1 1q29 24 66 24t66-24l-8-8q-25 22-58 22t-58-22zm212 107q-65 59-154 59-87 0-153-58l-7 7q69 61 160 61 92 0 161-61-2-3-7-8zM454 346l-6 5q5 10 5 20t-5 20l6 5q7-12 7-25t-7-25zm14-13q-5 5-8 7 10 15 10 31t-10 31l8 7q12-16 12-38 0-21-12-38zm30-27q-3 2-8 7 19 25 19 58t-19 58l7 7q22-28 22-65 0-34-21-65zm42-37q-2 1-4 3.5t-4 3.5q33 43 33 95 0 53-34 95l8 7q36-44 36-102 0-57-35-102zm28-26q-5 5-8 7 43 53 43 121t-43 121l8 7q45-56 45-128t-45-128zm36-32q-3 2-8 7 55 66 55 153 0 89-55 153l8 7q57-68 57-160t-57-160zm45-40q-1 1-3.5 3t-3.5 3q69 85 69 194 0 110-70 193l8 7q72-86 72-200t-72-200zm57-51q-3 3-8 7 88 106 88 244t-88 244l8 7q90-108 90-251 0-142-90-251zm-523 50q-72 88-72 201t71 200q1-1 3.5-3t4.5-4q-69-83-69-193 0-111 69-194zm151 136q-21 29-21 65t21 65q3-2 8-7-19-25-19-58 0-32 19-57zm30 27q-12 17-12 38t12 38q1-1 2-2.5t2.5-2.5 2.5-2q-9-16-9-31t9-31zm31 70l-5 6q10 9 26 9t26-9l-5-6q-11 7-21 7-13 0-21-7zm-11 13l-7 7q17 14 39 14 21 0 38-14-4-4-6-7-14 12-32 12-17 0-32-12zm-13 14l-7 8q22 19 52 19t52-19l-7-8q-19 17-45 17t-45-17zm-76 86l-7 8q54 48 128 48t128-49l-2-1-2-4-2-2q-52 46-122 46t-121-46zm121-276q-48 0-83 30l7 8q35-28 76-28 42 0 75 28l7-7q-36-31-82-31zm0 45q-29 0-53 19l7 8q22-17 46-17 25 0 45 17l7-8q-22-19-52-19zm0 20q-21 0-40 14l7 7q17-12 33-12 17 0 32 12l7-7q-17-14-39-14zm-75 159l-7 7q36 31 82 31 47 0 82-30l-7-8q-33 28-75 28t-75-28zm-21 23l-7 8q44 38 103 38 58 0 102-39l-6-7q-41 36-96 36-53 0-96-36zm290 110q-81 75-194 75-110 0-194-74l-7 7q87 77 201 77t201-77zm-438 57l-7 8q107 97 251 97t252-97l-7-8q-105 95-245 95-139 0-244-95zm344-364l-7 7q25 33 25 74t-26 75l8 7q28-36 28-82 0-47-28-81z"/><glyph glyph-name="approxequal" unicode="≈" horiz-adv-x="709" d="M126 158l-60 59q76 91 161 91 47 0 107-29t85-29q38 0 97 59l58-60q-84-94-160-94-42 0-101 28.5T223 212q-47 0-97-54zm50 237l-59 59q79 92 161 92 47 0 107-29t84-29q43 0 97 58l59-60q-82-94-159-94-42 0-102 29t-90 29q-47 0-98-55z"/><glyph glyph-name="notequal" unicode="≠" horiz-adv-x="733" d="M343-165l132 619H268L136-165H19l132 619H46l22 106h105l13 58q19 91 67.5 131T405 789q46 0 58-1l-20-101h-36q-53 0-75.5-20T300 605l-10-45h207l13 58q19 91 67.5 131T729 789q56 0 69-1l-21-101h-46q-53 0-75.5-20T623 605l-10-45h136l-22-106H591L460-165H343z"/><glyph glyph-name="lessequal" unicode="≤" horiz-adv-x="709" d="M31 12l21 100h427L97 318l16 77 501 219-22-107-368-154 302-154-21-101h-1l-18-86H31z"/><glyph glyph-name="greaterequal" unicode="≥" horiz-adv-x="709" d="M71 12l21 100h1l18 88 367 154-302 154 22 106 409-219-16-77-469-206h424L525 12H71z"/><glyph glyph-name="lozenge" unicode="◊" horiz-adv-x="741" d="M46 454l22 106h105l13 58q19 91 67.5 131T405 789q47 0 59-1l-20-101h-37q-53 0-75.5-20T300 605l-10-45h200l53 150 94 19-36-169h134l-22-106H578l-58-276q-12-35 0-55t62-20h54L615 0q-15-1-74-1-103 0-130 42.5T403 176l59 278H268L136-165H19l132 619H46z"/><glyph glyph-name="apple" unicode="" horiz-adv-x="832" d="M126 120Q36 228 36 371q0 142 90 250 3-2 7-6-87-106-87-244t88-244zm102 91q-57 70-57 160t56 160q2-1 4.5-3.5l3.5-3.5q-54-67-54-153 0-88 54-153-1-1-2-2.5t-2.5-2.5-2.5-2zm36 32q-45 56-45 128t45 128q1-1 4-3.5t4-3.5q-43-53-43-121t43-121q-2-1-4.5-3.5zm52 46q-28 36-28 82 0 47 28 81l7-7q-25-33-25-74t26-75q-2-1-4-3.5t-4-3.5zm33 31q-16 22-16 51t16 51q2-1 4-3.5t4-3.5q-14-20-14-44t14-44q-3-2-8-7zm29 26q-7 12-7 25t7 25l6-5q-5-10-5-20t5-20q-2-2-6-5zm38-286q-116 0-201 77l7 7q84-74 194-74 111 0 193 74 1-2 3.5-4t3.5-4q-86-76-200-76zm0 264q-15 0-27 9l6 6q10-7 21-7 13 0 21 7 2-2 5-6-10-9-26-9zm66-5q-3 4-7 7 14 20 14 45t-14 44l7 7q17-22 17-51t-17-52zm-190-50q-35 45-35 102 0 58 36 102l7-7q-33-43-33-95t33-95q-5-5-8-7zM416-17q-144 0-252 97l7 8Q276-7 416-7q139 0 244 94l2-1 4-4 1-2Q560-17 416-17zm0 138q-92 0-161 61l7 8q65-59 154-59t153 59q1-1 3.5-4t3.5-4q-67-61-160-61zm0 49q-72 0-129 49l7 7q52-46 122-46t121 46l3.5-3.5 3.5-4.5q-54-48-128-48zm0 39q-57 0-103 38l7 8q43-36 96-36t96 36q2-2 6-8-45-38-102-38zm0 56q-37 0-66 24l7 8q25-22 59-22 33 0 58 22 1-2 3.5-4t3.5-4q-29-24-65-24zm-58 180q-3 2-7 7l-1 1q29 24 66 24t66-24l-8-8q-25 22-58 22t-58-22zm212 107q-65 59-154 59-87 0-153-58l-7 7q69 61 160 61 92 0 161-61-2-3-7-8zM454 346l-6 5q5 10 5 20t-5 20l6 5q7-12 7-25t-7-25zm14-13q-5 5-8 7 10 15 10 31t-10 31l8 7q12-16 12-38 0-21-12-38zm30-27q-3 2-8 7 19 25 19 58t-19 58l7 7q22-28 22-65 0-34-21-65zm42-37q-2 1-4 3.5t-4 3.5q33 43 33 95 0 53-34 95l8 7q36-44 36-102 0-57-35-102zm28-26q-5 5-8 7 43 53 43 121t-43 121l8 7q45-56 45-128t-45-128zm36-32q-3 2-8 7 55 66 55 153 0 89-55 153l8 7q57-68 57-160t-57-160zm45-40q-1 1-3.5 3t-3.5 3q69 85 69 194 0 110-70 193l8 7q72-86 72-200t-72-200zm57-51q-3 3-8 7 88 106 88 244t-88 244l8 7q90-108 90-251 0-142-90-251zm-523 50q-72 88-72 201t71 200q1-1 3.5-3t4.5-4q-69-83-69-193 0-111 69-194zm151 136q-21 29-21 65t21 65q3-2 8-7-19-25-19-58 0-32 19-57zm30 27q-12 17-12 38t12 38q1-1 2-2.5t2.5-2.5 2.5-2q-9-16-9-31t9-31zm31 70l-5 6q10 9 26 9t26-9l-5-6q-11 7-21 7-13 0-21-7zm-11 13l-7 7q17 14 39 14 21 0 38-14-4-4-6-7-14 12-32 12-17 0-32-12zm-13 14l-7 8q22 19 52 19t52-19l-7-8q-19 17-45 17t-45-17zm-76 86l-7 8q54 48 128 48t128-49l-2-1-2-4-2-2q-52 46-122 46t-121-46zm121-276q-48 0-83 30l7 8q35-28 76-28 42 0 75 28l7-7q-36-31-82-31zm0 45q-29 0-53 19l7 8q22-17 46-17 25 0 45 17l7-8q-22-19-52-19zm0 20q-21 0-40 14l7 7q17-12 33-12 17 0 32 12l7-7q-17-14-39-14zm-75 159l-7 7q36 31 82 31 47 0 82-30l-7-8q-33 28-75 28t-75-28zm-21 23l-7 8q44 38 103 38 58 0 102-39l-6-7q-41 36-96 36-53 0-96-36zm290 110q-81 75-194 75-110 0-194-74l-7 7q87 77 201 77t201-77zm-438 57l-7 8q107 97 251 97t252-97l-7-8q-105 95-245 95-139 0-244-95zm344-364l-7 7q25 33 25 74t-26 75l8 7q28-36 28-82 0-47-28-81z"/></font>
</defs>
</svg>
