<svg width="24" height="24" viewBox="0 0 24 24" xmlns="http://www.w3.org/2000/svg"><path d="M22 16.846h-7.614l-5.529 4.015A.685.685 0 0 1 8.43 21a.704.704 0 0 1-.714-.692v-3.462H2V3h20v13.846zm-8.085-1.385h6.656V4.385H3.43V15.46h5.714v3.462l4.772-3.462zm-6.066-3.73a1.459 1.459 0 0 1-1.462-1.455c0-.804.655-1.455 1.462-1.455.808 0 1.463.651 1.463 1.455s-.655 1.455-1.463 1.455zm4.387 0a1.459 1.459 0 0 1-1.462-1.455c0-.804.655-1.455 1.462-1.455.808 0 1.462.651 1.462 1.455s-.654 1.455-1.462 1.455zm4.387 0a1.459 1.459 0 0 1-1.462-1.455c0-.804.654-1.455 1.462-1.455.808 0 1.462.651 1.462 1.455s-.654 1.455-1.462 1.455z" fill="#526173"/></svg>