<?xml version="1.0" encoding="UTF-8"?>
<svg width="24px" height="24px" viewBox="0 0 24 24" version="1.1" xmlns="http://www.w3.org/2000/svg" xmlns:xlink="http://www.w3.org/1999/xlink">
    <!-- Generator: Sketch 51.2 (57519) - http://www.bohemiancoding.com/sketch -->
    <title>Atom/icon/form-trail/clear-field</title>
    <desc>Created with Sketch.</desc>
    <defs>
        <path d="M9.9999994,0 C4.47999974,0 0,4.47999974 0,9.9999994 C0,15.5199995 4.47999974,19.9999988 9.9999994,19.9999988 C15.5199995,19.9999988 19.9999988,15.5199995 19.9999988,9.9999994 C19.9999988,4.47999927 15.5199995,0 9.9999994,0 Z M12.8284264,14.2426398 L9.9999994,11.4142129 L7.17157244,14.2426398 L5.75735897,12.8284264 L8.58578592,9.9999994 L5.75735897,7.17157244 L7.17157244,5.75735897 L9.9999994,8.58578592 L12.8284264,5.75735897 L14.2426398,7.17157244 L11.4142129,9.9999994 L14.2426398,12.8284264 L12.8284264,14.2426398 Z" id="path-1"></path>
    </defs>
    <g id="Atom/icon/form-trail/clear-field" stroke="none" stroke-width="1" fill="none" fill-rule="evenodd">
        <polygon id="Stroke-1" stroke="#000000" stroke-width="1.33333335e-11" points="-0.0294372515 -0.0294372515 23.9705612 -0.0294372515 23.9705612 23.9705612 -0.0294372515 23.9705612"></polygon>
        <rect id="safe-area" x="0" y="0" width="24" height="24"></rect>
        <g id="icon" transform="translate(2.000000, 2.000000)">
            <mask id="mask-2" fill="white">
                <use xlink:href="#path-1"></use>
            </mask>
            <g id="Artboard-Copy"></g>
            <g id="Token/color/ui/secondary" mask="url(#mask-2)" fill="#A9B0B9">
                <g transform="translate(-2.000000, -2.000000)" id="Color">
                    <rect x="0" y="0" width="24" height="24"></rect>
                </g>
            </g>
        </g>
    </g>
</svg>