<svg width="27" height="22" viewBox="0 0 27 22" xmlns="http://www.w3.org/2000/svg" xmlns:xlink="http://www.w3.org/1999/xlink"><defs><path id="a" d="M.259 0h23.114v22H.259z"/></defs><g fill="none" fill-rule="evenodd"><path fill="#68DD66" d="M0 4.85v.002L3.505 12l7.918-3.163-.937-1.92L4.69 9.232 2.126 4z"/><g transform="translate(3.115)"><mask id="b" fill="#fff"><use xlink:href="#a"/></mask><path d="M22.819 14.337c.075-.221.144-.444.205-.67.029-.112.056-.224.081-.337a10.009 10.009 0 0 0 .182-1.016 10.353 10.353 0 0 0 .064-1.99c-.001-.019-.003-.036-.003-.055-.04-.56-.11-1.125-.243-1.691-.631-2.678-2.254-4.901-4.412-6.418-.024-.017-.048-.03-.07-.047a12.68 12.68 0 0 0-.886-.558l-.097-.051a12.45 12.45 0 0 0-.946-.473c-.013-.005-.023-.012-.036-.018-.02-.008-.038-.013-.058-.022a12.134 12.134 0 0 0-2.108-.69l-.1-.022a12.269 12.269 0 0 0-1.034-.18l-.08-.01c-.35-.043-.703-.07-1.06-.082l-.056-.002a11.92 11.92 0 0 0-1.073.017l-.048.003c-.352.023-.706.06-1.061.115l-.054.008c-.217.035-.432.06-.648.106a11.882 11.882 0 0 0-3.765 1.5l.013.017C3.742 2.863 2.248 4.42 1.294 6.38A10.516 10.516 0 0 0 .26 10.13l2.185.164a8.5 8.5 0 0 1 .84-3.04c1.9-3.904 6.417-5.886 10.66-4.94a9.89 9.89 0 0 1 1.794.589c3.513 1.543 5.546 4.902 5.44 8.363l-.002.056c-.01.255-.033.511-.066.768-.006.048-.012.096-.02.145a8.6 8.6 0 0 1-.13.674 8.518 8.518 0 0 1-.338 1.107 8.126 8.126 0 0 1-.212.502c-.057.124-.112.248-.175.37a8.971 8.971 0 0 1-.55.93c-1.287 1.894-3.325 3.332-5.82 3.864-4.267.909-8.574-1.053-10.489-4.788l-1.972.911a10.97 10.97 0 0 0 1.23 1.895c1.713 2.124 4.163 3.55 6.87 4.067l-.002.008c.116.022.233.031.348.05a12.114 12.114 0 0 0 1.122.133l.113.005c.25.016.5.036.748.036 4.268 0 8.226-2.25 10.238-5.947.039-.07.077-.141.114-.212.04-.078.084-.151.123-.23.045-.096.079-.193.122-.289a9.108 9.108 0 0 0 .39-.985" fill="#68DD66" mask="url(#b)"/></g><path fill="#68DD66" d="M13.764 5.885v5.29l5 3.51 1.164-1.276-4.303-3.018V5.885z"/></g></svg>