<svg width="20" height="20" viewBox="0 0 20 20" xmlns="http://www.w3.org/2000/svg" xmlns:xlink="http://www.w3.org/1999/xlink"><defs><path d="M7 10a1 1 0 1 0 0 2 1 1 0 0 0 0-2zm12-4h-1V3a1 1 0 0 0-1-1H7a1 1 0 0 0-1 1v3H5a3 3 0 0 0-3 3v6a3 3 0 0 0 3 3h1v3a1 1 0 0 0 1 1h10a1 1 0 0 0 1-1v-3h1a3 3 0 0 0 3-3V9a3 3 0 0 0-3-3zM8 4h8v2H8V4zm8 16H8v-4h8v4zm4-5a1 1 0 0 1-1 1h-1v-1a1 1 0 0 0-1-1H7a1 1 0 0 0-1 1v1H5a1 1 0 0 1-1-1V9a1 1 0 0 1 1-1h14a1 1 0 0 1 1 1v6z" id="a"/></defs><use fill="#273a50" xlink:href="#a" transform="translate(-2 -2)" fill-rule="evenodd"/></svg>