<svg width="20" height="20" viewBox="0 0 20 20" xmlns="http://www.w3.org/2000/svg" xmlns:xlink="http://www.w3.org/1999/xlink"><defs><path d="M7.214 16.08c.139-.017.217.022.234.118.017.087-.043.147-.182.182-.14.035-.217 0-.235-.104-.017-.104.044-.17.183-.195zm-.743.105c.148-.018.222.03.222.143 0 .095-.07.143-.209.143-.147.018-.22-.03-.22-.143 0-.096.069-.143.207-.143zm-1.015-.04c.035-.095.117-.125.247-.09.14.043.196.112.17.208-.035.104-.118.13-.248.078-.147-.035-.204-.1-.17-.195zM18.9 1.1c.733.734 1.1 1.617 1.1 2.65v12.5c0 1.032-.367 1.916-1.1 2.65-.734.733-1.617 1.1-2.65 1.1h-2.917c-.138 0-.245-.005-.319-.013a1.154 1.154 0 0 1-.254-.065.36.36 0 0 1-.208-.19.838.838 0 0 1-.065-.357v-3.112c0-.843-.226-1.459-.677-1.85a8.91 8.91 0 0 0 1.335-.234 5.312 5.312 0 0 0 1.224-.508 3.64 3.64 0 0 0 1.054-.866c.283-.342.513-.798.69-1.367.178-.568.267-1.222.267-1.96 0-1.05-.343-1.944-1.028-2.682.321-.79.286-1.675-.104-2.656-.244-.078-.595-.03-1.055.143-.46.174-.86.365-1.198.573l-.495.313A9.244 9.244 0 0 0 10 4.83c-.86 0-1.693.113-2.5.339a11.318 11.318 0 0 0-.554-.352c-.23-.139-.592-.306-1.087-.501-.495-.196-.868-.254-1.12-.176-.382.98-.412 1.866-.09 2.656-.686.738-1.03 1.632-1.03 2.682 0 .738.09 1.39.267 1.954.178.564.406 1.02.684 1.367s.627.638 1.048.872c.421.235.83.404 1.224.508.395.104.84.182 1.335.235-.347.312-.56.76-.638 1.34a2.592 2.592 0 0 1-.586.196 3.7 3.7 0 0 1-.742.065 1.53 1.53 0 0 1-.853-.28c-.282-.186-.523-.458-.723-.814a2.101 2.101 0 0 0-.631-.677c-.256-.173-.471-.277-.645-.312l-.26-.039c-.183 0-.308.02-.378.058-.07.04-.09.09-.065.15a.72.72 0 0 0 .117.183c.052.06.109.113.17.156l.09.065c.192.087.38.252.567.495.187.243.323.464.41.664l.13.3c.113.33.304.596.573.8.27.204.56.334.873.39.312.057.614.088.904.092.291.004.532-.011.723-.046l.3-.052c0 .33.002.777.006 1.342l.007.885c0 .191-.048.336-.143.436a.504.504 0 0 1-.287.17 3.704 3.704 0 0 1-.43.019H3.75c-1.033 0-1.916-.367-2.65-1.1-.733-.734-1.1-1.617-1.1-2.65V3.75C0 2.717.367 1.834 1.1 1.1 1.834.367 2.717 0 3.75 0h12.5c1.033 0 1.916.367 2.65 1.1zM3.958 14.557c.052-.052.122-.039.209.04.078.095.087.164.026.207-.052.061-.122.048-.209-.039-.078-.095-.086-.164-.026-.208zm-.43-.325c.027-.044.083-.053.17-.026.087.043.117.095.091.156-.043.061-.1.07-.17.026-.086-.043-.116-.095-.09-.156zm.834.833c.078-.06.152-.035.221.078.079.104.079.187 0 .248-.07.052-.143.021-.221-.092-.078-.112-.078-.19 0-.234zm.456.586c.07-.078.156-.065.26.039.104.095.122.178.052.247-.07.078-.156.065-.26-.039-.113-.095-.13-.178-.052-.247z" id="a"/></defs><g fill="none" fill-rule="evenodd"><path d="M-2-2h24v24H-2z"/><mask id="b" fill="#fff"><use xlink:href="#a"/></mask><use fill="#273A50" fill-rule="nonzero" xlink:href="#a"/><g mask="url(#b)" fill="#273a50"><path d="M-93.75-41h219v91h-219z"/></g></g></svg>