<svg xmlns="http://www.w3.org/2000/svg" xmlns:xlink="http://www.w3.org/1999/xlink" width="24" height="24" viewBox="0 0 24 24"><defs><path id="a" d="M21.514 9.344l-.952-.524-8.573-4.763h-.105a1.01 1.01 0 0 0-.18-.057h-.353a1.114 1.114 0 0 0-.19.057h-.105L2.483 8.82a.953.953 0 0 0 0 1.657l2.372 1.315v4.515a2.858 2.858 0 0 0 2.857 2.857h7.62a2.858 2.858 0 0 0 2.858-2.857v-4.515l1.905-1.067v2.724a.953.953 0 1 0 1.905 0v-3.277a.953.953 0 0 0-.486-.828zm-5.23 6.963a.953.953 0 0 1-.952.952h-7.62a.953.953 0 0 1-.952-.952v-3.458l4.296 2.381.142.057h.086c.08.01.16.01.238 0 .08.01.16.01.238 0h.086c.05-.01.1-.03.143-.057l4.296-2.381v3.458zm-4.762-2.991l-6.61-3.677 6.61-3.677 6.61 3.677-6.61 3.677z"/></defs><use fill="#B0C4DA" fill-rule="evenodd" xlink:href="#a"/></svg>