<svg xmlns="http://www.w3.org/2000/svg" width="24" height="24" viewBox="0 0 24 24"><path fill="#fff" fill-rule="evenodd" d="M17.555 2.004L14.925 2c-2.956 0-4.866 1.932-4.866 4.922v2.27H7.414A.41.41 0 0 0 7 9.598v3.289a.41.41 0 0 0 .414.407h2.645v8.297a.41.41 0 0 0 .413.408h3.451a.41.41 0 0 0 .414-.408v-8.297h3.093a.41.41 0 0 0 .413-.407l.001-3.289a.406.406 0 0 0-.12-.288.417.417 0 0 0-.293-.12h-3.094V7.268c0-.925.223-1.394 1.445-1.394l1.772-.001a.41.41 0 0 0 .414-.408V2.412a.41.41 0 0 0-.413-.408z"/></svg>