<svg width="19" height="20" viewBox="0 0 19 20" xmlns="http://www.w3.org/2000/svg" xmlns:xlink="http://www.w3.org/1999/xlink"><defs><path d="M11 20H5a1 1 0 0 1-1-1V5a1 1 0 0 1 1-1h5v3a3 3 0 0 0 3 3h3v5a1 1 0 0 0 2 0V8.94a1.31 1.31 0 0 0-.06-.27v-.09a1.07 1.07 0 0 0-.19-.28l-6-6a1.07 1.07 0 0 0-.28-.19.29.29 0 0 0-.1 0 1.1 1.1 0 0 0-.31-.11H5a3 3 0 0 0-3 3v14a3 3 0 0 0 3 3h6a1 1 0 0 0 0-2zm1-14.59L14.59 8H13a1 1 0 0 1-1-1V5.41zM7 14h6a1 1 0 0 0 0-2H7a1 1 0 0 0 0 2zm4 2H7a1 1 0 0 0 0 2h4a1 1 0 0 0 0-2zm-4-6h1a1 1 0 1 0 0-2H7a1 1 0 1 0 0 2zm13.71 6.29a1 1 0 0 0-1.42 0L16 19.59l-1.29-1.3a1.004 1.004 0 1 0-1.42 1.42l2 2a1 1 0 0 0 1.42 0l4-4a1 1 0 0 0 0-1.42z" id="a"/></defs><use fill="#B0C4DA" xlink:href="#a" transform="translate(-2 -2)" fill-rule="evenodd"/></svg>