<svg width="20" height="20" viewBox="0 0 20 20" xmlns="http://www.w3.org/2000/svg" xmlns:xlink="http://www.w3.org/1999/xlink"><defs><path d="M21.667 15.55l-4.51-4.501c.094-.46.14-.928.139-1.397A7.654 7.654 0 0 0 6.409 2.716a.998.998 0 0 0-.29 1.617l4.341 4.33-1.796 1.797-4.33-4.34a.998.998 0 0 0-.879-.27.998.998 0 0 0-.738.559 7.654 7.654 0 0 0 6.985 10.887c.469.001.937-.046 1.397-.14l4.5 4.51a.998.998 0 0 0 1.417 0 .998.998 0 0 0 0-1.416l-4.89-4.89a.998.998 0 0 0-.947-.26 5.868 5.868 0 0 1-1.477.2 5.658 5.658 0 0 1-5.708-5.648 5.987 5.987 0 0 1 .08-.998l3.911 3.922a.998.998 0 0 0 1.417 0l3.174-3.204a.998.998 0 0 0 0-1.387L8.694 4.074a6.07 6.07 0 0 1 .998-.08 5.658 5.658 0 0 1 5.648 5.658c-.004.499-.07.995-.2 1.477-.086.34.013.7.26.948l4.89 4.89a1.002 1.002 0 1 0 1.417-1.418h-.04z" id="a"/></defs><use fill="#B0C4DA" xlink:href="#a" transform="translate(-2 -2)" fill-rule="evenodd"/></svg>