<svg xmlns="http://www.w3.org/2000/svg" xmlns:xlink="http://www.w3.org/1999/xlink" width="24" height="24" viewBox="0 0 24 24">
    <defs>
        <path id="a" d="M21.142 2.866a2.89 2.89 0 0 0-3-.71L3.998 6.885a2.9 2.9 0 0 0-.12 5.468l5.239 2a.93.93 0 0 1 .53.52l1.999 5.248A2.87 2.87 0 0 0 14.354 22h.07a2.88 2.88 0 0 0 2.69-2l4.728-14.165a2.89 2.89 0 0 0-.7-2.97zm-1.15 2.34L15.214 19.38a.88.88 0 0 1-.84.62.92.92 0 0 1-.87-.58l-2-5.249a2.91 2.91 0 0 0-1.669-1.68l-5.248-1.998a.9.9 0 0 1-.59-.87.88.88 0 0 1 .62-.84l14.176-4.728a.91.91 0 0 1 1.2 1.15z"/>
    </defs>
    <use fill="#273A50" fill-rule="evenodd" xlink:href="#a"/>
</svg>
