<svg xmlns="http://www.w3.org/2000/svg" xmlns:xlink="http://www.w3.org/1999/xlink" width="24" height="24" viewBox="0 0 24 24"><defs><path id="a" d="M17.98 14.013a3.993 3.993 0 0 0-3.075 1.478l-5.091-2.347c.24-.733.24-1.523 0-2.256l5.091-2.346a3.993 3.993 0 1 0-.848-1.807L8.785 9.161a3.993 3.993 0 1 0 0 5.71l5.272 2.427a4.163 4.163 0 0 0-.07.709 3.993 3.993 0 1 0 3.993-3.994zm0-9.984a1.997 1.997 0 1 1 0 3.994 1.997 1.997 0 0 1 0-3.994zM6 14.013a1.997 1.997 0 1 1 0-3.993 1.997 1.997 0 0 1 0 3.993zm11.98 5.99a1.997 1.997 0 1 1 0-3.993 1.997 1.997 0 0 1 0 3.993z"/></defs><use fill="#526173" fill-rule="evenodd" xlink:href="#a"/></svg>