<svg xmlns="http://www.w3.org/2000/svg" xmlns:xlink="http://www.w3.org/1999/xlink" viewBox="0 0 16 16"><defs><path id="a" d="M11 8.9c.6 0 1-.5 1-1 0-.6-.5-1-1-1s-1 .5-1 1c-.1.5.4 1 1 1zm-3.1 0c.6 0 1-.5 1-1 0-.6-.5-1-1-1-.6 0-1 .5-1 1-.1.5.4 1 1 1zm-3.1 0c.6 0 1-.5 1-1 0-.6-.5-1-1-1s-1 .5-1 1c-.1.5.4 1 1 1zm-3.1 1.9c0-.1-.1-.3-.1-.4L.4 9.1c-.6-.7-.6-1.6 0-2.2l1.1-1.3c.1-.1.1-.2.1-.4l.1-1.8c.1-.9.7-1.5 1.6-1.6l1.8-.1c.1 0 .3-.1.4-.1L6.8.5c.7-.6 1.6-.6 2.2 0l1.3 1.1c.1.1.2.1.4.1l1.8.1c.9.1 1.5.7 1.6 1.6l.1 1.8c0 .1.1.3.1.4l1.1 1.3c.6.7.6 1.6 0 2.2l-1.1 1.3c-.1.1-.1.2-.1.4l-.1 1.8c-.1.9-.7 1.5-1.6 1.6l-1.8.1c-.1 0-.3.1-.4.1L9 15.5c-.2.4-.6.5-1 .5s-.8-.1-1.1-.4l-1.3-1.1c-.1-.1-.2-.1-.4-.1l-1.8-.1c-.9-.1-1.5-.7-1.6-1.6l-.1-1.9z"/></defs><clipPath id="b"><use xlink:href="#a" overflow="visible"/></clipPath><g clip-path="url(#b)"><defs><path id="c" d="M-308-174h1440v1364H-308z"/></defs><clipPath id="d"><use xlink:href="#c" overflow="visible"/></clipPath><path clip-path="url(#d)" fill="#39bdda" d="M-5-5h26v26H-5z"/></g></svg>