<svg width="20" height="21" viewBox="0 0 20 21" xmlns="http://www.w3.org/2000/svg" xmlns:xlink="http://www.w3.org/1999/xlink"><defs><path d="M15 11.458h-2V7.292c0-.576-.448-1.042-1-1.042s-1 .466-1 1.042V12.5c0 .575.448 1.042 1 1.042h3c.552 0 1-.467 1-1.042s-.448-1.042-1-1.042zm-3-9.375C6.477 2.083 2 6.747 2 12.5s4.477 10.417 10 10.417S22 18.253 22 12.5c0-2.763-1.054-5.412-2.929-7.366-1.875-1.953-4.419-3.05-7.071-3.05zm0 18.75c-4.418 0-8-3.73-8-8.333 0-4.602 3.582-8.333 8-8.333s8 3.73 8 8.333c0 2.21-.843 4.33-2.343 5.893-1.5 1.562-3.535 2.44-5.657 2.44z" id="a"/></defs><use fill="#B0C4DA" xlink:href="#a" transform="translate(-2 -2)" fill-rule="evenodd"/></svg>