<svg xmlns="http://www.w3.org/2000/svg" width="24" height="24" viewBox="0 0 24 24"><path fill="#273A50" fill-rule="evenodd" d="M19.984 20.006a.608.608 0 0 0 0-.867l-.045-.044-.879.87.043.041c.243.24.636.24.88 0zm-1.342-2.195l-2.713-2.687-1.214-.364.35 1.25 2.698 2.67.879-.869zm-1.579-4.13l4.217 4.175c.464.458.72 1.068.72 1.716 0 .65-.257 1.26-.72 1.717a2.447 2.447 0 0 1-1.737.711 2.451 2.451 0 0 1-1.737-.71l-4.208-4.166a.906.906 0 0 1-.237-.4l-.86-3.069a.9.9 0 0 1 .243-.892.922.922 0 0 1 .908-.218l3.028.909a.91.91 0 0 1 .383.228v-.001zm1.82-8.253a.62.62 0 0 0 .622.614.619.619 0 0 0 .621-.614.619.619 0 0 0-.621-.614.619.619 0 0 0-.622.614zm-3.079 0c0 .338.28.614.622.614a.619.619 0 0 0 .622-.614.619.619 0 0 0-.622-.614.619.619 0 0 0-.622.614zm-1.744.652a2.386 2.386 0 0 1-.01-1.266H4.457a.619.619 0 0 0-.62.614v.652H14.06zM19.543 3C20.898 3 22 4.09 22 5.428v9.316c0 .5-.412.907-.918.907a.913.913 0 0 1-.917-.907v-6.85H3.836v10.158c0 .758.623 1.374 1.391 1.374h8.698c.505 0 .917.406.917.907 0 .5-.412.907-.917.907H5.227C3.448 21.24 2 19.81 2 18.052V5.428C2 4.089 3.102 3 4.457 3h15.086z"/></svg>