<svg width="40" height="40" viewBox="0 0 43 47" xmlns="http://www.w3.org/2000/svg"><g fill="#FFF"><path d="M3.435.124v3.404h36.172v40.04H43V.124zm0 3.404H.04v43.444h39.566v-3.404H3.435z"/><path d="M21.5 39C12.959 39 6 32.055 6 23.5S12.945 8 21.5 8 37 14.959 37 23.5 30.055 39 21.5 39zm0-27.78c-6.763 0-12.28 5.503-12.28 12.28 0 6.763 5.503 12.28 12.28 12.28 6.763 0 12.28-5.503 12.28-12.28 0-6.763-5.503-12.28-12.28-12.28z"/><path d="M17 33V15l13 9-13 9zm3.042-12.1v6.2l4.483-3.1-4.483-3.1z"/></g></svg>