<svg xmlns="http://www.w3.org/2000/svg" width="24" height="24" viewBox="0 0 24 24"><path fill="#273A50" fill-rule="evenodd" d="M8.724 11.207a.644.644 0 0 1-.558-.533l-.012-.065.006-.065c.006-.085.011-.143.021-.198l.031-.127c.05-.188.117-.352.206-.505.034-.064.057-.105.086-.144.043-.063.098-.127.157-.191a2.274 2.274 0 0 1 .327-.296c.14-.098.26-.165.384-.217a2 2 0 0 1 1.533-.005 1.96 1.96 0 0 1 .545.342c.07.06.13.12.19.186.064.075.11.128.15.186.032.046.064.104.096.162.086.16.144.305.183.454.015.047.03.1.04.158l.024.218-.01.118a.64.64 0 0 1-.554.52c-.386-.01-.684-.242-.722-.572a.703.703 0 0 0-.702-.622.702.702 0 0 0-.7.62.643.643 0 0 1-.24.436.646.646 0 0 1-.406.144c-.026 0-.05-.002-.075-.004zm1.421-2.67a1.134 1.134 0 1 1 0-2.267 1.134 1.134 0 0 1 0 2.267zM15 8c.55 0 1 .45 1 1s-.45 1-1 1h-1c-.55 0-1-.45-1-1s.45-1 1-1h1zm0 4c.55 0 1 .45 1 1s-.45 1-1 1H9c-.55 0-1-.45-1-1s.45-1 1-1h6zm0 4c.55 0 1 .45 1 1s-.45 1-1 1H9c-.55 0-1-.45-1-1s.45-1 1-1h6zm3-4.89V5c0-.55-.45-1-1-1H7c-.55 0-1 .45-1 1v14c0 .55.45 1 1 1h10c.55 0 1-.45 1-1v-7.89zM17 2c1.66 0 3 1.34 3 3v14c0 1.66-1.34 3-3 3H7c-1.66 0-3-1.34-3-3V5c0-1.66 1.34-3 3-3h10z"/></svg>