<svg xmlns="http://www.w3.org/2000/svg" xmlns:xlink="http://www.w3.org/1999/xlink" width="24" height="24" viewBox="0 0 24 24">
    <defs>
        <path id="a" d="M12.72 20.093c.766-.396 1.3-1.234 1.356-2.203v-.198c-.079-1.106-.552-1.739-.988-2.371-.315-.435-.632-.87-.79-1.422-.355.434-.632.948-.75 1.462-.158.592-.158 1.185-.158 1.739a.397.397 0 0 1-.395.395c-.633 0-1.028-.435-1.265-.909-.118.237-.237.632-.237 1.185v.158c0 .96.51 1.772 1.26 2.162-2.768-.477-4.905-2.895-4.935-5.798v-.367c.06-1.99.617-3.057 1.057-3.594.35 1.044 1.089 2.252 2.396 2.52l1.092.224v-1.113c0-.955.037-2.366.369-3.618.343-1.402 1.289-2.918 2.448-3.998.27 1.488 1.095 2.6 1.96 3.764l.07.092c1.034 1.367 2.205 2.914 2.386 5.405v-.002c0 .011.037.51.037.687 0 2.914-2.128 5.333-4.912 5.8m6.688-6.614v-.002c-.219-3.027-1.623-4.882-2.745-6.364l-.064-.087c-.946-1.273-1.694-2.278-1.694-3.718 0-.45-.219-.856-.602-1.113-.417-.276-.953-.26-1.427.057-1.86 1.328-3.395 3.55-3.907 5.644-.17.644-.274 1.313-.335 1.951a3.885 3.885 0 0 1-.174-.634 1.215 1.215 0 0 0-.815-1.038c-.173-.057-.623-.208-1.093.072C6.058 8.511 4.125 9.801 4 13.9v.404C4.045 18.547 7.52 22 11.745 22c4.25 0 7.706-3.457 7.706-7.707 0-.213-.042-.814-.042-.814"/>
    </defs>
    <use fill="#273A50" fill-rule="evenodd" xlink:href="#a"/>
</svg>
