<svg width="32" height="32" viewBox="0 0 32 32" xmlns="http://www.w3.org/2000/svg" xmlns:xlink="http://www.w3.org/1999/xlink"><defs><path id="a" d="M0 0h18v18.164H0z"/></defs><g transform="matrix(1 0 0 -1 7 25.5)" fill="none" fill-rule="evenodd"><mask id="b" fill="#fff"><use xlink:href="#a"/></mask><path d="M14.78 15.376v.179a.448.448 0 0 1-.447.447H6.866a5.13 5.13 0 0 1-1.458-.21v-6.74l1.502-1.5A6.411 6.411 0 0 0 8.341 5.36c.358-.805.492-1.7.492-2.549v-.894l.045-.045c.044 0 .09-.044.134-.044.09-.045.223.044.313.134.223.223.358.492.358.805v.09a15.705 15.705 0 0 1-.268 3.532l-.09.76c-.045.268 0 .537.179.716a.805.805 0 0 0 .67.313h5.367a.64.64 0 0 1 .268.089c.179.09.313.313.313.492.044.492-.805 4.158-1.342 6.618M16.703 6.7a2.422 2.422 0 0 0-1.118-.269h-4.293c.224-1.207.269-2.46.224-3.666v-.09a3.142 3.142 0 0 0-.85-2.012A2.266 2.266 0 0 0 8.654.038a1.575 1.575 0 0 0-.626.268L7.536.62c-.268.18-.447.448-.447.76v1.387a5.19 5.19 0 0 1-.358 1.878 5.086 5.086 0 0 1-1.073 1.61l-.25.266v-.33H1.475v1.473h2.46v9.028H1.474V7.667H0v10.497h5.408v-.473c.487.113.976.19 1.502.19h7.423c1.208 0 2.146-.94 2.236-2.102.67-2.907 1.43-6.395 1.43-6.887-.044-.94-.49-1.744-1.296-2.191" fill="#FFF" mask="url(#b)"/></g></svg>