<svg xmlns="http://www.w3.org/2000/svg" width="24" height="24" viewBox="0 0 24 24">
    <path fill="#B0C4DA" fill-rule="evenodd" d="M20.095 9.619a.952.952 0 0 0 .953-.953V5.81a.952.952 0 0 0-.651-.903l-8.572-2.857a.954.954 0 0 0-.603 0L2.651 4.906A.952.952 0 0 0 2 5.809v2.857a.952.952 0 0 0 .952.953h.953v6.842A2.853 2.853 0 0 0 2 19.143v1.905a.952.952 0 0 0 .952.952h17.143a.952.952 0 0 0 .953-.952v-1.905a2.853 2.853 0 0 0-1.905-2.682V9.62h.952zm-.952 10.476H3.905v-.952c0-.526.426-.952.952-.953H18.19c.526 0 .952.427.953.953v.952zM5.81 16.285V9.62h1.904v6.667H5.81zm3.809 0V9.62h3.81v6.667h-3.81zm5.714 0V9.62h1.905v6.667h-1.905zM3.905 7.715V6.496l7.619-2.54 7.619 2.54v1.218H3.905z"/>
</svg>
