<svg width="18" height="18" viewBox="0 0 18 18" xmlns="http://www.w3.org/2000/svg"><path d="M7.355 13.626L5.88 15.059a2.062 2.062 0 0 1-2.917-2.917l3.784-3.791a2.05 2.05 0 0 1 2.825-.075l.1.083a.834.834 0 0 0 1.166-1.192 2.292 2.292 0 0 0-.15-.175 3.717 3.717 0 0 0-5.075.184L1.78 10.967a3.733 3.733 0 0 0 5.275 5.275l1.442-1.408a.833.833 0 0 0-1.142-1.208zm8.908-11.867a3.742 3.742 0 0 0-5.275 0L9.547 3.167a.833.833 0 0 0 1.141 1.209l1.442-1.434a2.062 2.062 0 0 1 2.917 2.917l-3.784 3.792a2.05 2.05 0 0 1-2.825.075l-.1-.084a.834.834 0 0 0-1.166 1.192c.06.062.124.12.191.175a3.725 3.725 0 0 0 5.075-.183l3.792-3.792a3.742 3.742 0 0 0 .033-5.275z" fill="#B0C4DA" fill-rule="evenodd"/></svg>