<svg width="46" height="46" xmlns="http://www.w3.org/2000/svg">
  <g fill="none" fill-rule="evenodd">
    <path d="M-9-10h64v64H-9z"/>
    <g fill="#10364E">
      <path d="M0 41.275l4.605 4.604 27.117-27.117-4.605-4.604L0 41.276zm22.256-19.188l4.861-4.86 1.535 1.535-4.86 4.86-1.536-1.535zM3.07 41.275l17.652-17.652 1.535 1.534L4.605 42.81 3.07 41.276zM41.745 5.669L40.21 4.135l-6.232 6.23 1.536 1.536zM32.955 23.065l6.231 6.23 1.535-1.534-6.232-6.23zM36.872 19.145h8.813v-2.171h-8.813zM27.443 8.813h2.171V-.001h-2.171zM24.348 11.39l-6.23-6.232-1.536 1.534 6.232 6.232z"/>
    </g>
  </g>
</svg>
