<svg width="20" height="13" viewBox="0 0 20 13" xmlns="http://www.w3.org/2000/svg" xmlns:xlink="http://www.w3.org/1999/xlink"><defs><path d="M8.714 5.469A4.074 4.074 0 0 1 10.4 8.796c-.01 2.24-1.83 4.036-4.028 4.036H.45a.454.454 0 0 1-.45-.458V.491C0 .238.201.032.45.032h5.3a3.527 3.527 0 0 1 3.511 3.474 3.56 3.56 0 0 1-.548 1.963zM2.326 2.403v2.324h3.47c.63 0 1.14-.521 1.14-1.162 0-.64-.51-1.162-1.14-1.162h-3.47zm4.098 8.059c.91 0 1.65-.755 1.65-1.682 0-.928-.74-1.682-1.65-1.682H2.326v3.364h4.098zM20 8.032v.095c0 .252-.21.455-.47.455H12.8c.244 1.133 1.227 1.983 2.4 1.983.62 0 1.167-.199 1.613-.618a.203.203 0 0 1 .139-.056l2.36.006c.149 0 .248.152.182.282a4.805 4.805 0 0 1-4.294 2.653 4.805 4.805 0 0 1-4.8-4.8c0-2.646 2.153-4.8 4.8-4.8s4.8 2.154 4.8 4.8zM15.2 5.5c-.859 0-1.616.456-2.056 1.145h4.112A2.442 2.442 0 0 0 15.2 5.5zm2.053-3.068h-4.106c-.192 0-.347-.144-.347-.322v-.956c0-.177.155-.322.347-.322h4.106c.192 0 .347.145.347.322v.956c0 .178-.155.322-.347.322z" id="a"/></defs><g fill="none" fill-rule="evenodd"><path d="M-2-5h24v24H-2z"/><g transform="translate(0 -.032)"><mask id="b" fill="#fff"><use xlink:href="#a"/></mask><use fill="#273A50" fill-rule="nonzero" xlink:href="#a"/><g mask="url(#b)" fill="#273a50"><path d="M-77-31H98v73H-77z"/></g></g></g></svg>