<svg xmlns="http://www.w3.org/2000/svg" width="24" height="24" viewBox="0 0 24 24"><path fill="#273A50" fill-rule="evenodd" d="M7.077 18.667c-.318 0-.577-.22-.577-.488v-.681c0-.27.26-.49.578-.49L14.255 17c.32 0 .578.22.578.488v.68c0 .27-.26.49-.578.49l-7.177.009zm7.918-5.908l.241.057c.31.072.494.352.41.622l-.208.685c-.068.222-.298.377-.56.377a.658.658 0 0 1-.15-.017L7.763 12.85c-.31-.072-.494-.352-.41-.622l.208-.685c.08-.265.407-.431.71-.36l5.733 1.344-5.563-3.09a.527.527 0 0 1-.258-.321.495.495 0 0 1 .061-.399l.397-.63c.152-.24.51-.327.767-.185l5.983 3.323c.128.071.22.185.257.321a.495.495 0 0 1-.06.399l-.398.63a.542.542 0 0 1-.196.184zM4.005 20.92l-.003-2.234C4 16.983 4 15.069 4 14.222c0-.306.254-.555.566-.555h.451c.312 0 .566.249.566.555v5.913c0 .184.152.333.34.333h9.499c.187 0 .34-.149.34-.333v-5.913a.56.56 0 0 1 .565-.555h.44c.312 0 .566.249.566.555v7.27l-.01.39c0 .109 0 .109-.659.11a5547.533 5547.533 0 0 1-5.801.006L4.517 22h-.004l-.392-.01H4.12c-.11 0-.11-.008-.114-1.07zm3.017-4.554a.578.578 0 0 1-.39-.197.534.534 0 0 1-.13-.404l.075-.763a.566.566 0 0 1 .625-.5l7.107.632c.315.028.55.297.522.6l-.069.763a.56.56 0 0 1-.622.5l-7.118-.63zm10.774-6.51L16.51 2.814a.58.58 0 0 1 .493-.666l.834-.138a.602.602 0 0 1 .701.468l1.287 7.043a.58.58 0 0 1-.493.666l-.834.139a.627.627 0 0 1-.105.008.596.596 0 0 1-.596-.476zm-2.167 1.06L11.6 5.021a.577.577 0 0 1 .15-.8l.666-.458a.587.587 0 0 1 .799.15l4.019 5.904a.578.578 0 0 1-.151.8l-.654.449a.571.571 0 0 1-.8-.15z"/></svg>