<svg width="20" height="20" viewBox="0 0 20 20" xmlns="http://www.w3.org/2000/svg" xmlns:xlink="http://www.w3.org/1999/xlink"><defs><path d="M10.5.85c-5.523 0-10 4.477-10 10 0 5.522 4.477 10 10 10s10-4.478 10-10c0-5.523-4.477-10-10-10zm6.127 5.184a7.745 7.745 0 0 1 1.663 4.449 15.406 15.406 0 0 0-3.19-.356h-.007c-.8 0-1.552.072-2.26.198a34.887 34.887 0 0 0-.522-1.215c1.577-.692 3.09-1.677 4.316-3.076zM10.5 3.048a7.75 7.75 0 0 1 4.865 1.714c-1.023 1.225-2.373 2.112-3.832 2.738-1.024-1.982-2.015-3.4-2.691-4.266a7.636 7.636 0 0 1 1.658-.186zm-3.446.813c.541.64 1.625 2.047 2.783 4.243-2.355.702-4.726.866-6.161.866h-.123c-.241 0-.45-.004-.623-.01a7.827 7.827 0 0 1 4.124-5.099zM2.698 10.85l.003-.112c.223.008.509.015.853.015h.002c1.568-.01 4.306-.141 7.081-1.017.151.33.301.675.449 1.032a12.346 12.346 0 0 0-4.392 2.59 13.308 13.308 0 0 0-2.152 2.51 7.752 7.752 0 0 1-1.844-5.018zm7.802 7.802a7.748 7.748 0 0 1-4.635-1.538c.276-.454.867-1.326 1.81-2.228a10.61 10.61 0 0 1 4.054-2.454 38.485 38.485 0 0 1 1.54 5.71 7.76 7.76 0 0 1-2.77.51zm4.415-1.385a40.121 40.121 0 0 0-1.44-5.243 11.238 11.238 0 0 1 1.6-.114h.023c.93 0 1.953.116 3.062.368a7.799 7.799 0 0 1-3.245 4.989z" id="a"/></defs><g fill="none" fill-rule="evenodd"><path d="M-2-2h24v24H-2z"/><g transform="translate(-.5 -.85)"><mask id="b" fill="#fff"><use xlink:href="#a"/></mask><use fill="#273A50" fill-rule="nonzero" xlink:href="#a"/><g mask="url(#b)" fill="#273a50"><path d="M-79-29H96v73H-79z"/></g></g></g></svg>