<svg width="39" height="39" viewBox="0 0 39 39" xmlns="http://www.w3.org/2000/svg"><g fill="#FFF" fill-rule="evenodd"><path d="M8.649.54v6.068h3.243V3.85h6.482v2.758h3.243V.54z"/><path d="M26.48 12.023h3.241V6.506H3.786v3.31H26.48zM.544 9.817v19.859h10.807v-3.311H3.786V9.817zM30.95 35.515a9.496 9.496 0 0 1-1.29.546 3.513 3.513 0 0 0-1.648-1.496 3.432 3.432 0 0 0-1.383-.291c-1.262 0-2.412.69-3.034 1.785a9.272 9.272 0 0 1-1.292-.549 3.626 3.626 0 0 0-.131-2.246c-.534-1.369-1.811-2.253-3.256-2.253-.308 0-.61.04-.904.121a9.764 9.764 0 0 1-.536-1.317 3.54 3.54 0 0 0 1.466-1.684c.369-.877.382-1.85.035-2.738a3.52 3.52 0 0 0-1.5-1.771c.145-.455.326-.896.535-1.321a3.48 3.48 0 0 0 2.237-.134 3.514 3.514 0 0 0 1.902-1.916c.307-.747.358-1.56.15-2.327a9.353 9.353 0 0 1 1.288-.549c.378.67.954 1.195 1.659 1.504 1.62.705 3.563.007 4.414-1.504.442.15.873.332 1.29.547a3.725 3.725 0 0 0-.12.914 3.602 3.602 0 0 0 1.022 2.535 3.46 3.46 0 0 0 2.487 1.058 3.43 3.43 0 0 0 .899-.128c.21.426.392.867.54 1.32a3.544 3.544 0 0 0-1.466 1.683c-.707 1.682-.05 3.616 1.465 4.511a9.864 9.864 0 0 1-.537 1.317 3.496 3.496 0 0 0-2.206.133c-1.664.68-2.54 2.524-2.085 4.25m5.455-8.338a1.257 1.257 0 0 1 .012-.95c.123-.291.347-.523.635-.647l1.485-.653-.449-1.587a12.122 12.122 0 0 0-1.027-2.517l-.787-1.449L34.77 20a1.16 1.16 0 0 1-1.293-.278 1.241 1.241 0 0 1-.356-.878c.001-.158.03-.312.087-.459l.595-1.53-1.408-.797a11.697 11.697 0 0 0-2.463-1.043l-1.554-.457-.638 1.518a1.225 1.225 0 0 1-1.593.654 1.222 1.222 0 0 1-.639-.654l-.636-1.52-1.557.46a11.57 11.57 0 0 0-2.466 1.05l-1.413.805.61 1.533c.122.303.12.635-.007.937a1.197 1.197 0 0 1-.654.661c-.286.12-.616.116-.904-.001l-1.508-.63-.789 1.456c-.43.793-.774 1.64-1.021 2.516l-.446 1.585 1.485.652a1.251 1.251 0 0 1-.002 2.277l-1.481.65.444 1.587c.246.872.59 1.718 1.022 2.512l.783 1.44 1.497-.609a1.217 1.217 0 0 1 1.58.693c.115.294.115.621 0 .915l-.594 1.528 1.405.799c.776.442 1.602.794 2.46 1.049l1.556.462.639-1.52c.256-.61.982-.92 1.595-.65.286.126.513.357.637.65l.639 1.516 1.553-.457a11.722 11.722 0 0 0 2.46-1.043l1.41-.8-.599-1.532a1.25 1.25 0 0 1 .677-1.61c.287-.12.616-.12.902 0l1.5.61.783-1.44a12.1 12.1 0 0 0 1.021-2.513l.447-1.586-1.484-.651a1.216 1.216 0 0 1-.647-.68"/><path d="M29.696 26.716c-.003 1.727-1.38 3.133-3.068 3.134-1.691 0-3.068-1.404-3.068-3.132 0-1.728 1.377-3.133 3.068-3.133s3.068 1.404 3.068 3.131m-3.068-5.468c-2.954 0-5.358 2.453-5.358 5.47 0 3.016 2.405 5.47 5.359 5.47 2.95-.003 5.354-2.456 5.356-5.47 0-3.017-2.404-5.47-5.357-5.47"/></g></svg>