<?xml version="1.0" encoding="utf-8"?>
<!-- Generator: Adobe Illustrator 22.1.0, SVG Export Plug-In . SVG Version: 6.00 Build 0)  -->
<svg version="1.1" id="Layer_1" xmlns="http://www.w3.org/2000/svg" xmlns:xlink="http://www.w3.org/1999/xlink" x="0px" y="0px"
	 viewBox="0 0 40 40" style="enable-background:new 0 0 40 40;" xml:space="preserve">
<path d="M20.3,36.1c0-0.2-0.1-0.3-0.3-0.3c-0.8,0-1.5-0.3-2-0.9c-0.6-0.6-0.9-1.2-0.9-2c0-0.2-0.1-0.3-0.3-0.3
	c-0.2,0-0.3,0.1-0.3,0.3c0,1,0.3,1.8,1,2.5c0.7,0.7,1.5,1,2.5,1C20.2,36.4,20.3,36.3,20.3,36.1z M6.9,30.3h26.1
	c-3.6-4-5.3-9.6-5.3-16.7c0-0.7-0.2-1.4-0.5-2.1s-0.8-1.4-1.4-2.1c-0.6-0.7-1.4-1.2-2.4-1.6c-1-0.4-2.2-0.6-3.4-0.6
	s-2.4,0.2-3.4,0.6c-1,0.4-1.8,1-2.4,1.6c-0.6,0.7-1.1,1.3-1.4,2.1c-0.3,0.7-0.5,1.4-0.5,2.1C12.3,20.7,10.5,26.3,6.9,30.3z
	 M36.7,30.3c0,0.7-0.3,1.3-0.8,1.8s-1.1,0.8-1.8,0.8h-9c0,1.4-0.5,2.6-1.5,3.6c-1,1-2.2,1.5-3.6,1.5s-2.6-0.5-3.6-1.5
	c-1-1-1.5-2.2-1.5-3.6h-9c-0.7,0-1.3-0.3-1.8-0.8S3.3,31,3.3,30.3c0.7-0.6,1.3-1.2,1.8-1.8c0.5-0.6,1.1-1.4,1.7-2.4s1.1-2,1.5-3.2
	c0.4-1.1,0.7-2.5,1-4.1c0.3-1.6,0.4-3.4,0.4-5.2c0-2,0.8-3.9,2.4-5.7s3.6-2.8,6.2-3.2c-0.1-0.3-0.2-0.5-0.2-0.8c0-0.5,0.2-1,0.6-1.4
	S19.5,2,20,2s1,0.2,1.4,0.6s0.6,0.8,0.6,1.4c0,0.3-0.1,0.5-0.2,0.8c2.5,0.4,4.6,1.4,6.2,3.2c1.6,1.7,2.4,3.6,2.4,5.7
	c0,1.9,0.1,3.6,0.4,5.2c0.3,1.6,0.6,3,1,4.1c0.4,1.1,0.9,2.2,1.5,3.2c0.6,1,1.2,1.8,1.7,2.4C35.4,29.1,36,29.7,36.7,30.3z"/>
</svg>
