<svg xmlns="http://www.w3.org/2000/svg" xmlns:xlink="http://www.w3.org/1999/xlink" width="24" height="24" viewBox="0 0 24 24">
    <defs>
        <path id="a" d="M21.409 8.624v-.05a10.02 10.02 0 0 0-18.818 0v.05a9.88 9.88 0 0 0 0 6.733v.05a10.02 10.02 0 0 0 18.818 0v-.05a9.88 9.88 0 0 0 0-6.733zm-17.184 5.37a7.836 7.836 0 0 1 0-4.007h1.863a16.763 16.763 0 0 0 0 4.008H4.225zM5.046 16H6.45c.235.893.571 1.757 1.002 2.575a8.016 8.016 0 0 1-2.405-2.575zM6.45 7.983H5.046a8.016 8.016 0 0 1 2.375-2.575c-.42.818-.746 1.682-.972 2.575zm4.529 11.723a6.353 6.353 0 0 1-2.435-3.707h2.435v3.707zm0-5.711H8.112a14.389 14.389 0 0 1 0-4.008h2.866v4.008zm0-6.012H8.543a6.353 6.353 0 0 1 2.435-3.708v3.708zm7.936 0H17.51a12.174 12.174 0 0 0-1.002-2.575 8.016 8.016 0 0 1 2.405 2.575zm-5.932-3.708a6.353 6.353 0 0 1 2.435 3.708h-2.435V4.275zm0 15.431v-3.707h2.435a6.353 6.353 0 0 1-2.435 3.707zm2.866-5.711h-2.866V9.987h2.866c.187 1.33.187 2.678 0 4.008zm.691 4.579c.43-.818.767-1.682 1.002-2.575h1.403a8.016 8.016 0 0 1-2.405 2.575zm3.196-4.58h-1.863c.081-.664.121-1.334.12-2.003.001-.67-.04-1.34-.12-2.004h1.863a7.836 7.836 0 0 1 0 4.008z"/>
    </defs>
    <use fill="#273A50" fill-rule="evenodd" xlink:href="#a"/>
</svg>
