<svg width="30" height="30" viewBox="0 0 30 30" xmlns="http://www.w3.org/2000/svg" xmlns:xlink="http://www.w3.org/1999/xlink"><defs><path id="a" d="M0 0h16.875v17.029H0z"/></defs><g transform="matrix(1 0 0 -1 6.563 23.906)" fill="none" fill-rule="evenodd"><mask id="b" fill="#fff"><use xlink:href="#a"/></mask><path d="M13.856 14.415v.168a.42.42 0 0 1-.419.42h-7c-.479 0-.925-.07-1.367-.199V8.487l1.408-1.408A6.01 6.01 0 0 0 7.82 5.024c.335-.754.46-1.593.46-2.39v-.838l.043-.042c.042 0 .084-.041.126-.041.084-.042.209.041.293.125.21.21.336.461.336.755v.084a14.723 14.723 0 0 1-.252 3.312l-.084.712c-.042.252 0 .503.168.671.168.21.377.294.629.294h5.03a.6.6 0 0 1 .252.083.57.57 0 0 1 .294.462c.04.46-.756 3.898-1.259 6.204m1.803-8.133a2.27 2.27 0 0 0-1.048-.252h-4.025c.21-1.131.252-2.306.21-3.437v-.084A2.945 2.945 0 0 0 10 .622 2.124 2.124 0 0 0 8.113.035c-.21.043-.419.126-.587.252l-.46.294c-.252.167-.42.42-.42.713v1.299a4.86 4.86 0 0 1-.335 1.76 4.768 4.768 0 0 1-1.006 1.51l-.235.25v-.31H1.383v1.38h2.306v8.465H1.382v-8.46H0v9.841h5.07v-.443a6.19 6.19 0 0 0 1.408.177h6.959c1.132 0 2.012-.88 2.096-1.97.63-2.726 1.342-5.995 1.342-6.457-.042-.88-.461-1.635-1.216-2.054" fill="#677584" mask="url(#b)"/></g></svg>