<svg width="16" height="16" viewBox="0 0 16 16" xmlns="http://www.w3.org/2000/svg"><g fill="none" fill-rule="evenodd"><path d="M-2-2h20v20H-2z"/><path d="M12.175 14.997a.244.244 0 0 0 .188-.094.27.27 0 0 0 .054-.212l-.743-4.73 3.251-3.368a.27.27 0 0 0 .063-.268.252.252 0 0 0-.2-.177l-4.522-.728L8.22 1.14A.247.247 0 0 0 8 1a.247.247 0 0 0-.22.14L5.734 5.42l-4.522.728a.252.252 0 0 0-.2.177.27.27 0 0 0 .063.268l3.25 3.367-.742 4.73c-.018.1.02.2.098.26s.18.066.265.018L8 12.768l4.054 2.2c.037.02.079.03.12.029zm-.33-.734l-3.73-2.027a.238.238 0 0 0-.23 0l-3.73 2.027.682-4.35a.27.27 0 0 0-.071-.23L1.779 6.58l4.153-.658a.25.25 0 0 0 .181-.145L8 1.833l1.887 3.945a.25.25 0 0 0 .181.145l4.153.658-2.987 3.102a.27.27 0 0 0-.071.23l.682 4.35z" fill="#526173" fill-rule="nonzero" stroke="#526173" stroke-width=".5"/></g></svg>