<svg width="20" height="20" viewBox="0 0 20 20" xmlns="http://www.w3.org/2000/svg" xmlns:xlink="http://www.w3.org/1999/xlink"><defs><path d="M18.523 0H1.478C.662 0 0 .641 0 1.433v17.134C0 19.358.662 20 1.478 20h17.045C19.34 20 20 19.358 20 18.567V1.433C20 .642 19.34 0 18.523 0zM6.063 16.742H3.042v-9.03h3.021v9.03zM4.553 6.478h-.02c-1.014 0-1.67-.693-1.67-1.56 0-.886.675-1.56 1.709-1.56 1.033 0 1.67.674 1.69 1.56 0 .867-.656 1.56-1.71 1.56zm12.403 10.264h-3.02V11.91c0-1.214-.438-2.042-1.53-2.042-.836 0-1.333.559-1.55 1.098-.081.193-.101.463-.101.732v5.043h-3.02s.04-8.183 0-9.03h3.02v1.28c.401-.614 1.118-1.492 2.722-1.492 1.988 0 3.48 1.29 3.48 4.065v5.178zM10.76 9.084c.014-.023.033-.05.052-.077v.077h-.052z" id="a"/></defs><g fill="none" fill-rule="evenodd"><path d="M-2-2h24v24H-2z"/><mask id="b" fill="#fff"><use xlink:href="#a"/></mask><use fill="#273A50" fill-rule="nonzero" xlink:href="#a"/><g mask="url(#b)" fill="#273a50"><path d="M-76-30H99v73H-76z"/></g></g></svg>