<svg xmlns="http://www.w3.org/2000/svg" width="24" height="24" viewBox="0 0 24 24"><path fill="#526173" fill-rule="evenodd" d="M11.55 2a9.524 9.524 0 0 0-9.523 9.524 9.419 9.419 0 0 0 2.152 6.028l-1.905 1.905a.952.952 0 0 0-.2 1.038c.162.35.52.569.905.553h8.572A9.524 9.524 0 0 0 11.55 2zm0 17.143H5.275l.886-.886a.952.952 0 0 0 0-1.343 7.619 7.619 0 1 1 5.39 2.229zm4.763-8.572H6.789a.952.952 0 1 0 0 1.905h9.524a.952.952 0 0 0 0-1.905zm-1.905 3.81H8.694a.952.952 0 0 0 0 1.905h5.714a.952.952 0 0 0 0-1.905zM8.694 8.667h5.714a.952.952 0 1 0 0-1.905H8.694a.952.952 0 1 0 0 1.905z"/></svg>