<svg xmlns="http://www.w3.org/2000/svg" width="24" height="24" viewBox="0 0 24 24">
    <path fill="#B0C4DA" fill-rule="evenodd" d="M20.338 9.316L6.34 2.314a3 3 0 0 0-4.08 3.902l2.4 5.371c.11.262.11.558 0 .82l-2.4 5.372A3.002 3.002 0 0 0 5 22c.468-.005.93-.114 1.35-.32l14-7.002a3.001 3.001 0 0 0 0-5.362h-.01zm-.89 3.571L5.45 19.89a1 1 0 0 1-1.35-1.3l2.39-5.371c.031-.072.058-.146.08-.22h6.89a1 1 0 0 0 0-2.001h-6.89a2.001 2.001 0 0 0-.08-.22l-2.39-5.372a1 1 0 0 1 1.35-1.3l14 7.002a1 1 0 0 1 0 1.78z"/>
</svg>
